<?xml version="1.0" encoding="utf-8"?>
<!-- Generator: Adobe Illustrator 24.0.3, SVG Export Plug-In . SVG Version: 6.00 Build 0)  -->
<svg version="1.1" id="图层_1" xmlns="http://www.w3.org/2000/svg" xmlns:xlink="http://www.w3.org/1999/xlink" x="0px" y="0px"
	 width="56px" height="50.5px" viewBox="0 0 56 50.5" style="enable-background:new 0 0 56 50.5;" xml:space="preserve">
<style type="text/css">
	.st0{fill:url(#shape2_1_);}
	.st1{fill:url(#shape3_1_);}
	.st2{fill:url(#shape5_1_);}
	.st3{fill:url(#shape6_1_);}
	.st4{fill:url(#shape7_1_);}
	.st5{fill:url(#shape8_1_);}
	.st6{fill:url(#shape9_1_);}
	.st7{fill:url(#shape10_1_);}
	.st8{fill:#122B3F;}
	.st9{fill:#627B8F;}
	.st10{fill:#112A3E;}
	.st11{fill:#495253;}
	.st12{fill:#9BB2C6;}
	.st13{fill:url(#shape19_1_);}
	.st14{fill:url(#shape3_2_);}
	.st15{fill:url(#shape5_2_);}
	.st16{fill:url(#shape19_2_);}
</style>
<linearGradient id="shape2_1_" gradientUnits="userSpaceOnUse" x1="1084.2067" y1="-340.8084" x2="1084.2067" y2="-340.7671" gradientTransform="matrix(366.644 0 0 335.9992 -397490.125 114544.2266)">
	<stop  offset="0" style="stop-color:#B4CFE6"/>
	<stop  offset="0.1736" style="stop-color:#EDF6FC"/>
	<stop  offset="0.2638" style="stop-color:#FEFEFE"/>
	<stop  offset="0.4854" style="stop-color:#48637A"/>
	<stop  offset="0.538" style="stop-color:#203B52"/>
	<stop  offset="0.6102" style="stop-color:#4D687F"/>
	<stop  offset="0.7982" style="stop-color:#F9F9F9"/>
	<stop  offset="0.895" style="stop-color:#B9D4EB"/>
	<stop  offset="0.9948" style="stop-color:#2F2F30"/>
	<stop  offset="1" style="stop-color:#48637A"/>
</linearGradient>
<path id="shape2_13_" class="st0" d="M20.2,32.9h15.1v13.9H20.2V32.9z"/>
<linearGradient id="shape3_1_" gradientUnits="userSpaceOnUse" x1="1087.4891" y1="-343.3201" x2="1087.4891" y2="-343.2788" gradientTransform="matrix(211.2307 0 0 429.0283 -229663.4219 147325.0156)">
	<stop  offset="0" style="stop-color:#B4CFE6"/>
	<stop  offset="0.1736" style="stop-color:#EDF6FC"/>
	<stop  offset="0.2638" style="stop-color:#FEFEFE"/>
	<stop  offset="0.4854" style="stop-color:#48637A"/>
	<stop  offset="0.538" style="stop-color:#203B52"/>
	<stop  offset="0.6102" style="stop-color:#4D687F"/>
	<stop  offset="0.7982" style="stop-color:#F9F9F9"/>
	<stop  offset="0.895" style="stop-color:#B9D4EB"/>
	<stop  offset="0.9948" style="stop-color:#2F2F30"/>
	<stop  offset="1" style="stop-color:#48637A"/>
</linearGradient>
<path id="shape3_32_" class="st1" d="M43.3,30.9H52v17.8h-8.7V30.9z"/>
<linearGradient id="shape5_1_" gradientUnits="userSpaceOnUse" x1="1089.2324" y1="-343.3201" x2="1089.2324" y2="-343.2788" gradientTransform="matrix(197.0028 0 0 429.0283 -214542.4531 147325.0156)">
	<stop  offset="0" style="stop-color:#B4CFE6"/>
	<stop  offset="0.1736" style="stop-color:#EDF6FC"/>
	<stop  offset="0.2638" style="stop-color:#FEFEFE"/>
	<stop  offset="0.4854" style="stop-color:#48637A"/>
	<stop  offset="0.538" style="stop-color:#203B52"/>
	<stop  offset="0.6102" style="stop-color:#4D687F"/>
	<stop  offset="0.7982" style="stop-color:#F9F9F9"/>
	<stop  offset="0.895" style="stop-color:#B9D4EB"/>
	<stop  offset="0.9948" style="stop-color:#2F2F30"/>
	<stop  offset="1" style="stop-color:#48637A"/>
</linearGradient>
<path id="shape5_59_" class="st2" d="M35.3,32.9l8.2-2v17.8l-8.2-1.9V32.9z"/>
<linearGradient id="shape6_1_" gradientUnits="userSpaceOnUse" x1="1096.2429" y1="-338.3495" x2="1096.2015" y2="-338.3495" gradientTransform="matrix(140.0909 0 0 309.7321 -153542.9844 104820.4688)">
	<stop  offset="0" style="stop-color:#B4CFE6"/>
	<stop  offset="0.2061" style="stop-color:#E0E4E0"/>
	<stop  offset="0.2638" style="stop-color:#FEFEFE"/>
	<stop  offset="0.4555" style="stop-color:#48637A"/>
	<stop  offset="0.538" style="stop-color:#203B52"/>
	<stop  offset="0.6222" style="stop-color:#4D687F"/>
	<stop  offset="0.7982" style="stop-color:#F9F9F9"/>
	<stop  offset="0.895" style="stop-color:#B9D4EB"/>
	<stop  offset="0.9948" style="stop-color:#2F2F30"/>
	<stop  offset="1" style="stop-color:#48637A"/>
</linearGradient>
<path id="shape6_10_" class="st3" d="M24.9,17.9h5.8v9.7h-5.8C24.9,27.6,24.9,17.9,24.9,17.9z"/>
<linearGradient id="shape7_1_" gradientUnits="userSpaceOnUse" x1="1090.4745" y1="-300.9077" x2="1090.4331" y2="-300.9077" gradientTransform="matrix(199.1917 0 0 80.99 -217181.625 24400.0176)">
	<stop  offset="0" style="stop-color:#B4CFE6"/>
	<stop  offset="0.2061" style="stop-color:#E0E4E0"/>
	<stop  offset="0.2638" style="stop-color:#FEFEFE"/>
	<stop  offset="0.4555" style="stop-color:#48637A"/>
	<stop  offset="0.538" style="stop-color:#203B52"/>
	<stop  offset="0.6222" style="stop-color:#4D687F"/>
	<stop  offset="0.7982" style="stop-color:#F9F9F9"/>
	<stop  offset="0.895" style="stop-color:#B9D4EB"/>
	<stop  offset="0.9948" style="stop-color:#2F2F30"/>
	<stop  offset="1" style="stop-color:#48637A"/>
</linearGradient>
<path id="shape7_10_" class="st4" d="M23.6,27.8h8.2v3.4h-8.2C23.6,31.2,23.6,27.8,23.6,27.8z"/>
<linearGradient id="shape8_1_" gradientUnits="userSpaceOnUse" x1="1093.8459" y1="-319.2297" x2="1093.8046" y2="-319.2297" gradientTransform="matrix(159.7911 0 0 136.8075 -174755.8125 43690.5195)">
	<stop  offset="0" style="stop-color:#B4CFE6"/>
	<stop  offset="0.2061" style="stop-color:#E0E4E0"/>
	<stop  offset="0.2638" style="stop-color:#FEFEFE"/>
	<stop  offset="0.4555" style="stop-color:#48637A"/>
	<stop  offset="0.538" style="stop-color:#203B52"/>
	<stop  offset="0.6222" style="stop-color:#4D687F"/>
	<stop  offset="0.7982" style="stop-color:#F9F9F9"/>
	<stop  offset="0.895" style="stop-color:#B9D4EB"/>
	<stop  offset="0.9948" style="stop-color:#2F2F30"/>
	<stop  offset="1" style="stop-color:#48637A"/>
</linearGradient>
<path id="shape8_9_" class="st5" d="M25.2,14.7h5c0.4,0,0.8,0.3,0.8,0.7v4.1c0,0.4-0.3,0.8-0.8,0.8h-5c-0.4,0-0.7-0.3-0.7-0.8v-4.1
	C24.5,15.1,24.8,14.7,25.2,14.7z"/>
<linearGradient id="shape9_1_" gradientUnits="userSpaceOnUse" x1="1090.4746" y1="-214.6132" x2="1090.4332" y2="-214.6132" gradientTransform="matrix(199.1917 0 0 30.6449 -217181.625 6603.9492)">
	<stop  offset="0" style="stop-color:#B4CFE6"/>
	<stop  offset="0.2061" style="stop-color:#E0E4E0"/>
	<stop  offset="0.2638" style="stop-color:#FEFEFE"/>
	<stop  offset="0.4555" style="stop-color:#48637A"/>
	<stop  offset="0.538" style="stop-color:#203B52"/>
	<stop  offset="0.6222" style="stop-color:#4D687F"/>
	<stop  offset="0.7982" style="stop-color:#F9F9F9"/>
	<stop  offset="0.895" style="stop-color:#B9D4EB"/>
	<stop  offset="0.9948" style="stop-color:#2F2F30"/>
	<stop  offset="1" style="stop-color:#48637A"/>
</linearGradient>
<path id="shape9_9_" class="st6" d="M24.9,26.5h5.8l1.3,1.3h-8.2L24.9,26.5z"/>
<linearGradient id="shape10_1_" gradientUnits="userSpaceOnUse" x1="1090.4745" y1="-326.2859" x2="1090.4331" y2="-326.2859" gradientTransform="matrix(199.1917 0 0 155.4133 -217181.625 50742.668)">
	<stop  offset="0" style="stop-color:#B4CFE6"/>
	<stop  offset="0.2061" style="stop-color:#E0E4E0"/>
	<stop  offset="0.2638" style="stop-color:#FEFEFE"/>
	<stop  offset="0.4555" style="stop-color:#48637A"/>
	<stop  offset="0.538" style="stop-color:#203B52"/>
	<stop  offset="0.6222" style="stop-color:#4D687F"/>
	<stop  offset="0.7982" style="stop-color:#F9F9F9"/>
	<stop  offset="0.895" style="stop-color:#B9D4EB"/>
	<stop  offset="0.9948" style="stop-color:#2F2F30"/>
	<stop  offset="1" style="stop-color:#48637A"/>
</linearGradient>
<path id="shape10_9_" class="st7" d="M23.6,30.9h8.2v3.8c0,0-0.2,1.4-4.2,1.4s-4.1-1.4-4.1-1.4v-3.8C23.5,30.9,23.6,30.9,23.6,30.9z
	"/>
<path id="shape11_9_" class="st8" d="M15.3-0.1h24.8c0.1,0,0.3,0.1,0.3,0.2v15.2c0,0.1-0.1,0.2-0.3,0.2H15.3c-0.1,0-0.3-0.1-0.3-0.2
	V0.1C15.1,0,15.2-0.1,15.3-0.1z"/>
<path id="shape12_14_" class="st9" d="M16.3,0.8h22.9c0.2,0,0.3,0.1,0.3,0.2v13.5c0,0.1-0.1,0.2-0.3,0.2H16.3
	c-0.1,0-0.3-0.1-0.3-0.2V1C16,0.9,16.2,0.8,16.3,0.8z"/>
<path id="shape13_5_" class="st10" d="M16.7,1.5h22V14h-22V1.5L16.7,1.5z"/>
<path id="shape15_11_" class="st11" d="M18.9,5h17.7v5.6H18.9V5z"/>
<path id="shape16_13_" class="st12" d="M18.9,5.2h17.7v5.1H18.9V5.2z"/>
<linearGradient id="shape19_1_" gradientUnits="userSpaceOnUse" x1="1098.7377" y1="-344.8028" x2="1098.7377" y2="-344.7614" gradientTransform="matrix(96.3125 0 0 514.3961 -105768.2188 177394.4375)">
	<stop  offset="0" style="stop-color:#D8EDFF"/>
	<stop  offset="7.405362e-02" style="stop-color:#F0EFEF"/>
	<stop  offset="0.1608" style="stop-color:#BED9F0"/>
	<stop  offset="0.3264" style="stop-color:#19344B"/>
	<stop  offset="0.5535" style="stop-color:#89A4BB"/>
	<stop  offset="0.8267" style="stop-color:#FEFEFE"/>
	<stop  offset="0.9122" style="stop-color:#19344B"/>
	<stop  offset="0.9795" style="stop-color:#D5D9DD"/>
</linearGradient>
<path id="shape19_14_" class="st13" d="M52.8,29.2h2.3c0.4,0,0.8,0.2,0.8,0.4V50c0,0.2-0.3,0.4-0.8,0.4h-2.3c-0.4,0-0.8-0.2-0.8-0.4
	V29.6C52,29.4,52.4,29.2,52.8,29.2z"/>
<linearGradient id="shape3_2_" gradientUnits="userSpaceOnUse" x1="1082.2222" y1="-344.393" x2="1082.2222" y2="-344.4344" gradientTransform="matrix(-211.2307 0 0 -429.0283 228606.8906 -147723.3906)">
	<stop  offset="0" style="stop-color:#B4CFE6"/>
	<stop  offset="0.1736" style="stop-color:#EDF6FC"/>
	<stop  offset="0.2638" style="stop-color:#FEFEFE"/>
	<stop  offset="0.4854" style="stop-color:#48637A"/>
	<stop  offset="0.538" style="stop-color:#203B52"/>
	<stop  offset="0.6102" style="stop-color:#4D687F"/>
	<stop  offset="0.7982" style="stop-color:#F9F9F9"/>
	<stop  offset="0.895" style="stop-color:#B9D4EB"/>
	<stop  offset="0.9948" style="stop-color:#2F2F30"/>
	<stop  offset="1" style="stop-color:#48637A"/>
</linearGradient>
<path id="shape3_31_" class="st14" d="M12.7,48.7H4V30.9h8.7V48.7z"/>
<linearGradient id="shape5_2_" gradientUnits="userSpaceOnUse" x1="1083.5852" y1="-344.3931" x2="1083.5852" y2="-344.4345" gradientTransform="matrix(-197.0028 0 0 -429.0283 213485.9375 -147723.3906)">
	<stop  offset="0" style="stop-color:#B4CFE6"/>
	<stop  offset="0.1736" style="stop-color:#EDF6FC"/>
	<stop  offset="0.2638" style="stop-color:#FEFEFE"/>
	<stop  offset="0.4854" style="stop-color:#48637A"/>
	<stop  offset="0.538" style="stop-color:#203B52"/>
	<stop  offset="0.6102" style="stop-color:#4D687F"/>
	<stop  offset="0.7982" style="stop-color:#F9F9F9"/>
	<stop  offset="0.895" style="stop-color:#B9D4EB"/>
	<stop  offset="0.9948" style="stop-color:#2F2F30"/>
	<stop  offset="1" style="stop-color:#48637A"/>
</linearGradient>
<path id="shape5_58_" class="st15" d="M20.7,46.7l-8.2,2V31l8.2,1.9V46.7z"/>
<linearGradient id="shape19_2_" gradientUnits="userSpaceOnUse" x1="1098.1978" y1="-344.8028" x2="1098.1978" y2="-344.7614" gradientTransform="matrix(96.3125 0 0 514.3961 -105768.2188 177394.4375)">
	<stop  offset="0" style="stop-color:#D8EDFF"/>
	<stop  offset="7.405362e-02" style="stop-color:#F0EFEF"/>
	<stop  offset="0.1608" style="stop-color:#BED9F0"/>
	<stop  offset="0.3264" style="stop-color:#19344B"/>
	<stop  offset="0.5535" style="stop-color:#89A4BB"/>
	<stop  offset="0.8267" style="stop-color:#FEFEFE"/>
	<stop  offset="0.9122" style="stop-color:#19344B"/>
	<stop  offset="0.9795" style="stop-color:#D5D9DD"/>
</linearGradient>
<path id="shape19_13_" class="st16" d="M0.8,29.2h2.3c0.4,0,0.8,0.2,0.8,0.4V50c0,0.2-0.3,0.4-0.8,0.4H0.8C0.4,50.5,0,50.2,0,50
	V29.6C0,29.4,0.4,29.2,0.8,29.2z"/>
</svg>
