<?xml version="1.0" encoding="utf-8"?>
<!-- Generator: Adobe Illustrator 16.0.0, SVG Export Plug-In . SVG Version: 6.00 Build 0)  -->
<!DOCTYPE svg PUBLIC "-//W3C//DTD SVG 1.1//EN" "http://www.w3.org/Graphics/SVG/1.1/DTD/svg11.dtd">
<svg version="1.1" id="图层_1" xmlns="http://www.w3.org/2000/svg" xmlns:xlink="http://www.w3.org/1999/xlink" x="0px" y="0px"
	 width="26px" height="26px" viewBox="0 0 26 26" enable-background="new 0 0 26 26" xml:space="preserve">
<path fill="#0644A2" d="M18.524,24.943c-1.921,0.049-3.822-0.395-5.524-1.289c-1.703-0.893-3.604-1.336-5.524-1.285
	c-5.524,0-7.367,2.578-7.367,2.578v-3.869c2.188-1.488,4.729-2.377,7.367-2.578c1.908-0.051,3.797,0.389,5.491,1.273
	c-0.011-2.426-0.856-4.771-2.396-6.648c-1.09-1.152-2.483-1.97-4.021-2.36v2.578c0,0.712-0.577,1.288-1.289,1.288H0.108v-2.577
	h2.579c0.711,0,1.29-0.577,1.29-1.289V5.607c0-0.711-0.578-1.289-1.29-1.289H0.108V1.74h5.157c0.711,0.001,1.287,0.577,1.288,1.288
	v2.579c0,0,6.476,0.759,9.952,3.47c2.63,1.885,5.494,4.711,6.197,11.375c1.222-0.34,2.331-1.016,3.188-1.953v3.869
	C25.892,22.369,24.049,24.943,18.524,24.943z"/>
</svg>
