<?xml version="1.0" encoding="utf-8"?>
<!-- Generator: Adobe Illustrator 16.0.0, SVG Export Plug-In . SVG Version: 6.00 Build 0)  -->
<!DOCTYPE svg PUBLIC "-//W3C//DTD SVG 1.1//EN" "http://www.w3.org/Graphics/SVG/1.1/DTD/svg11.dtd">
<svg version="1.1" id="图层_1" xmlns="http://www.w3.org/2000/svg" xmlns:xlink="http://www.w3.org/1999/xlink" x="0px" y="0px"
	 width="26px" height="26px" viewBox="0 0 26 26" enable-background="new 0 0 26 26" xml:space="preserve">
<path fill="#0644A2" d="M19.822,17.866L8.022,6.067l0.77-0.77L8.545,5.05C8.203,4.679,8.227,4.1,8.599,3.759
	c0.35-0.322,0.889-0.322,1.239,0l0.894,0.891l1.553,1.551l4.958-4.954c0.451-0.407,1.146-0.372,1.553,0.077
	c0.378,0.418,0.38,1.053,0.002,1.472L13.837,7.75l4.267,4.264L23.06,7.06c0.452-0.407,1.146-0.371,1.553,0.08
	c0.377,0.418,0.378,1.053,0.002,1.471l-4.958,4.952l2.404,2.401c0.358,0.358,0.356,0.938,0,1.294c-0.357,0.358-0.938,0.358-1.294,0
	l0,0l-0.169-0.167L19.822,17.866L19.822,17.866z M17.292,20.07c-1.426,0.901-3.074,1.383-4.761,1.383
	c-1.589,0.008-3.146-0.447-4.48-1.312c-0.023,0.026-0.04,0.058-0.066,0.082l-3.673,3.668c-0.642,0.643-1.684,0.645-2.327,0.001
	C1.341,23.25,1.34,22.21,1.982,21.567l3.673-3.67c0.025-0.022,0.053-0.043,0.079-0.065c-0.916-1.411-1.373-3.072-1.307-4.752
	c0.05-1.595,0.535-3.133,1.387-4.483L17.292,20.07z M2.431,4.031C2.104,3.704,2.104,3.173,2.43,2.846
	c0.327-0.327,0.857-0.328,1.185-0.001l19.549,19.547c0.334,0.32,0.341,0.851,0.019,1.184c-0.32,0.332-0.852,0.341-1.184,0.019
	c-0.007-0.006-0.013-0.014-0.021-0.02L2.433,4.031H2.431z"/>
</svg>
