<?xml version="1.0" encoding="utf-8"?>
<!-- Generator: Adobe Illustrator 16.0.0, SVG Export Plug-In . SVG Version: 6.00 Build 0)  -->
<!DOCTYPE svg PUBLIC "-//W3C//DTD SVG 1.1//EN" "http://www.w3.org/Graphics/SVG/1.1/DTD/svg11.dtd">
<svg version="1.1" id="图层_1" xmlns="http://www.w3.org/2000/svg" xmlns:xlink="http://www.w3.org/1999/xlink" x="0px" y="0px"
	 width="26px" height="26px" viewBox="0 0 26 26" enable-background="new 0 0 26 26" xml:space="preserve">
<path fill="#0644A2" d="M12.523,12.264l-0.537-1.2c-0.351-0.784-0.765-0.847-1.288-0.925c-0.476-0.071-1.015-0.152-1.447-0.789
	C8.883,8.808,8.817,8.191,9.075,7.705c0.239-0.454,0.709-0.722,1.258-0.722c0.274,0.003,0.544,0.064,0.792,0.18
	c0.628,0.281,1.057,1.017,1.274,2.187c0.096,0.528,0.144,1.063,0.144,1.6L12.523,12.264L12.523,12.264z M14.361,12.264l-0.02-1.314
	c0-0.536,0.048-1.07,0.144-1.598c0.218-1.17,0.647-1.906,1.274-2.188c0.248-0.115,0.52-0.177,0.793-0.179
	c0.548,0,1.018,0.269,1.258,0.721c0.259,0.486,0.191,1.103-0.178,1.646c-0.432,0.636-0.973,0.717-1.445,0.789
	c-0.525,0.078-0.938,0.14-1.289,0.925L14.361,12.264z M13.458,8.837l-0.204-0.296c-0.047-0.068-1.152-1.673-1.411-2.337
	c-0.185-0.477-0.347-1.413,0.646-2.334c0.234-0.22,0.545-0.342,0.866-0.34c0.406,0,0.813,0.177,1.146,0.5
	c0.348,0.336,0.575,0.79,0.657,1.312c0.23,1.436-1.384,3.161-1.453,3.234L13.458,8.837z"/>
<path fill="#0644A2" d="M24.919,12.107c-0.358,0-0.648,0.291-0.648,0.649l0,0v0.268h-7.153l-1.988,1.921l-0.639,0.997h-0.644
	l-1.379,0.52l-0.706-1.357h-1.088l-0.658-2.08H1.729v-0.268c0-0.358-0.29-0.649-0.648-0.649s-0.648,0.291-0.648,0.649v9.727
	c0,0.358,0.29,0.648,0.648,0.648s0.648-0.29,0.648-0.648v-0.13h22.541v0.13c0,0.358,0.29,0.648,0.648,0.648s0.648-0.29,0.648-0.648
	v-9.727C25.567,12.398,25.277,12.107,24.919,12.107L24.919,12.107z"/>
</svg>
