<?xml version="1.0" encoding="utf-8"?>
<!-- Generator: Adobe Illustrator 24.1.2, SVG Export Plug-In . SVG Version: 6.00 Build 0)  -->
<svg version="1.1" id="图层_1" xmlns="http://www.w3.org/2000/svg" xmlns:xlink="http://www.w3.org/1999/xlink" x="0px" y="0px"
	 width="36px" height="36px" viewBox="0 0 36 36" enable-background="new 0 0 36 36" xml:space="preserve">
<g>
	<path fill="#12EEFF" d="M0,9.301h3.509l0.29,1.7h0.119C5.29,9.83,6.985,8.896,8.742,8.896c4.033,0,6.432,3.3,6.432,8.332
		c0,5.614-3.361,8.856-6.961,8.856c-1.433,0-2.804-0.643-4.061-1.781l0.114,2.69v4.966H0V9.301z M10.76,17.286
		c0-3.128-0.995-4.852-3.247-4.852c-1.109,0-2.104,0.552-3.247,1.695v7.19c1.052,0.909,2.109,1.228,2.985,1.228
		C9.237,22.547,10.76,20.852,10.76,17.286z"/>
	<path fill="#12EEFF" d="M19.188,4.04h4.328v8.508h8.185V4.04H36v21.635h-4.299v-9.356h-8.185v9.356h-4.328V4.04z"/>
</g>
</svg>
