<?xml version="1.0" encoding="utf-8"?>
<!-- Generator: Adobe Illustrator 24.0.3, SVG Export Plug-In . SVG Version: 6.00 Build 0)  -->
<svg version="1.1" id="图层_1" xmlns="http://www.w3.org/2000/svg" xmlns:xlink="http://www.w3.org/1999/xlink" x="0px" y="0px"
	 width="22.4px" height="56px" viewBox="0 0 22.4 56" style="enable-background:new 0 0 22.4 56;" xml:space="preserve">
<style type="text/css">
	.st0{fill:url(#shape1_1_);}
	.st1{fill:#161A1E;}
	.st2{fill:url(#shape3_1_);}
	.st3{fill:url(#shape4_2_);}
	.st4{fill:url(#shape5_1_);}
	.st5{fill:url(#shape6_1_);}
	.st6{fill:url(#shape7_1_);}
	.st7{fill:url(#shape8_1_);}
	.st8{fill:url(#shape9_1_);}
	.st9{fill:url(#shape10_1_);}
	.st10{fill:url(#shape11_2_);}
	.st11{fill:url(#shape12_1_);}
	.st12{fill:url(#shape15_1_);}
	.st13{fill:url(#shape16_1_);}
	.st14{fill:#A3C1D8;}
	.st15{fill:url(#shape21_2_);}
	.st16{fill:url(#shape22_1_);}
	.st17{fill:url(#shape26_1_);}
	.st18{fill:url(#shape28_1_);}
	.st19{fill:url(#shape29_1_);}
	.st20{fill:url(#shape30_1_);}
	.st21{fill:url(#shape33_1_);}
	.st22{fill:url(#shape34_1_);}
	.st23{fill:url(#shape35_1_);}
	.st24{fill:url(#shape43_1_);}
	.st25{fill:#3E3938;}
	.st26{fill:url(#shape46_1_);}
	.st27{fill:url(#shape22_2_);}
	.st28{fill:url(#shape22_3_);}
	.st29{fill:url(#shape20_1_);}
	.st30{fill:#93AEC5;}
	.st31{fill:#C6CDE5;}
	.st32{fill:#C4DFF6;}
	.st33{fill:url(#shape25_2_);}
	.st34{fill:url(#shape19_1_);}
	.st35{fill:url(#shape26_2_);}
	.st36{fill:none;}
	.st37{fill:url(#shape20_2_);}
	.st38{fill:url(#shape4_4_);}
	.st39{fill:url(#shape3_2_);}
	.st40{fill:url(#shape35_2_);}
	.st41{fill:url(#shape43_2_);}
	.st42{fill:url(#shape46_2_);}
	.st43{fill:url(#SVGID_1_);}
	.st44{fill:url(#SVGID_2_);}
	.st45{fill:url(#SVGID_3_);}
</style>
<g>
	
		<linearGradient id="shape1_1_" gradientUnits="userSpaceOnUse" x1="-1244.2565" y1="-479.1754" x2="-1244.2565" y2="-479.0692" gradientTransform="matrix(0 -27.7773 182.1462 0 87281.1953 -34558.9844)">
		<stop  offset="0" style="stop-color:#303E4F"/>
		<stop  offset="0.1381" style="stop-color:#455775"/>
		<stop  offset="0.1879" style="stop-color:#192735"/>
		<stop  offset="0.5744" style="stop-color:#212C3A"/>
		<stop  offset="0.8449" style="stop-color:#1B2937"/>
		<stop  offset="0.8905" style="stop-color:#485A7A"/>
		<stop  offset="1" style="stop-color:#354960"/>
	</linearGradient>
	<path id="shape1_2_" class="st0" d="M1.3,4.1V2c0,0,0.1,0,0.2,0h18.8c0.1,0,0.3,0,0.3,0.1v2.1L1.3,4.1L1.3,4.1z"/>
	<path id="shape2_2_" class="st1" d="M2,20.5V4.2h18.5v16.2L2,20.5L2,20.5z"/>
	
		<linearGradient id="shape3_1_" gradientUnits="userSpaceOnUse" x1="-1212.1779" y1="-416.9459" x2="-1212.1779" y2="-416.8627" gradientTransform="matrix(0 -142.5294 17.9869 0 7501.9712 -172759.3281)">
		<stop  offset="0" style="stop-color:#4B4D58"/>
		<stop  offset="3.000000e-02" style="stop-color:#FFFFFF"/>
		<stop  offset="8.000000e-02" style="stop-color:#8C94A9"/>
		<stop  offset="0.64" style="stop-color:#8C93A8"/>
		<stop  offset="0.95" style="stop-color:#8D95AA"/>
		<stop  offset="1" style="stop-color:#454751"/>
	</linearGradient>
	<path id="shape3_4_" class="st2" d="M2.4,19.1V4.2h1.5v14.9L2.4,19.1L2.4,19.1z"/>
	
		<linearGradient id="shape4_2_" gradientUnits="userSpaceOnUse" x1="-1212.1779" y1="-355.667" x2="-1212.1779" y2="-355.5518" gradientTransform="matrix(0 -142.5294 9.335 0 3324.6274 -172759.3281)">
		<stop  offset="0" style="stop-color:#4B4D58"/>
		<stop  offset="3.000000e-02" style="stop-color:#FFFFFF"/>
		<stop  offset="8.000000e-02" style="stop-color:#8C94A9"/>
		<stop  offset="0.64" style="stop-color:#8C93A8"/>
		<stop  offset="0.95" style="stop-color:#8D95AA"/>
		<stop  offset="1" style="stop-color:#454751"/>
	</linearGradient>
	<path id="shape4_3_" class="st3" d="M4.5,19.1V4.2h1.1v14.9L4.5,19.1L4.5,19.1z"/>
	<g transform="matrix(0,-1,1,0,956.3,932.9)">
		
			<linearGradient id="shape5_1_" gradientUnits="userSpaceOnUse" x1="-1865.21" y1="-881.0192" x2="-1865.21" y2="-880.904" gradientTransform="matrix(145.9447 0 0 4.7813 273138.5938 3262.9172)">
			<stop  offset="0" style="stop-color:#4B4D58"/>
			<stop  offset="3.000000e-02" style="stop-color:#FFFFFF"/>
			<stop  offset="8.000000e-02" style="stop-color:#8C94A9"/>
			<stop  offset="0.64" style="stop-color:#8C93A8"/>
			<stop  offset="0.95" style="stop-color:#8D95AA"/>
			<stop  offset="1" style="stop-color:#454751"/>
		</linearGradient>
		<path id="shape5_2_" class="st4" d="M913.5-949.8h15.1v0.6h-15.1V-949.8z"/>
		
			<linearGradient id="shape6_1_" gradientUnits="userSpaceOnUse" x1="-1865.21" y1="-883.1044" x2="-1865.21" y2="-882.9891" gradientTransform="matrix(145.9447 0 0 4.7813 273138.5938 3274.1868)">
			<stop  offset="0" style="stop-color:#4B4D58"/>
			<stop  offset="3.000000e-02" style="stop-color:#FFFFFF"/>
			<stop  offset="8.000000e-02" style="stop-color:#8C94A9"/>
			<stop  offset="0.64" style="stop-color:#8C93A8"/>
			<stop  offset="0.95" style="stop-color:#8D95AA"/>
			<stop  offset="1" style="stop-color:#454751"/>
		</linearGradient>
		<path id="shape6_2_" class="st5" d="M913.5-948.5h15.1v0.6h-15.1V-948.5z"/>
		
			<linearGradient id="shape7_1_" gradientUnits="userSpaceOnUse" x1="-1865.21" y1="-885.1895" x2="-1865.21" y2="-885.0742" gradientTransform="matrix(145.9447 0 0 4.7813 273138.5938 3285.4563)">
			<stop  offset="0" style="stop-color:#4B4D58"/>
			<stop  offset="3.000000e-02" style="stop-color:#FFFFFF"/>
			<stop  offset="8.000000e-02" style="stop-color:#8C94A9"/>
			<stop  offset="0.64" style="stop-color:#8C93A8"/>
			<stop  offset="0.95" style="stop-color:#8D95AA"/>
			<stop  offset="1" style="stop-color:#454751"/>
		</linearGradient>
		<path id="shape7_2_" class="st6" d="M913.5-947.2h15.1v0.6h-15.1V-947.2z"/>
		
			<linearGradient id="shape8_1_" gradientUnits="userSpaceOnUse" x1="-1865.21" y1="-887.2746" x2="-1865.21" y2="-887.1594" gradientTransform="matrix(145.9447 0 0 4.7813 273138.5938 3296.7258)">
			<stop  offset="0" style="stop-color:#4B4D58"/>
			<stop  offset="3.000000e-02" style="stop-color:#FFFFFF"/>
			<stop  offset="8.000000e-02" style="stop-color:#8C94A9"/>
			<stop  offset="0.64" style="stop-color:#8C93A8"/>
			<stop  offset="0.95" style="stop-color:#8D95AA"/>
			<stop  offset="1" style="stop-color:#454751"/>
		</linearGradient>
		<path id="shape8_2_" class="st7" d="M913.5-945.9h15.1v0.6h-15.1V-945.9z"/>
		
			<linearGradient id="shape9_1_" gradientUnits="userSpaceOnUse" x1="-1865.21" y1="-889.3597" x2="-1865.21" y2="-889.2444" gradientTransform="matrix(145.9447 0 0 4.7813 273138.5938 3307.9954)">
			<stop  offset="0" style="stop-color:#4B4D58"/>
			<stop  offset="3.000000e-02" style="stop-color:#FFFFFF"/>
			<stop  offset="8.000000e-02" style="stop-color:#8C94A9"/>
			<stop  offset="0.64" style="stop-color:#8C93A8"/>
			<stop  offset="0.95" style="stop-color:#8D95AA"/>
			<stop  offset="1" style="stop-color:#454751"/>
		</linearGradient>
		<path id="shape9_2_" class="st8" d="M913.5-944.6h15.1v0.6h-15.1V-944.6z"/>
		
			<linearGradient id="shape10_1_" gradientUnits="userSpaceOnUse" x1="-1865.21" y1="-891.4666" x2="-1865.21" y2="-891.3513" gradientTransform="matrix(145.9447 0 0 4.7813 273138.5938 3319.2688)">
			<stop  offset="0" style="stop-color:#4B4D58"/>
			<stop  offset="3.000000e-02" style="stop-color:#FFFFFF"/>
			<stop  offset="8.000000e-02" style="stop-color:#8C94A9"/>
			<stop  offset="0.64" style="stop-color:#8C93A8"/>
			<stop  offset="0.95" style="stop-color:#8D95AA"/>
			<stop  offset="1" style="stop-color:#454751"/>
		</linearGradient>
		<path id="shape10_2_" class="st9" d="M913.5-943.4h15.1v0.6h-15.1V-943.4z"/>
		
			<linearGradient id="shape11_2_" gradientUnits="userSpaceOnUse" x1="-1865.21" y1="-893.5307" x2="-1865.21" y2="-893.4155" gradientTransform="matrix(145.9447 0 0 4.7813 273138.5938 3330.5383)">
			<stop  offset="0" style="stop-color:#4B4D58"/>
			<stop  offset="3.000000e-02" style="stop-color:#FFFFFF"/>
			<stop  offset="8.000000e-02" style="stop-color:#8C94A9"/>
			<stop  offset="0.64" style="stop-color:#8C93A8"/>
			<stop  offset="0.95" style="stop-color:#8D95AA"/>
			<stop  offset="1" style="stop-color:#454751"/>
		</linearGradient>
		<path id="shape11_1_" class="st10" d="M913.5-942h15.1v0.6h-15.1V-942z"/>
		
			<linearGradient id="shape12_1_" gradientUnits="userSpaceOnUse" x1="-1865.21" y1="-895.6367" x2="-1865.21" y2="-895.5215" gradientTransform="matrix(145.9447 0 0 4.7813 273138.5938 3341.8079)">
			<stop  offset="0" style="stop-color:#4B4D58"/>
			<stop  offset="3.000000e-02" style="stop-color:#FFFFFF"/>
			<stop  offset="8.000000e-02" style="stop-color:#8C94A9"/>
			<stop  offset="0.64" style="stop-color:#8C93A8"/>
			<stop  offset="0.95" style="stop-color:#8D95AA"/>
			<stop  offset="1" style="stop-color:#454751"/>
		</linearGradient>
		<path id="shape12_2_" class="st11" d="M913.5-940.8h15.1v0.6h-15.1V-940.8z"/>
	</g>
	
		<linearGradient id="shape15_1_" gradientUnits="userSpaceOnUse" x1="1.2545" y1="36.55" x2="20.7336" y2="36.55" gradientTransform="matrix(1 0 0 -1 0 56)">
		<stop  offset="0" style="stop-color:#656A8C"/>
		<stop  offset="0.1365" style="stop-color:#8A92B7"/>
		<stop  offset="0.1733" style="stop-color:#5B6E8E"/>
		<stop  offset="0.392" style="stop-color:#7388AD"/>
		<stop  offset="0.6413" style="stop-color:#7991BC"/>
		<stop  offset="0.8396" style="stop-color:#4E5F89"/>
		<stop  offset="0.8768" style="stop-color:#5A7396"/>
		<stop  offset="1" style="stop-color:#384A66"/>
	</linearGradient>
	<path id="shape15_2_" class="st12" d="M1.3,19.9V19c0-0.1,0.1-0.2,0.2-0.2h19.1c0.1,0,0.2,0.1,0.2,0.2v0.9c0,0.1-0.1,0.2-0.2,0.2
		H1.5C1.3,20.1,1.3,20,1.3,19.9z"/>
	
		<linearGradient id="shape16_1_" gradientUnits="userSpaceOnUse" x1="-1273.7329" y1="-476.9517" x2="-1273.7329" y2="-476.8364" gradientTransform="matrix(0 -13.661 135.0159 0 64399.2539 -17379.666)">
		<stop  offset="0" style="stop-color:#303E4F"/>
		<stop  offset="0.1381" style="stop-color:#455775"/>
		<stop  offset="0.1879" style="stop-color:#192735"/>
		<stop  offset="0.5744" style="stop-color:#212C3A"/>
		<stop  offset="0.8449" style="stop-color:#1B2937"/>
		<stop  offset="0.8905" style="stop-color:#485A7A"/>
		<stop  offset="1" style="stop-color:#354960"/>
	</linearGradient>
	<path id="shape16_2_" class="st13" d="M3.2,21.3v-1c0-0.1,0.1-0.2,0.2-0.2h15.2c0.1,0,0.2,0.1,0.2,0.2v1c0,0.1-0.1,0.2-0.2,0.2H3.4
		C3.3,21.5,3.2,21.4,3.2,21.3z"/>
	<path id="shape20_12_" class="st14" d="M5.6,29v-6.1h1.1V29H5.6L5.6,29z"/>
	
		<linearGradient id="shape21_2_" gradientUnits="userSpaceOnUse" x1="-1198.677" y1="-445.2849" x2="-1198.6644" y2="-445.2849" gradientTransform="matrix(181.2355 0 0 27.5496 217244.0625 12269.1709)">
		<stop  offset="2.814781e-02" style="stop-color:#2D303A"/>
		<stop  offset="0.1381" style="stop-color:#454A5E"/>
		<stop  offset="0.1879" style="stop-color:#272B33"/>
		<stop  offset="0.5744" style="stop-color:#15171C"/>
		<stop  offset="0.8449" style="stop-color:#21222B"/>
		<stop  offset="0.8905" style="stop-color:#4B5266"/>
		<stop  offset="1" style="stop-color:#2E323D"/>
	</linearGradient>
	<path id="shape21_1_" class="st15" d="M1.3,2c0-0.1,0.3-0.2,0.8-0.3c0.4-0.1,0.8-0.1,1.5-0.2"/>
	
		<linearGradient id="shape22_1_" gradientUnits="userSpaceOnUse" x1="-1208.0636" y1="-478.8802" x2="-1208.0636" y2="-478.7956" gradientTransform="matrix(0 -249.9957 173.9497 0 83305.2109 -301968.625)">
		<stop  offset="0" style="stop-color:#D8EDFF"/>
		<stop  offset="7.405362e-02" style="stop-color:#F0EFEF"/>
		<stop  offset="0.1608" style="stop-color:#BED9F0"/>
		<stop  offset="0.3264" style="stop-color:#19344B"/>
		<stop  offset="0.5535" style="stop-color:#89A4BB"/>
		<stop  offset="0.8267" style="stop-color:#FEFEFE"/>
		<stop  offset="0.9122" style="stop-color:#19344B"/>
		<stop  offset="0.9795" style="stop-color:#D5D9DD"/>
	</linearGradient>
	<path id="shape22_6_" class="st16" d="M3.9,54.8V29.3h14.7v25.5H3.9z"/>
	
		<linearGradient id="shape26_1_" gradientUnits="userSpaceOnUse" x1="-1329.2567" y1="-399.6991" x2="-1329.2567" y2="-399.5371" gradientTransform="matrix(0 -7.0582 14.344 0 5734.1323 -9355.3594)">
		<stop  offset="0" style="stop-color:#D8EDFF"/>
		<stop  offset="7.405362e-02" style="stop-color:#F0EFEF"/>
		<stop  offset="0.1608" style="stop-color:#BED9F0"/>
		<stop  offset="0.3264" style="stop-color:#19344B"/>
		<stop  offset="0.5535" style="stop-color:#89A4BB"/>
		<stop  offset="0.8267" style="stop-color:#FEFEFE"/>
		<stop  offset="0.9122" style="stop-color:#19344B"/>
		<stop  offset="0.9795" style="stop-color:#D5D9DD"/>
	</linearGradient>
	<path id="shape26_4_" class="st17" d="M0.8,27.3v-1h2.3v1H0.8z"/>
	
		<linearGradient id="shape28_1_" gradientUnits="userSpaceOnUse" x1="-1252.1445" y1="-479.6002" x2="-1252.1445" y2="-479.4852" gradientTransform="matrix(0 -13.4333 194.2134 0 93144.8906 -16765.2324)">
		<stop  offset="0" style="stop-color:#D8EDFF"/>
		<stop  offset="7.405362e-02" style="stop-color:#F0EFEF"/>
		<stop  offset="0.1608" style="stop-color:#BED9F0"/>
		<stop  offset="0.3264" style="stop-color:#19344B"/>
		<stop  offset="0.5535" style="stop-color:#89A4BB"/>
		<stop  offset="0.8267" style="stop-color:#FEFEFE"/>
		<stop  offset="0.9122" style="stop-color:#19344B"/>
		<stop  offset="0.9795" style="stop-color:#D5D9DD"/>
	</linearGradient>
	<path id="shape28_3_" class="st18" d="M0.2,55.8v-1.2c0-0.1,0.2-0.2,0.4-0.2h21.5c0.3,0,0.4,0.1,0.4,0.2v1.2c0,0.1-0.2,0.2-0.4,0.2
		H0.6C0.4,56,0.2,55.9,0.2,55.8z"/>
	
		<linearGradient id="shape29_1_" gradientUnits="userSpaceOnUse" x1="-1295.9816" y1="-399.7888" x2="-1295.9816" y2="-399.6736" gradientTransform="matrix(0 -7.0582 14.344 0 5736.4058 -9093.2969)">
		<stop  offset="0" style="stop-color:#D8EDFF"/>
		<stop  offset="7.405362e-02" style="stop-color:#F0EFEF"/>
		<stop  offset="0.1608" style="stop-color:#BED9F0"/>
		<stop  offset="0.3264" style="stop-color:#19344B"/>
		<stop  offset="0.5535" style="stop-color:#89A4BB"/>
		<stop  offset="0.8267" style="stop-color:#FEFEFE"/>
		<stop  offset="0.9122" style="stop-color:#19344B"/>
		<stop  offset="0.9795" style="stop-color:#D5D9DD"/>
	</linearGradient>
	<path id="shape29_2_" class="st19" d="M1.8,54.4v-0.8h1.7v0.8H1.8z"/>
	
		<linearGradient id="shape30_1_" gradientUnits="userSpaceOnUse" x1="-1295.9816" y1="-408.9323" x2="-1295.9816" y2="-408.817" gradientTransform="matrix(0 -7.0582 14.344 0 5884.6245 -9093.2969)">
		<stop  offset="0" style="stop-color:#D8EDFF"/>
		<stop  offset="7.405362e-02" style="stop-color:#F0EFEF"/>
		<stop  offset="0.1608" style="stop-color:#BED9F0"/>
		<stop  offset="0.3264" style="stop-color:#19344B"/>
		<stop  offset="0.5535" style="stop-color:#89A4BB"/>
		<stop  offset="0.8267" style="stop-color:#FEFEFE"/>
		<stop  offset="0.9122" style="stop-color:#19344B"/>
		<stop  offset="0.9795" style="stop-color:#D5D9DD"/>
	</linearGradient>
	<path id="shape30_2_" class="st20" d="M18.9,54.4v-0.8h1.7v0.8H18.9z"/>
	
		<linearGradient id="shape33_1_" gradientUnits="userSpaceOnUse" x1="-3079.0872" y1="-479.713" x2="-3079.0872" y2="-479.6151" gradientTransform="matrix(0 -93.35 198.084 0 95024.7344 -287418.125)">
		<stop  offset="0" style="stop-color:#303E4F"/>
		<stop  offset="0.1381" style="stop-color:#455775"/>
		<stop  offset="0.1879" style="stop-color:#192735"/>
		<stop  offset="0.5744" style="stop-color:#212C3A"/>
		<stop  offset="0.8449" style="stop-color:#1B2937"/>
		<stop  offset="0.8905" style="stop-color:#485A7A"/>
		<stop  offset="1" style="stop-color:#354960"/>
	</linearGradient>
	<path id="shape33_2_" class="st21" d="M1.3,18.7v-8.1h19.5v8.1H1.3z"/>
	
		<linearGradient id="shape34_1_" gradientUnits="userSpaceOnUse" x1="-3244.1511" y1="-475.5696" x2="-3244.1511" y2="-475.45" gradientTransform="matrix(0 -5.9198 116.1182 0 55226.3047 -19193.9746)">
		<stop  offset="0" style="stop-color:#414659"/>
		<stop  offset="3.000000e-02" style="stop-color:#999FBA"/>
		<stop  offset="9.543899e-02" style="stop-color:#8B92A7"/>
		<stop  offset="0.64" style="stop-color:#6F7FA5"/>
		<stop  offset="0.9489" style="stop-color:#52576D"/>
		<stop  offset="1" style="stop-color:#324259"/>
	</linearGradient>
	<path id="shape34_2_" class="st22" d="M4.1,11.1v-0.7h13.8v0.7H4.1z"/>
	
		<linearGradient id="shape35_1_" gradientUnits="userSpaceOnUse" x1="-3244.1511" y1="-449.5325" x2="-3244.1511" y2="-449.4411" gradientTransform="matrix(0 -5.9198 34.1524 0 15353.8691 -19193.9746)">
		<stop  offset="0" style="stop-color:#414659"/>
		<stop  offset="3.000000e-02" style="stop-color:#999FBA"/>
		<stop  offset="6.664848e-02" style="stop-color:#8B92A7"/>
		<stop  offset="0.1146" style="stop-color:#6F7FA5"/>
		<stop  offset="0.9307" style="stop-color:#52576D"/>
		<stop  offset="1" style="stop-color:#324259"/>
	</linearGradient>
	<path id="shape35_4_" class="st23" d="M1.3,11.1v-0.7h3.1v0.7H1.3z"/>
	<g>
		
			<linearGradient id="shape43_1_" gradientUnits="userSpaceOnUse" x1="-1925.5255" y1="-916.853" x2="-1925.6409" y2="-916.853" gradientTransform="matrix(0 -7.5135 7.5135 0 6894.8755 -14449.6572)">
			<stop  offset="0" style="stop-color:#898A8A"/>
			<stop  offset="0.15" style="stop-color:#BABBBB"/>
			<stop  offset="0.25" style="stop-color:#DADADA"/>
			<stop  offset="0.44" style="stop-color:#9D9E9E"/>
			<stop  offset="0.6" style="stop-color:#8B8C8C"/>
			<stop  offset="0.8" style="stop-color:#757676"/>
			<stop  offset="0.97" style="stop-color:#6B6B6B"/>
			<stop  offset="1" style="stop-color:#8F9090"/>
		</linearGradient>
		<path id="shape43_4_" class="st24" d="M6.1,18.2c-0.2,0-0.4-0.2-0.4-0.4c0-0.2,0.2-0.4,0.4-0.4c0.2,0,0.4,0.2,0.4,0.4
			C6.5,18.1,6.3,18.2,6.1,18.2z"/>
		<path id="shape44_4_" class="st25" d="M5.9,18L5.9,18l0.3-0.4h0.1v0.1L5.9,18C6,18.1,5.9,18.1,5.9,18z"/>
		<path id="shape45_4_" class="st25" d="M5.9,17.6L5.9,17.6l0.4,0.3c0,0.1,0,0.1,0,0.2H6.2L5.9,17.6L5.9,17.6z"/>
	</g>
	<g transform="translate(35.32,0)">
		
			<linearGradient id="shape46_1_" gradientUnits="userSpaceOnUse" x1="-2041.3822" y1="-952.184" x2="-2041.4976" y2="-952.184" gradientTransform="matrix(0 -7.5135 7.5135 0 7124.9346 -15326.21)">
			<stop  offset="0" style="stop-color:#898A8A"/>
			<stop  offset="0.15" style="stop-color:#BABBBB"/>
			<stop  offset="0.25" style="stop-color:#DADADA"/>
			<stop  offset="0.44" style="stop-color:#9D9E9E"/>
			<stop  offset="0.6" style="stop-color:#8B8C8C"/>
			<stop  offset="0.8" style="stop-color:#757676"/>
			<stop  offset="0.97" style="stop-color:#6B6B6B"/>
			<stop  offset="1" style="stop-color:#8F9090"/>
		</linearGradient>
		<path id="shape46_4_" class="st26" d="M-29.3,12.2c-0.2,0-0.4-0.2-0.4-0.4s0.2-0.4,0.4-0.4s0.4,0.2,0.4,0.4S-29.1,12.2-29.3,12.2z
			"/>
		<path id="shape47_4_" class="st25" d="M-29.5,12C-29.6,11.9-29.6,11.9-29.5,12l0.3-0.4h0.1v0.1L-29.5,12L-29.5,12z"/>
		<path id="shape48_4_" class="st25" d="M-29.6,11.5C-29.5,11.5-29.5,11.5-29.6,11.5l0.4,0.3v0.1h-0.1L-29.6,11.5
			C-29.6,11.6-29.6,11.6-29.6,11.5z"/>
	</g>
	
		<linearGradient id="shape22_2_" gradientUnits="userSpaceOnUse" x1="-1208.0586" y1="-478.8957" x2="-1208.0586" y2="-478.8902" gradientTransform="matrix(0 -249.9957 173.9497 0 83305.2109 -301968.625)">
		<stop  offset="0" style="stop-color:#D8EDFF"/>
		<stop  offset="7.405362e-02" style="stop-color:#F0EFEF"/>
		<stop  offset="0.1608" style="stop-color:#BED9F0"/>
		<stop  offset="0.3264" style="stop-color:#19344B"/>
		<stop  offset="0.5535" style="stop-color:#89A4BB"/>
		<stop  offset="0.8267" style="stop-color:#FEFEFE"/>
		<stop  offset="0.9122" style="stop-color:#19344B"/>
		<stop  offset="0.9795" style="stop-color:#D5D9DD"/>
	</linearGradient>
	<path id="shape22_5_" class="st27" d="M1.4,54.3v-27h0.9v27H1.4z"/>
	
		<linearGradient id="shape22_3_" gradientUnits="userSpaceOnUse" x1="-1208.0596" y1="-478.7873" x2="-1208.0596" y2="-478.782" gradientTransform="matrix(0 -249.9957 173.9497 0 83305.2109 -301968.625)">
		<stop  offset="0" style="stop-color:#D8EDFF"/>
		<stop  offset="7.405362e-02" style="stop-color:#F0EFEF"/>
		<stop  offset="0.1608" style="stop-color:#BED9F0"/>
		<stop  offset="0.3264" style="stop-color:#19344B"/>
		<stop  offset="0.5535" style="stop-color:#89A4BB"/>
		<stop  offset="0.8267" style="stop-color:#FEFEFE"/>
		<stop  offset="0.9122" style="stop-color:#19344B"/>
		<stop  offset="0.9795" style="stop-color:#D5D9DD"/>
	</linearGradient>
	<path id="shape22_4_" class="st28" d="M20.3,54.8V27.3h0.9v27.5H20.3z"/>
	
		<linearGradient id="shape20_1_" gradientUnits="userSpaceOnUse" x1="6.6" y1="30.45" x2="8.3066" y2="30.45" gradientTransform="matrix(1 0 0 -1 0 56)">
		<stop  offset="0" style="stop-color:#303E4F"/>
		<stop  offset="1" style="stop-color:#354960"/>
	</linearGradient>
	<path id="shape20_11_" class="st29" d="M6.6,28.6v-6.1h1.7v6.1H7.5H6.6z"/>
	<path id="shape20_10_" class="st30" d="M7.1,29v-6.1h8.2V29H7.1L7.1,29z"/>
	<path id="shape20_9_" class="st31" d="M16,28.9v-6.1h-0.8v6.1h-0.6H16z"/>
	<path id="shape20_8_" class="st32" d="M15.9,29v-6.1H17V29H15.9L15.9,29z"/>
	
		<linearGradient id="shape25_2_" gradientUnits="userSpaceOnUse" x1="-1269.6654" y1="-479.5897" x2="-1269.6654" y2="-479.4744" gradientTransform="matrix(0 -13.4333 194.2134 0 93142.6406 -17027.2949)">
		<stop  offset="0" style="stop-color:#D8EDFF"/>
		<stop  offset="7.405362e-02" style="stop-color:#F0EFEF"/>
		<stop  offset="0.1608" style="stop-color:#BED9F0"/>
		<stop  offset="0.3264" style="stop-color:#19344B"/>
		<stop  offset="0.5535" style="stop-color:#89A4BB"/>
		<stop  offset="0.8267" style="stop-color:#FEFEFE"/>
		<stop  offset="0.9122" style="stop-color:#19344B"/>
		<stop  offset="0.9795" style="stop-color:#D5D9DD"/>
	</linearGradient>
	<path id="shape25_1_" class="st33" d="M-0.1,29.1v-1.2c0-0.1,0.2-0.2,0.4-0.2h21.5c0.3,0,0.4,0.1,0.4,0.2v1.2
		c0,0.1-0.2,0.2-0.4,0.2H0.4C0.1,29.3-0.1,29.2-0.1,29.1z"/>
	
		<linearGradient id="shape19_1_" gradientUnits="userSpaceOnUse" x1="-1274.1044" y1="-476.9788" x2="-1274.1044" y2="-476.8636" gradientTransform="matrix(0 -13.4333 135.4713 0 64620.0977 -17093.3262)">
		<stop  offset="0" style="stop-color:#D8EDFF"/>
		<stop  offset="7.405362e-02" style="stop-color:#F0EFEF"/>
		<stop  offset="0.1608" style="stop-color:#BED9F0"/>
		<stop  offset="0.3264" style="stop-color:#19344B"/>
		<stop  offset="0.5535" style="stop-color:#89A4BB"/>
		<stop  offset="0.8267" style="stop-color:#FEFEFE"/>
		<stop  offset="0.9122" style="stop-color:#19344B"/>
		<stop  offset="0.9795" style="stop-color:#D5D9DD"/>
	</linearGradient>
	<path id="shape19_2_" class="st34" d="M3.2,22.7v-1.2c0-0.1,0.1-0.2,0.3-0.2h15c0.2,0,0.3,0.1,0.3,0.2v1.2c0,0.1-0.2,0.2-0.3,0.2
		h-15C3.3,22.9,3.2,22.8,3.2,22.7z"/>
	
		<linearGradient id="shape26_2_" gradientUnits="userSpaceOnUse" x1="-1329.2567" y1="-398.4019" x2="-1329.2567" y2="-398.2401" gradientTransform="matrix(0 -7.0582 14.344 0 5734.1323 -9355.3594)">
		<stop  offset="0" style="stop-color:#D8EDFF"/>
		<stop  offset="7.405362e-02" style="stop-color:#F0EFEF"/>
		<stop  offset="0.1608" style="stop-color:#BED9F0"/>
		<stop  offset="0.3264" style="stop-color:#19344B"/>
		<stop  offset="0.5535" style="stop-color:#89A4BB"/>
		<stop  offset="0.8267" style="stop-color:#FEFEFE"/>
		<stop  offset="0.9122" style="stop-color:#19344B"/>
		<stop  offset="0.9795" style="stop-color:#D5D9DD"/>
	</linearGradient>
	<path id="shape26_3_" class="st35" d="M19.4,27.3v-1h2.3v1H19.4z"/>
	
		<linearGradient id="shape20_2_" gradientUnits="userSpaceOnUse" x1="7.2785" y1="30.6" x2="7.4719" y2="30.6" gradientTransform="matrix(1 0 0 -1 0 56)">
		<stop  offset="0" style="stop-color:#303E4F"/>
		<stop  offset="0.1381" style="stop-color:#455775"/>
		<stop  offset="0.1879" style="stop-color:#192735"/>
		<stop  offset="0.5744" style="stop-color:#212C3A"/>
		<stop  offset="0.8449" style="stop-color:#1B2937"/>
		<stop  offset="0.8905" style="stop-color:#485A7A"/>
		<stop  offset="1" style="stop-color:#354960"/>
	</linearGradient>
	<path id="shape20_7_" class="st37" d="M7.5,27.9v-5H7.4L7.5,27.9H7.3H7.5z"/>
	
		<linearGradient id="shape4_4_" gradientUnits="userSpaceOnUse" x1="-1212.1473" y1="-354.3602" x2="-1212.1473" y2="-354.245" gradientTransform="matrix(0 -142.5294 9.335 0 3324.6274 -172759.3281)">
		<stop  offset="0" style="stop-color:#4B4D58"/>
		<stop  offset="3.000000e-02" style="stop-color:#FFFFFF"/>
		<stop  offset="8.000000e-02" style="stop-color:#8C94A9"/>
		<stop  offset="0.64" style="stop-color:#8C93A8"/>
		<stop  offset="0.95" style="stop-color:#8D95AA"/>
		<stop  offset="1" style="stop-color:#454751"/>
	</linearGradient>
	<path id="shape4_1_" class="st38" d="M16.7,10.4V4.2h1.1v6.1h-1.1V10.4z"/>
	
		<linearGradient id="shape3_2_" gradientUnits="userSpaceOnUse" x1="-1212.1473" y1="-416.0617" x2="-1212.1473" y2="-415.9785" gradientTransform="matrix(0 -142.5294 17.9869 0 7501.9712 -172759.3281)">
		<stop  offset="0" style="stop-color:#4B4D58"/>
		<stop  offset="3.000000e-02" style="stop-color:#FFFFFF"/>
		<stop  offset="8.000000e-02" style="stop-color:#8C94A9"/>
		<stop  offset="0.64" style="stop-color:#8C93A8"/>
		<stop  offset="0.95" style="stop-color:#8D95AA"/>
		<stop  offset="1" style="stop-color:#454751"/>
	</linearGradient>
	<path id="shape3_3_" class="st39" d="M18.3,10.4V4.2h1.5v6.1h-1.5V10.4z"/>
	
		<linearGradient id="shape35_2_" gradientUnits="userSpaceOnUse" x1="-3244.1511" y1="-449.0466" x2="-3244.1511" y2="-448.9618" gradientTransform="matrix(0 -5.9198 34.1524 0 15353.8691 -19193.9746)">
		<stop  offset="0" style="stop-color:#414659"/>
		<stop  offset="3.000000e-02" style="stop-color:#999FBA"/>
		<stop  offset="6.664848e-02" style="stop-color:#8B92A7"/>
		<stop  offset="0.1146" style="stop-color:#6F7FA5"/>
		<stop  offset="0.9307" style="stop-color:#52576D"/>
		<stop  offset="1" style="stop-color:#324259"/>
	</linearGradient>
	<path id="shape35_3_" class="st40" d="M17.9,11.1v-0.7h2.9v0.7H17.9z"/>
	<g>
		
			<linearGradient id="shape43_2_" gradientUnits="userSpaceOnUse" x1="-1925.525" y1="-915.5203" x2="-1925.6404" y2="-915.5203" gradientTransform="matrix(0 -7.5135 7.5135 0 6894.8755 -14449.6572)">
			<stop  offset="0" style="stop-color:#898A8A"/>
			<stop  offset="0.15" style="stop-color:#BABBBB"/>
			<stop  offset="0.25" style="stop-color:#DADADA"/>
			<stop  offset="0.44" style="stop-color:#9D9E9E"/>
			<stop  offset="0.6" style="stop-color:#8B8C8C"/>
			<stop  offset="0.8" style="stop-color:#757676"/>
			<stop  offset="0.97" style="stop-color:#6B6B6B"/>
			<stop  offset="1" style="stop-color:#8F9090"/>
		</linearGradient>
		<path id="shape43_3_" class="st41" d="M16.1,18.2c-0.2,0-0.4-0.2-0.4-0.4c0-0.2,0.2-0.4,0.4-0.4c0.2,0,0.4,0.2,0.4,0.4
			C16.6,18,16.4,18.2,16.1,18.2z"/>
		<path id="shape44_3_" class="st25" d="M16,18C15.9,18,15.9,18,16,18l0.3-0.4h0.1v0.1L16,18L16,18z"/>
		<path id="shape45_3_" class="st25" d="M15.9,17.6C16,17.6,16,17.6,15.9,17.6l0.4,0.3c0,0.1,0,0.1,0,0.2h-0.1L15.9,17.6L15.9,17.6z
			"/>
	</g>
	<g transform="translate(35.32,0)">
		
			<linearGradient id="shape46_2_" gradientUnits="userSpaceOnUse" x1="-2041.3817" y1="-950.853" x2="-2041.4972" y2="-950.853" gradientTransform="matrix(0 -7.5135 7.5135 0 7124.9346 -15326.21)">
			<stop  offset="0" style="stop-color:#898A8A"/>
			<stop  offset="0.15" style="stop-color:#BABBBB"/>
			<stop  offset="0.25" style="stop-color:#DADADA"/>
			<stop  offset="0.44" style="stop-color:#9D9E9E"/>
			<stop  offset="0.6" style="stop-color:#8B8C8C"/>
			<stop  offset="0.8" style="stop-color:#757676"/>
			<stop  offset="0.97" style="stop-color:#6B6B6B"/>
			<stop  offset="1" style="stop-color:#8F9090"/>
		</linearGradient>
		<path id="shape46_3_" class="st42" d="M-19.3,12.2c-0.2,0-0.4-0.2-0.4-0.4s0.2-0.4,0.4-0.4s0.4,0.2,0.4,0.4S-19.1,12.2-19.3,12.2z
			"/>
		<path id="shape47_3_" class="st25" d="M-19.5,12C-19.5,11.9-19.5,11.9-19.5,12l0.3-0.4h0.1v0.1L-19.5,12C-19.4,12-19.5,12-19.5,12
			z"/>
		<path id="shape48_3_" class="st25" d="M-19.5,11.5L-19.5,11.5l0.4,0.3v0.1h-0.1L-19.5,11.5C-19.5,11.6-19.5,11.5-19.5,11.5z"/>
	</g>
	
		<linearGradient id="SVGID_1_" gradientUnits="userSpaceOnUse" x1="1.2545" y1="54.55" x2="20.5878" y2="54.55" gradientTransform="matrix(1 0 0 -1 0 56)">
		<stop  offset="0" style="stop-color:#303E4F"/>
		<stop  offset="0.1381" style="stop-color:#455775"/>
		<stop  offset="0.1879" style="stop-color:#192735"/>
		<stop  offset="0.5744" style="stop-color:#212C3A"/>
		<stop  offset="0.8449" style="stop-color:#1B2937"/>
		<stop  offset="0.8905" style="stop-color:#485A7A"/>
		<stop  offset="1" style="stop-color:#354960"/>
	</linearGradient>
	<path class="st43" d="M1.3,2.1h19.3l-2-1.3C12.7,0.9,4.2,0.9,3.4,1.4L1.3,2.1z"/>
	
		<linearGradient id="SVGID_2_" gradientUnits="userSpaceOnUse" x1="1.2545" y1="54.85" x2="20.5878" y2="54.85" gradientTransform="matrix(1 0 0 -1 0 56)">
		<stop  offset="0" style="stop-color:#5A6B95"/>
		<stop  offset="0.1365" style="stop-color:#8A92B7"/>
		<stop  offset="0.1733" style="stop-color:#5B6E8E"/>
		<stop  offset="0.392" style="stop-color:#7388AD"/>
		<stop  offset="0.6413" style="stop-color:#7487AF"/>
		<stop  offset="0.8677" style="stop-color:#4E5F89"/>
		<stop  offset="0.8988" style="stop-color:#5A7396"/>
		<stop  offset="1" style="stop-color:#384A66"/>
	</linearGradient>
	<path class="st44" d="M1.3,2.3c0,0,2.6-1,2.8-1.1c0.2-0.1,13.7,0,14.3,0s2.2,1.1,2.2,1.1V1.6c0,0-2.1-1.6-3-1.6S5.6,0,4.8,0
		S1.3,1.6,1.3,1.6V2.3z"/>
</g>
</svg>
