<?xml version="1.0" encoding="utf-8"?>
<!-- Generator: Adobe Illustrator 24.1.2, SVG Export Plug-In . SVG Version: 6.00 Build 0)  -->
<svg version="1.1" id="图层_1" xmlns="http://www.w3.org/2000/svg" xmlns:xlink="http://www.w3.org/1999/xlink" x="0px" y="0px"
	 width="36px" height="36px" viewBox="0 0 36 36" enable-background="new 0 0 36 36" xml:space="preserve">
<g>
	<path fill="#12EEFF" d="M0,17.939c0-11.879,7.998-17.6,16.495-17.6H36v7.505c-3.817-0.428-6.464-0.614-10.159-0.735v0.307
		c3.696,2.026,5.85,6.335,5.85,11.936c0,10.152-6.585,16.309-15.631,16.309C7.263,35.661,0,29.383,0,17.939z M23.073,18.489
		c0-5.843-2.454-10.766-6.892-10.766c-4.124,0-6.949,3.075-6.949,10.216c0,6.521,2.768,10.338,6.949,10.338
		C20.369,28.277,23.073,24.646,23.073,18.489z"/>
</g>
</svg>
