<?xml version="1.0" encoding="utf-8"?>
<!-- Generator: Adobe Illustrator 16.0.0, SVG Export Plug-In . SVG Version: 6.00 Build 0)  -->
<!DOCTYPE svg PUBLIC "-//W3C//DTD SVG 1.1//EN" "http://www.w3.org/Graphics/SVG/1.1/DTD/svg11.dtd">
<svg version="1.1" id="图层_1" xmlns="http://www.w3.org/2000/svg" xmlns:xlink="http://www.w3.org/1999/xlink" x="0px" y="0px"
	 width="26px" height="26px" viewBox="0 0 26 26" enable-background="new 0 0 26 26" xml:space="preserve">
<path fill="#1AE7F8" d="M22.774,3.887c-1.644-0.089-3.263-0.436-4.796-1.027c-1.44-0.592-2.819-1.327-4.111-2.192l-0.617-0.48
	l-0.613,0.411c-1.295,0.867-2.673,1.601-4.113,2.194C7,3.421,5.374,3.769,3.726,3.819H2.699v10.825
	c0,5.419,6.851,11.169,10.551,11.169c3.702,0,10.551-5.75,10.551-11.169V3.887H22.774z M10.011,17.329
	c-0.085,0.326-0.419,0.52-0.744,0.434c-0.108-0.029-0.205-0.086-0.283-0.166c-2.534-2.539-2.534-6.649,0-9.187
	c0.238-0.24,0.625-0.24,0.863,0c0.238,0.237,0.238,0.624,0,0.861c-2.063,2.062-2.063,5.406-0.001,7.467l0.001,0.001
	C10.002,16.893,10.066,17.116,10.011,17.329z M11.511,15.078c0.238,0.239,0.235,0.624-0.003,0.862
	c-0.239,0.237-0.626,0.236-0.863-0.003c-1.617-1.615-1.62-4.237-0.003-5.856l0.003-0.003c0.253-0.224,0.638-0.2,0.86,0.053
	c0.202,0.229,0.203,0.569,0.006,0.799c-1.142,1.143-1.142,2.996,0,4.139V15.078z M13.255,14.229c-0.674,0-1.222-0.543-1.222-1.219
	c-0.002-0.673,0.545-1.22,1.217-1.221c0.676-0.002,1.223,0.544,1.223,1.219c0,0.001,0,0.002,0,0.002
	c-0.006,0.67-0.55,1.21-1.223,1.21L13.255,14.229z M15.005,15.931c-0.233-0.234-0.233-0.616,0-0.853
	c1.144-1.143,1.144-2.995,0-4.138c-0.248-0.226-0.269-0.612-0.044-0.86c0.227-0.25,0.61-0.271,0.861-0.045
	c0.014,0.016,0.03,0.03,0.044,0.045c1.619,1.616,1.619,4.236,0.005,5.854c-0.002,0.001-0.002,0.003-0.005,0.004
	c-0.239,0.235-0.622,0.23-0.855-0.008c-0.003-0.003-0.006-0.006-0.009-0.009L15.005,15.931z M17.526,17.605
	c-0.238,0.238-0.626,0.238-0.864,0c-0.237-0.239-0.237-0.623,0-0.861c2.064-2.063,2.064-5.405,0.003-7.467
	c0-0.001-0.003-0.001-0.003-0.003c-0.237-0.238-0.237-0.623,0-0.862c0.238-0.238,0.626-0.238,0.864,0
	c2.534,2.539,2.534,6.649,0,9.187V17.605z"/>
</svg>
