<?xml version="1.0" encoding="utf-8"?>
<!-- Generator: Adobe Illustrator 24.1.2, SVG Export Plug-In . SVG Version: 6.00 Build 0)  -->
<svg version="1.1" id="图层_1" xmlns="http://www.w3.org/2000/svg" xmlns:xlink="http://www.w3.org/1999/xlink" x="0px" y="0px"
	 width="36px" height="36px" viewBox="0 0 36 36" enable-background="new 0 0 36 36" xml:space="preserve">
<g>
	<path fill="#12EEFF" d="M2.24,23.556v-7.034H0v-3.09l2.438-0.199L2.923,8.98H6.41v4.253h3.912v3.288H6.41v7.034
		c0,1.815,0.739,2.665,2.157,2.665c0.508,0,1.131-0.166,1.556-0.337l0.684,3.034c-0.85,0.282-1.958,0.596-3.348,0.596
		C3.685,29.514,2.24,27.13,2.24,23.556z"/>
	<path fill="#12EEFF" d="M13.111,26.789c0-1.529,1.104-2.72,2.582-2.72c1.501,0,2.605,1.192,2.605,2.72
		c0,1.533-1.104,2.725-2.605,2.725C14.215,29.514,13.111,28.322,13.111,26.789z"/>
	<path fill="#12EEFF" d="M21.309,21.205c0-5.191,3.233-8.368,6.664-8.368c1.787,0,2.896,0.679,4.027,1.732l-0.166-2.499V6.486H36
		v22.63h-3.376l-0.337-1.644h-0.088c-1.159,1.131-2.748,2.041-4.392,2.041C23.863,29.514,21.309,26.392,21.309,21.205z
		 M31.834,24.438V17.46c-0.965-0.877-1.958-1.192-2.951-1.192c-1.787,0-3.288,1.7-3.288,4.877c0,3.293,1.192,4.937,3.288,4.937
		C29.987,26.082,30.924,25.625,31.834,24.438z"/>
</g>
</svg>
