<?xml version="1.0" encoding="utf-8"?>
<!-- Generator: Adobe Illustrator 24.0.3, SVG Export Plug-In . SVG Version: 6.00 Build 0)  -->
<svg version="1.1" id="图层_1" xmlns="http://www.w3.org/2000/svg" xmlns:xlink="http://www.w3.org/1999/xlink" x="0px" y="0px"
	 width="55.9px" height="53.1px" viewBox="0 0 55.9 53.1" style="enable-background:new 0 0 55.9 53.1;" xml:space="preserve">
<style type="text/css">
	.st0{fill:url(#shape1_1_);}
	.st1{fill:url(#shape2_1_);}
	.st2{fill:url(#shape3_1_);}
	.st3{fill:url(#shape4_1_);}
	.st4{fill:url(#shape5_1_);}
	.st5{fill:url(#shape8_1_);}
	.st6{fill:url(#shape9_1_);}
	.st7{fill:url(#shape10_1_);}
	.st8{fill:url(#shape12_1_);}
	.st9{fill:url(#shape13_1_);}
	.st10{fill:url(#shape14_1_);}
	.st11{fill:url(#shape15_1_);}
	.st12{fill:url(#shape16_1_);}
	.st13{fill:url(#shape17_1_);}
	.st14{fill:#90999C;}
	.st15{fill:url(#shape19_1_);}
	.st16{fill:#0E0D0D;}
	.st17{fill:#454545;stroke:#131E23;}
	.st18{fill:#9E9F9F;}
	.st19{fill:#EBEAE9;}
	.st20{fill:none;stroke:#000000;stroke-width:0.9946;stroke-miterlimit:3.9785;}
	.st21{fill:none;stroke:#000000;}
	.st22{fill:#FFFFFF;fill-opacity:0.73;}
	.st23{stroke:#000000;stroke-width:1.0104;stroke-miterlimit:4.0415;}
	.st24{fill:url(#shape36_1_);}
	.st25{fill:#787878;}
</style>
<linearGradient id="shape1_1_" gradientUnits="userSpaceOnUse" x1="1469.5415" y1="-254.3559" x2="1469.5057" y2="-254.3559" gradientTransform="matrix(49.2091 0 0 48.1839 -72278.8828 12277.9082)">
	<stop  offset="0" style="stop-color:#B4CFE6"/>
	<stop  offset="0.1736" style="stop-color:#EDF6FC"/>
	<stop  offset="0.2638" style="stop-color:#FEFEFE"/>
	<stop  offset="0.4854" style="stop-color:#48637A"/>
	<stop  offset="0.538" style="stop-color:#203B52"/>
	<stop  offset="0.6102" style="stop-color:#4D687F"/>
	<stop  offset="0.7982" style="stop-color:#F9F9F9"/>
	<stop  offset="0.895" style="stop-color:#B9D4EB"/>
	<stop  offset="0.9948" style="stop-color:#2F2F30"/>
	<stop  offset="1" style="stop-color:#48637A"/>
</linearGradient>
<path id="shape1_14_" class="st0" d="M36,21.5v1.4h-1.8v-1.4c0-0.2,0.1-0.3,0.3-0.3h1.2C35.8,21.2,36,21.3,36,21.5z"/>
<linearGradient id="shape2_1_" gradientUnits="userSpaceOnUse" x1="1477.3173" y1="-254.3559" x2="1477.2815" y2="-254.3559" gradientTransform="matrix(49.2091 0 0 48.1839 -72675.7266 12277.9082)">
	<stop  offset="0" style="stop-color:#B4CFE6"/>
	<stop  offset="0.1736" style="stop-color:#EDF6FC"/>
	<stop  offset="0.2638" style="stop-color:#FEFEFE"/>
	<stop  offset="0.4854" style="stop-color:#48637A"/>
	<stop  offset="0.538" style="stop-color:#203B52"/>
	<stop  offset="0.6102" style="stop-color:#4D687F"/>
	<stop  offset="0.7982" style="stop-color:#F9F9F9"/>
	<stop  offset="0.895" style="stop-color:#B9D4EB"/>
	<stop  offset="0.9948" style="stop-color:#2F2F30"/>
	<stop  offset="1" style="stop-color:#48637A"/>
</linearGradient>
<path id="shape2_14_" class="st1" d="M21.7,21.5v1.4h-1.8v-1.4c0-0.2,0.1-0.3,0.3-0.3h1.2C21.6,21.2,21.7,21.3,21.7,21.5z"/>
<linearGradient id="shape3_1_" gradientUnits="userSpaceOnUse" x1="1428.4152" y1="-334.7835" x2="1428.4152" y2="-334.7477" gradientTransform="matrix(674.5751 0 0 590.5095 -963545.375 197724.7812)">
	<stop  offset="0" style="stop-color:#B4CFE6"/>
	<stop  offset="0.1736" style="stop-color:#EDF6FC"/>
	<stop  offset="0.2638" style="stop-color:#FEFEFE"/>
	<stop  offset="0.4854" style="stop-color:#48637A"/>
	<stop  offset="0.538" style="stop-color:#203B52"/>
	<stop  offset="0.6102" style="stop-color:#4D687F"/>
	<stop  offset="0.7982" style="stop-color:#F9F9F9"/>
	<stop  offset="0.895" style="stop-color:#B9D4EB"/>
	<stop  offset="0.9948" style="stop-color:#2F2F30"/>
	<stop  offset="1" style="stop-color:#48637A"/>
</linearGradient>
<path id="shape3_34_" class="st2" d="M15.8,31.9H40V53H15.8V31.9z"/>
<linearGradient id="shape4_1_" gradientUnits="userSpaceOnUse" x1="1531.2241" y1="-333.6672" x2="1531.2241" y2="-333.6314" gradientTransform="matrix(25.6298 0 0 498.2424 -39229.6211 166280.7969)">
	<stop  offset="0" style="stop-color:#D8EDFF"/>
	<stop  offset="7.405362e-02" style="stop-color:#F0EFEF"/>
	<stop  offset="0.1608" style="stop-color:#BED9F0"/>
	<stop  offset="0.3264" style="stop-color:#19344B"/>
	<stop  offset="0.5535" style="stop-color:#89A4BB"/>
	<stop  offset="0.8267" style="stop-color:#FEFEFE"/>
	<stop  offset="0.9122" style="stop-color:#19344B"/>
	<stop  offset="0.9795" style="stop-color:#D5D9DD"/>
</linearGradient>
<path id="shape4_34_" class="st3" d="M15.8,33.6h-0.9v17.8h0.9V33.6z"/>
<linearGradient id="shape5_1_" gradientUnits="userSpaceOnUse" x1="1432.8809" y1="-332.3633" x2="1432.8809" y2="-332.3275" gradientTransform="matrix(363.9425 0 0 421.3531 -521477.7812 140077.25)">
	<stop  offset="0" style="stop-color:#D8EDFF"/>
	<stop  offset="7.405362e-02" style="stop-color:#F0EFEF"/>
	<stop  offset="0.1608" style="stop-color:#BED9F0"/>
	<stop  offset="0.3264" style="stop-color:#19344B"/>
	<stop  offset="0.5535" style="stop-color:#89A4BB"/>
	<stop  offset="0.8267" style="stop-color:#FEFEFE"/>
	<stop  offset="0.9122" style="stop-color:#19344B"/>
	<stop  offset="0.9795" style="stop-color:#D5D9DD"/>
</linearGradient>
<path id="shape5_61_" class="st4" d="M14.9,35h-13v15H15V35H14.9z"/>
<linearGradient id="shape8_1_" gradientUnits="userSpaceOnUse" x1="1429.9932" y1="-332.3632" x2="1429.9932" y2="-332.3274" gradientTransform="matrix(363.9425 0 0 421.3531 -520387.7812 140077.25)">
	<stop  offset="0" style="stop-color:#B4CFE6"/>
	<stop  offset="0.1736" style="stop-color:#EDF6FC"/>
	<stop  offset="0.2638" style="stop-color:#FEFEFE"/>
	<stop  offset="0.4854" style="stop-color:#48637A"/>
	<stop  offset="0.538" style="stop-color:#203B52"/>
	<stop  offset="0.6102" style="stop-color:#4D687F"/>
	<stop  offset="0.7982" style="stop-color:#F9F9F9"/>
	<stop  offset="0.895" style="stop-color:#B9D4EB"/>
	<stop  offset="0.9948" style="stop-color:#2F2F30"/>
	<stop  offset="1" style="stop-color:#48637A"/>
</linearGradient>
<path id="shape8_15_" class="st5" d="M54,35H41v15h13V35z"/>
<linearGradient id="shape9_1_" gradientUnits="userSpaceOnUse" x1="1504.8716" y1="-333.6672" x2="1504.8716" y2="-333.6314" gradientTransform="matrix(25.6298 0 0 498.2424 -38529.0117 166280.7969)">
	<stop  offset="0" style="stop-color:#D8EDFF"/>
	<stop  offset="7.405362e-02" style="stop-color:#F0EFEF"/>
	<stop  offset="0.1608" style="stop-color:#BED9F0"/>
	<stop  offset="0.3264" style="stop-color:#19344B"/>
	<stop  offset="0.5535" style="stop-color:#89A4BB"/>
	<stop  offset="0.8267" style="stop-color:#FEFEFE"/>
	<stop  offset="0.9122" style="stop-color:#19344B"/>
	<stop  offset="0.9795" style="stop-color:#D5D9DD"/>
</linearGradient>
<path id="shape9_15_" class="st6" d="M41,33.6h-0.9v17.8H41V33.6z"/>
<linearGradient id="shape10_1_" gradientUnits="userSpaceOnUse" x1="1821.8402" y1="-332.3632" x2="1821.8402" y2="-332.3273" gradientTransform="matrix(5.126 0 0 421.3531 -9297.6523 140077.25)">
	<stop  offset="0" style="stop-color:#B4CFE6"/>
	<stop  offset="0.1736" style="stop-color:#EDF6FC"/>
	<stop  offset="0.2638" style="stop-color:#FEFEFE"/>
	<stop  offset="0.4854" style="stop-color:#48637A"/>
	<stop  offset="0.538" style="stop-color:#203B52"/>
	<stop  offset="0.6102" style="stop-color:#4D687F"/>
	<stop  offset="0.7982" style="stop-color:#F9F9F9"/>
	<stop  offset="0.895" style="stop-color:#B9D4EB"/>
	<stop  offset="0.9948" style="stop-color:#2F2F30"/>
	<stop  offset="1" style="stop-color:#48637A"/>
</linearGradient>
<path id="shape10_15_" class="st7" d="M41.2,35L41,50L41.2,35z"/>
<linearGradient id="shape12_1_" gradientUnits="userSpaceOnUse" x1="1440.5234" y1="-327.2426" x2="1440.4875" y2="-327.2426" gradientTransform="matrix(152.7533 0 0 292.1792 -220013.9844 95642.7969)">
	<stop  offset="0" style="stop-color:#B4CFE6"/>
	<stop  offset="0.1736" style="stop-color:#EDF6FC"/>
	<stop  offset="0.2638" style="stop-color:#FEFEFE"/>
	<stop  offset="0.4854" style="stop-color:#48637A"/>
	<stop  offset="0.538" style="stop-color:#203B52"/>
	<stop  offset="0.6102" style="stop-color:#4D687F"/>
	<stop  offset="0.7982" style="stop-color:#F9F9F9"/>
	<stop  offset="0.895" style="stop-color:#B9D4EB"/>
	<stop  offset="0.9598" style="stop-color:#A1BCD3"/>
	<stop  offset="1" style="stop-color:#4C677D"/>
</linearGradient>
<path id="shape12_15_" class="st8" d="M30.7,25.6h-5.5v6.7c0,0,0.1,0.7,2.8,0.7s2.7-0.7,2.7-0.7V25.6L30.7,25.6z"/>
<linearGradient id="shape13_1_" gradientUnits="userSpaceOnUse" x1="1429.6201" y1="-259.6447" x2="1429.656" y2="-259.6447" gradientTransform="matrix(501.318 0 0 50.2343 -716675.375 13068.4707)">
	<stop  offset="2.352017e-02" style="stop-color:#89A4BB"/>
	<stop  offset="6.874173e-02" style="stop-color:#D8EDFF"/>
	<stop  offset="0.1374" style="stop-color:#F0EFEF"/>
	<stop  offset="0.2039" style="stop-color:#BED9F0"/>
	<stop  offset="0.3935" style="stop-color:#19344B"/>
	<stop  offset="0.5535" style="stop-color:#89A4BB"/>
	<stop  offset="0.89" style="stop-color:#FEFEFE"/>
	<stop  offset="0.9489" style="stop-color:#19344B"/>
	<stop  offset="0.9795" style="stop-color:#D5D9DD"/>
</linearGradient>
<path id="shape13_6_" class="st9" d="M19.4,24.5h17c0.3,0,0.5,0.2,0.5,0.5v0.8c0,0.3-0.2,0.5-0.5,0.5h-17c-0.3,0-0.5-0.2-0.5-0.5V25
	C19,24.7,19.2,24.5,19.4,24.5z"/>
<linearGradient id="shape14_1_" gradientUnits="userSpaceOnUse" x1="1429.6201" y1="-258.6902" x2="1429.656" y2="-258.6902" gradientTransform="matrix(501.318 0 0 50.2343 -716675.375 13018.7207)">
	<stop  offset="2.352017e-02" style="stop-color:#89A4BB"/>
	<stop  offset="6.874173e-02" style="stop-color:#D8EDFF"/>
	<stop  offset="0.1374" style="stop-color:#F0EFEF"/>
	<stop  offset="0.2039" style="stop-color:#BED9F0"/>
	<stop  offset="0.3935" style="stop-color:#19344B"/>
	<stop  offset="0.5535" style="stop-color:#89A4BB"/>
	<stop  offset="0.89" style="stop-color:#FEFEFE"/>
	<stop  offset="0.9489" style="stop-color:#19344B"/>
	<stop  offset="0.9795" style="stop-color:#D5D9DD"/>
</linearGradient>
<path id="shape14_7_" class="st10" d="M19.4,22.7h17c0.3,0,0.5,0.2,0.5,0.5V24c0,0.3-0.2,0.5-0.5,0.5h-17c-0.3,0-0.5-0.2-0.5-0.5
	v-0.8C19,22.9,19.2,22.7,19.4,22.7z"/>
<linearGradient id="shape15_1_" gradientUnits="userSpaceOnUse" x1="1484.4283" y1="-334.4641" x2="1484.4283" y2="-334.4283" gradientTransform="matrix(52.2847 0 0 560.7791 -77611.9375 187593.0156)">
	<stop  offset="0" style="stop-color:#D8EDFF"/>
	<stop  offset="7.405362e-02" style="stop-color:#F0EFEF"/>
	<stop  offset="0.1608" style="stop-color:#BED9F0"/>
	<stop  offset="0.3264" style="stop-color:#19344B"/>
	<stop  offset="0.5535" style="stop-color:#89A4BB"/>
	<stop  offset="0.8267" style="stop-color:#FEFEFE"/>
	<stop  offset="0.9122" style="stop-color:#19344B"/>
	<stop  offset="0.9795" style="stop-color:#D5D9DD"/>
</linearGradient>
<path id="shape15_12_" class="st11" d="M0.5,32.5h0.9c0.3,0,0.5,0.2,0.5,0.5v19.1c0,0.3-0.2,0.5-0.5,0.5H0.5c-0.3,0-0.5-0.2-0.5-0.5
	V33C0.1,32.7,0.3,32.5,0.5,32.5z"/>
<linearGradient id="shape16_1_" gradientUnits="userSpaceOnUse" x1="1456.6609" y1="-334.4641" x2="1456.6609" y2="-334.4283" gradientTransform="matrix(52.2847 0 0 560.7791 -76106.125 187593.0156)">
	<stop  offset="0" style="stop-color:#B4CFE6"/>
	<stop  offset="0.1736" style="stop-color:#EDF6FC"/>
	<stop  offset="0.2638" style="stop-color:#FEFEFE"/>
	<stop  offset="0.4854" style="stop-color:#48637A"/>
	<stop  offset="0.538" style="stop-color:#203B52"/>
	<stop  offset="0.6102" style="stop-color:#4D687F"/>
	<stop  offset="0.7982" style="stop-color:#F9F9F9"/>
	<stop  offset="0.895" style="stop-color:#B9D4EB"/>
	<stop  offset="0.9948" style="stop-color:#2F2F30"/>
	<stop  offset="1" style="stop-color:#48637A"/>
</linearGradient>
<path id="shape16_14_" class="st12" d="M54.5,32.5h0.9c0.3,0,0.5,0.2,0.5,0.5v19.1c0,0.3-0.2,0.5-0.5,0.5h-0.9
	c-0.3,0-0.5-0.2-0.5-0.5V33C54,32.7,54.2,32.5,54.5,32.5z"/>
<linearGradient id="shape17_1_" gradientUnits="userSpaceOnUse" x1="1436.8988" y1="-298.1749" x2="1436.863" y2="-298.1749" gradientTransform="matrix(198.8869 0 0 98.4183 -285748.8125 29366.8125)">
	<stop  offset="0" style="stop-color:#B4CFE6"/>
	<stop  offset="0.1736" style="stop-color:#EDF6FC"/>
	<stop  offset="0.2638" style="stop-color:#FEFEFE"/>
	<stop  offset="0.4854" style="stop-color:#48637A"/>
	<stop  offset="0.538" style="stop-color:#203B52"/>
	<stop  offset="0.6102" style="stop-color:#4D687F"/>
	<stop  offset="0.7982" style="stop-color:#F9F9F9"/>
	<stop  offset="0.895" style="stop-color:#B9D4EB"/>
	<stop  offset="0.9598" style="stop-color:#A1BCD3"/>
	<stop  offset="1" style="stop-color:#4C677D"/>
</linearGradient>
<path id="shape17_2_" class="st13" d="M24.4,22.7h7.1l-0.8-3.5h-5.5L24.4,22.7z"/>
<path id="shape18_3_" class="st14" d="M17.7,10.3C17.7,4.6,22.3,0,28,0s10.3,4.6,10.3,10.3c0,5.6-4.6,10.2-10.3,10.2
	S17.7,15.8,17.7,10.3z"/>
<linearGradient id="shape19_1_" gradientUnits="userSpaceOnUse" x1="18.137" y1="43.8" x2="37.8686" y2="43.8" gradientTransform="matrix(1 0 0 -1 0 54)">
	<stop  offset="0" style="stop-color:#B4CFE6"/>
	<stop  offset="8.464935e-02" style="stop-color:#EDF6FC"/>
	<stop  offset="0.2197" style="stop-color:#FEFEFE"/>
	<stop  offset="0.3331" style="stop-color:#6C94A8"/>
	<stop  offset="0.481" style="stop-color:#48637A"/>
	<stop  offset="0.6274" style="stop-color:#789DAF"/>
	<stop  offset="0.7982" style="stop-color:#F9F9F9"/>
	<stop  offset="0.895" style="stop-color:#B9D4EB"/>
</linearGradient>
<path id="shape19_15_" class="st15" d="M18.1,10.2c0-5.5,4.4-9.9,9.9-9.9s9.9,4.4,9.9,9.9s-4.5,9.9-9.9,9.9
	C22.5,20,18.1,15.6,18.1,10.2z"/>
<path id="shape20_40_" d="M21.3,10.2c0-3.7,3-6.7,6.7-6.7s6.7,3,6.7,6.7s-3,6.7-6.7,6.7S21.3,13.9,21.3,10.2z"/>
<path id="shape21_9_" class="st16" d="M21.7,10.7c0-3.4,2.8-6.2,6.2-6.2c3.5,0,6.3,2.8,6.3,6.2s-2.8,6.2-6.3,6.2
	C24.5,16.8,21.7,14.1,21.7,10.7z"/>
<path id="shape22_21_" class="st17" d="M21,10.4c0-3.8,3.1-6.9,6.9-6.9s6.8,3.1,6.8,6.9s-3.1,6.8-6.8,6.8C24,17.1,21,14.2,21,10.4z"
	/>
<path id="shape23_3_" class="st18" d="M21.5,10.4c0-3.5,2.8-6.3,6.3-6.3s6.3,2.8,6.3,6.3s-2.8,6.3-6.3,6.3S21.5,13.9,21.5,10.4z"/>
<path id="shape24_3_" class="st19" d="M21.7,10.5c0-3.4,2.7-6.1,6.1-6.1c3.3,0,6,2.7,6,6.1c0,3.3-2.7,6-6,6
	C24.5,16.5,21.7,13.8,21.7,10.5z"/>
<path id="shape25_9_" class="st20" d="M31.8,6.6l-0.5,0.7"/>
<path id="shape26_15_" class="st21" d="M31.2,13.9l0.6,0.6"/>
<path id="shape27_3_" class="st21" d="M24.4,13.5l-0.8,0.6"/>
<path id="shape28_9_" class="st21" d="M27.8,4.9v0.9"/>
<path id="shape29_9_" class="st21" d="M27.8,15v0.9"/>
<path id="shape30_9_" class="st21" d="M22,10.5h0.9"/>
<path id="shape31_3_" class="st21" d="M32.7,10.5h0.9"/>
<path id="shape32_3_" class="st21" d="M23.9,6.4L24.5,7"/>
<path id="shape33_11_" class="st22" d="M30.7,12.4c2.8-4.2-0.4-7.7-0.4-7.7c2.2,1,3.8,3.2,3.8,5.7c0,3.5-2.8,6.3-6.3,6.3
	c-1.4,0-2.6-0.4-3.6-1.2C24.3,15.5,28,16.4,30.7,12.4z"/>
<g transform="matrix(0.87,0.5,-0.5,0.87,1346.3,898.4)">
	<path id="shape34_9_" class="st23" d="M-1585.7-113.1l5,0.2c0,0,1.5,0.1,2.4-0.3c0,0,0.3-0.1,0.3,0.3l-0.1,0.8c0,0-0.1,0.5-0.4,0.1
		c0,0-0.9-0.6-2.3-0.6L-1585.7-113.1z"/>
	<path id="shape35_14_" class="st23" d="M-1580.7-113c0.2-0.2,0.5-0.2,0.7,0s0.2,0.5,0,0.7s-0.5,0.2-0.7,0
		C-1580.9-112.4-1580.9-112.8-1580.7-113z"/>
	
		<linearGradient id="shape36_1_" gradientUnits="userSpaceOnUse" x1="-3659.9402" y1="548.3024" x2="-3659.9758" y2="548.3024" gradientTransform="matrix(17.1499 5.958003e-06 -5.958003e-06 17.1499 61187.5391 -9516.043)">
		<stop  offset="0" style="stop-color:#C4AA84"/>
		<stop  offset="0.15" style="stop-color:#FFE0B3"/>
		<stop  offset="0.25" style="stop-color:#FFEED7"/>
		<stop  offset="0.44" style="stop-color:#DFC297"/>
		<stop  offset="0.6" style="stop-color:#C7AD86"/>
		<stop  offset="0.8" style="stop-color:#A89170"/>
		<stop  offset="0.97" style="stop-color:#998566"/>
		<stop  offset="1" style="stop-color:#CBB189"/>
	</linearGradient>
	<path id="shape36_2_" class="st24" d="M-1580.6-112.8c0.1-0.1,0.3-0.1,0.4,0s0.1,0.3,0,0.4s-0.3,0.1-0.4,0
		S-1580.7-112.7-1580.6-112.8z"/>
</g>
<rect x="19.3" y="24.3" class="st25" width="17.4" height="0.2"/>
</svg>
