<?xml version="1.0" encoding="utf-8"?>
<!-- Generator: Adobe Illustrator 24.1.2, SVG Export Plug-In . SVG Version: 6.00 Build 0)  -->
<svg version="1.1" id="图层_1" xmlns="http://www.w3.org/2000/svg" xmlns:xlink="http://www.w3.org/1999/xlink" x="0px" y="0px"
	 width="36px" height="36px" viewBox="0 0 36 36" enable-background="new 0 0 36 36" xml:space="preserve">
<path fill="#12EEFF" d="M28.135,0H7.865C6.297,0,5.026,1.271,5.026,2.839V30.77c0,1.479,1.144,2.655,2.588,2.788V36h2.339
	l1.598-2.391h12.897L26.047,36h2.339v-2.442c1.444-0.133,2.588-1.309,2.588-2.788V2.839C30.974,1.271,29.703,0,28.135,0z
	 M20.278,4.917h6.793c0.64,0,1.159,0.519,1.159,1.159c0,0.64-0.519,1.159-1.159,1.159h-6.793c-0.64,0-1.159-0.519-1.159-1.159
	C19.119,5.436,19.638,4.917,20.278,4.917z M20.278,9.402h6.793c0.64,0,1.159,0.519,1.159,1.159c0,0.64-0.519,1.159-1.159,1.159
	h-6.793c-0.64,0-1.159-0.519-1.159-1.159C19.119,9.921,19.638,9.402,20.278,9.402z M20.278,13.887h6.793
	c0.64,0,1.159,0.519,1.159,1.159c0,0.64-0.519,1.159-1.159,1.159h-6.793c-0.64,0-1.159-0.519-1.159-1.159
	C19.119,14.406,19.638,13.887,20.278,13.887z M20.278,18.372h6.793c0.64,0,1.159,0.519,1.159,1.159c0,0.64-0.519,1.159-1.159,1.159
	h-6.793c-0.64,0-1.159-0.519-1.159-1.159C19.119,18.891,19.638,18.372,20.278,18.372z M15.722,25.175H8.929
	c-0.64,0-1.159-0.519-1.159-1.159c0-0.64,0.519-1.159,1.159-1.159h6.793c0.64,0,1.159,0.519,1.159,1.159
	C16.881,24.656,16.362,25.175,15.722,25.175z M15.722,20.69H8.929c-0.64,0-1.159-0.519-1.159-1.159c0-0.64,0.519-1.159,1.159-1.159
	h6.793c0.64,0,1.159,0.519,1.159,1.159C16.881,20.171,16.362,20.69,15.722,20.69z M15.722,16.205H8.929
	c-0.64,0-1.159-0.519-1.159-1.159c0-0.64,0.519-1.159,1.159-1.159h6.793c0.64,0,1.159,0.519,1.159,1.159
	C16.881,15.686,16.362,16.205,15.722,16.205z M15.722,11.72H8.929c-0.64,0-1.159-0.519-1.159-1.159c0-0.64,0.519-1.159,1.159-1.159
	h6.793c0.64,0,1.159,0.519,1.159,1.159C16.881,11.201,16.362,11.72,15.722,11.72z M15.722,7.235H8.929
	c-0.64,0-1.159-0.519-1.159-1.159c0-0.64,0.519-1.159,1.159-1.159h6.793c0.64,0,1.159,0.519,1.159,1.159
	C16.881,6.716,16.362,7.235,15.722,7.235z M19.119,24.016c0-0.64,0.519-1.159,1.159-1.159h6.793c0.64,0,1.159,0.519,1.159,1.159
	c0,0.64-0.519,1.159-1.159,1.159h-6.793C19.638,25.175,19.119,24.656,19.119,24.016z"/>
</svg>
