<?xml version="1.0" encoding="utf-8"?>
<!-- Generator: Adobe Illustrator 24.1.2, SVG Export Plug-In . SVG Version: 6.00 Build 0)  -->
<svg version="1.1" id="图层_1" xmlns="http://www.w3.org/2000/svg" xmlns:xlink="http://www.w3.org/1999/xlink" x="0px" y="0px"
	 width="54.133px" height="56px" viewBox="0 0 54.133 56" enable-background="new 0 0 54.133 56" xml:space="preserve">
<g>
	<g>
		<path fill="#13E5FF" d="M49.901,32.779c-0.534-2.147-1.781-5.307-4.437-9.886c-0.54-0.933-0.226-2.124,0.702-2.667
			c0.445-0.26,0.975-0.332,1.473-0.199c0.498,0.133,0.922,0.459,1.178,0.907c3.58,6.171,5.316,10.857,5.316,14.336
			C54.133,46.7,44.882,56,33.516,56c-4.968,0.003-9.767-1.802-13.501-5.077c-1.228,0.292-2.486,0.438-3.748,0.437
			C7.299,51.359,0,44.022,0,35c0-8.4,12.837-24.912,14.304-26.766c0.36-0.459,0.908-0.73,1.49-0.739
			c0.583-0.008,1.138,0.246,1.512,0.694c0.09,0.108,2.094,2.505,4.648,5.949c2.95-4.61,6.11-9.082,9.472-13.401
			C31.789,0.278,32.334,0.006,32.917,0c0.583-0.007,1.138,0.248,1.512,0.695c2.317,2.802,4.55,5.674,6.694,8.611
			c0.636,0.869,0.451,2.089-0.414,2.731c-0.414,0.307-0.934,0.435-1.444,0.357c-0.51-0.078-0.967-0.357-1.27-0.774
			c-1.622-2.216-3.292-4.396-5.008-6.539c-3.524,4.663-9.023,12.533-12.62,19.533c12.936-2.6,12.215,9.156,29.538,8.167
			L49.901,32.779z M19.82,17.61c-0.19-0.127-0.355-0.287-0.489-0.472c-1.125-1.538-2.28-3.054-3.464-4.547
			C11.528,18.392,3.883,29.708,3.883,34.998c0,6.866,5.553,12.458,12.385,12.458c0.192,0,0.384-0.004,0.575-0.013
			c-2.567-3.542-3.946-7.806-3.941-12.18c0-4.631,3.188-11.362,6.92-17.655L19.82,17.61z M19.82,17.61"/>
	</g>
</g>
</svg>
