<?xml version="1.0" encoding="utf-8"?>
<!-- Generator: Adobe Illustrator 16.0.0, SVG Export Plug-In . SVG Version: 6.00 Build 0)  -->
<!DOCTYPE svg PUBLIC "-//W3C//DTD SVG 1.1//EN" "http://www.w3.org/Graphics/SVG/1.1/DTD/svg11.dtd">
<svg version="1.1" id="图层_1" xmlns="http://www.w3.org/2000/svg" xmlns:xlink="http://www.w3.org/1999/xlink" x="0px" y="0px"
	 width="56px" height="51.953px" viewBox="0 0 56 51.953" enable-background="new 0 0 56 51.953" xml:space="preserve">
<g transform="translate(-37,-37.96)">
	
		<linearGradient id="shape1_2_" gradientUnits="userSpaceOnUse" x1="-1014.5366" y1="817.5332" x2="-1014.5366" y2="818.1055" gradientTransform="matrix(34 0 0 -2.7 34546.2344 2257.8691)">
		<stop  offset="0" style="stop-color:#BDBDBD"/>
		<stop  offset="0.15" style="stop-color:#FFFFFF"/>
		<stop  offset="0.25" style="stop-color:#FFFFFF"/>
		<stop  offset="0.52" style="stop-color:#DFDFDF"/>
		<stop  offset="0.69" style="stop-color:#C7C7C7"/>
		<stop  offset="0.8" style="stop-color:#BCBCBC"/>
		<stop  offset="0.92" style="stop-color:#B1B1B1"/>
		<stop  offset="1" style="stop-color:#CBCBCB"/>
	</linearGradient>
	<path id="shape1_1_" fill="url(#shape1_2_)" d="M42.293,48.984v1.542h19.423v-1.542H42.293z"/>
	<g transform="translate(38,96.05)">
		
			<linearGradient id="shape2_2_" gradientUnits="userSpaceOnUse" x1="-1004.8936" y1="1128.0837" x2="-1004.8936" y2="1128.655" gradientTransform="matrix(5.3 0 0 32.2 5326.4893 -36349.2969)">
			<stop  offset="0" style="stop-color:#68AEAE"/>
			<stop  offset="0.15" style="stop-color:#94E5E5"/>
			<stop  offset="0.25" style="stop-color:#CAF0F0"/>
			<stop  offset="0.44" style="stop-color:#77C7C7"/>
			<stop  offset="0.6" style="stop-color:#69B1B1"/>
			<stop  offset="0.8" style="stop-color:#589595"/>
			<stop  offset="0.97" style="stop-color:#508888"/>
		</linearGradient>
		<path id="shape2_1_" fill="url(#shape2_2_)" d="M-0.22-25.01h1.542c0.4,0,0.744,0.171,0.744,0.456v17.54
			c0,0.226-0.343,0.397-0.744,0.397H-0.22c-0.4,0-0.742-0.172-0.742-0.397v-17.54C-0.962-24.839-0.621-25.01-0.22-25.01z"/>
		
			<linearGradient id="shape3_2_" gradientUnits="userSpaceOnUse" x1="-1012.394" y1="1128.0837" x2="-1012.394" y2="1128.655" gradientTransform="matrix(5.3 0 0 32.2 5419.2002 -36349.2969)">
			<stop  offset="0" style="stop-color:#68AEAE"/>
			<stop  offset="0.15" style="stop-color:#94E5E5"/>
			<stop  offset="0.25" style="stop-color:#CAF0F0"/>
			<stop  offset="0.44" style="stop-color:#77C7C7"/>
			<stop  offset="0.6" style="stop-color:#69B1B1"/>
			<stop  offset="0.8" style="stop-color:#589595"/>
			<stop  offset="0.97" style="stop-color:#508888"/>
		</linearGradient>
		<path id="shape3_1_" fill="url(#shape3_2_)" d="M52.738-25.01h1.544c0.398,0,0.74,0.171,0.74,0.456v17.54
			c0,0.226-0.342,0.397-0.74,0.397h-1.544c-0.398,0-0.741-0.172-0.741-0.397v-17.54C51.997-24.839,52.34-25.01,52.738-25.01z"/>
		
			<linearGradient id="shape4_2_" gradientUnits="userSpaceOnUse" x1="-1031.9375" y1="1148.7195" x2="-1031.9375" y2="1149.2908" gradientTransform="matrix(7.2 0 0 17.1 7433.9873 -19663.791)">
			<stop  offset="0" style="stop-color:#68AEAE"/>
			<stop  offset="0.15" style="stop-color:#94E5E5"/>
			<stop  offset="0.25" style="stop-color:#CAF0F0"/>
			<stop  offset="0.44" style="stop-color:#77C7C7"/>
			<stop  offset="0.6" style="stop-color:#69B1B1"/>
			<stop  offset="0.8" style="stop-color:#589595"/>
			<stop  offset="0.97" style="stop-color:#508888"/>
		</linearGradient>
		<path id="shape4_1_" fill="url(#shape4_2_)" d="M6.092-20.68H1.979v9.768h4.113V-20.68z"/>
		
			<linearGradient id="shape5_2_" gradientUnits="userSpaceOnUse" x1="-1036.7231" y1="1148.7195" x2="-1036.7231" y2="1149.2908" gradientTransform="matrix(7.2 0 0 17.1 7514.3389 -19663.791)">
			<stop  offset="0" style="stop-color:#68AEAE"/>
			<stop  offset="0.15" style="stop-color:#94E5E5"/>
			<stop  offset="0.25" style="stop-color:#CAF0F0"/>
			<stop  offset="0.44" style="stop-color:#77C7C7"/>
			<stop  offset="0.6" style="stop-color:#69B1B1"/>
			<stop  offset="0.8" style="stop-color:#589595"/>
			<stop  offset="0.97" style="stop-color:#508888"/>
		</linearGradient>
		<path id="shape5_1_" fill="url(#shape5_2_)" d="M47.876-20.68h4.113v9.768h-4.113V-20.68z"/>
		
			<linearGradient id="shape6_2_" gradientUnits="userSpaceOnUse" x1="-913.3516" y1="1131.0261" x2="-913.3516" y2="1131.5974" gradientTransform="matrix(2.6 0 0 28.6 2421.8589 -32371.3008)">
			<stop  offset="0" style="stop-color:#68AEAE"/>
			<stop  offset="0.15" style="stop-color:#94E5E5"/>
			<stop  offset="0.25" style="stop-color:#CAF0F0"/>
			<stop  offset="0.44" style="stop-color:#77C7C7"/>
			<stop  offset="0.6" style="stop-color:#69B1B1"/>
			<stop  offset="0.8" style="stop-color:#589595"/>
			<stop  offset="0.97" style="stop-color:#508888"/>
		</linearGradient>
		<path id="shape6_1_" fill="url(#shape6_2_)" d="M47.889-23.981h-1.485v16.336h1.485V-23.981z"/>
		
			<linearGradient id="shape7_2_" gradientUnits="userSpaceOnUse" x1="-1098.4126" y1="1126.9128" x2="-1098.4126" y2="1127.4841" gradientTransform="matrix(68 0 0 33.9 74719.0625 -38227.8438)">
			<stop  offset="0" style="stop-color:#68AEAE"/>
			<stop  offset="0.15" style="stop-color:#94E5E5"/>
			<stop  offset="0.25" style="stop-color:#CAF0F0"/>
			<stop  offset="0.44" style="stop-color:#77C7C7"/>
			<stop  offset="0.6" style="stop-color:#69B1B1"/>
			<stop  offset="0.8" style="stop-color:#589595"/>
			<stop  offset="0.97" style="stop-color:#508888"/>
		</linearGradient>
		<path id="shape7_1_" fill="url(#shape7_2_)" d="M7.612-25.501h38.843v19.364H7.612V-25.501z"/>
		
			<linearGradient id="shape8_2_" gradientUnits="userSpaceOnUse" x1="-548.8135" y1="1126.9128" x2="-548.8135" y2="1127.483" gradientTransform="matrix(0.9 0 0 33.9 540.2997 -38227.8438)">
			<stop  offset="0" style="stop-color:#68AEAE"/>
			<stop  offset="0.15" style="stop-color:#94E5E5"/>
			<stop  offset="0.25" style="stop-color:#CAF0F0"/>
			<stop  offset="0.44" style="stop-color:#77C7C7"/>
			<stop  offset="0.6" style="stop-color:#69B1B1"/>
			<stop  offset="0.8" style="stop-color:#589595"/>
			<stop  offset="0.97" style="stop-color:#508888"/>
		</linearGradient>
		<path id="shape8_1_" fill="url(#shape8_2_)" d="M46.11-25.501l0.516,19.364L46.11-25.501z"/>
		
			<linearGradient id="shape9_2_" gradientUnits="userSpaceOnUse" x1="-901.7134" y1="1131.0261" x2="-901.7134" y2="1131.5974" gradientTransform="matrix(2.6 0 0 28.6 2351.2886 -32371.3008)">
			<stop  offset="0" style="stop-color:#68AEAE"/>
			<stop  offset="0.15" style="stop-color:#94E5E5"/>
			<stop  offset="0.25" style="stop-color:#CAF0F0"/>
			<stop  offset="0.44" style="stop-color:#77C7C7"/>
			<stop  offset="0.6" style="stop-color:#69B1B1"/>
			<stop  offset="0.8" style="stop-color:#589595"/>
			<stop  offset="0.97" style="stop-color:#508888"/>
		</linearGradient>
		<path id="shape9_1_" fill="url(#shape9_2_)" d="M7.577-23.981H6.092v16.336h1.485V-23.981z"/>
		
			<linearGradient id="shape10_2_" gradientUnits="userSpaceOnUse" x1="-516.6772" y1="1126.9128" x2="-516.6772" y2="1127.483" gradientTransform="matrix(0.9 0 0 33.9 472.8495 -38227.8438)">
			<stop  offset="0" style="stop-color:#68AEAE"/>
			<stop  offset="0.15" style="stop-color:#94E5E5"/>
			<stop  offset="0.25" style="stop-color:#CAF0F0"/>
			<stop  offset="0.44" style="stop-color:#77C7C7"/>
			<stop  offset="0.6" style="stop-color:#69B1B1"/>
			<stop  offset="0.8" style="stop-color:#589595"/>
			<stop  offset="0.97" style="stop-color:#508888"/>
		</linearGradient>
		<path id="shape10_1_" fill="url(#shape10_2_)" d="M7.583-25.501L8.098-6.137L7.583-25.501z"/>
	</g>
	
		<linearGradient id="shape11_2_" gradientUnits="userSpaceOnUse" x1="-1018.04" y1="1153.3184" x2="-1018.6113" y2="1153.3184" gradientTransform="matrix(44.2 0 0 15.9 45075.043 -18278.4531)">
		<stop  offset="0" style="stop-color:#5FA0A0"/>
		<stop  offset="0.03" style="stop-color:#AAE9E9"/>
		<stop  offset="0.08" style="stop-color:#7ED1D1"/>
		<stop  offset="0.64" style="stop-color:#7CCECE"/>
		<stop  offset="0.95" style="stop-color:#79C9C9"/>
		<stop  offset="1" style="stop-color:#589595"/>
	</linearGradient>
	<path id="shape11_1_" fill="url(#shape11_2_)" d="M52.415,63.827h25.251l-8.343-9.085h-8.569L52.415,63.827z"/>
	
		<linearGradient id="shape12_2_" gradientUnits="userSpaceOnUse" x1="-1064.4438" y1="1016.1084" x2="-1063.8726" y2="1016.1084" gradientTransform="matrix(-15.1 0 0 -8.7 -16003.5068 8892.5742)">
		<stop  offset="0" style="stop-color:#68AEAE"/>
		<stop  offset="0.15" style="stop-color:#95E5E5"/>
		<stop  offset="0.25" style="stop-color:#CAF0F0"/>
		<stop  offset="0.44" style="stop-color:#78C7C7"/>
		<stop  offset="0.6" style="stop-color:#6AB1B1"/>
		<stop  offset="0.8" style="stop-color:#599595"/>
		<stop  offset="0.97" style="stop-color:#518888"/>
	</linearGradient>
	<path id="shape12_1_" fill="url(#shape12_2_)" d="M69.599,49.955h-8.625v4.97h8.625V49.955z"/>
	
		<linearGradient id="shape13_2_" gradientUnits="userSpaceOnUse" x1="-1058.939" y1="920.3994" x2="-1058.3677" y2="920.3994" gradientTransform="matrix(-18 0 0 -4.2 -18990.4531 3915.5195)">
		<stop  offset="0" style="stop-color:#68AEAE"/>
		<stop  offset="0.15" style="stop-color:#95E5E5"/>
		<stop  offset="0.25" style="stop-color:#CAF0F0"/>
		<stop  offset="0.44" style="stop-color:#78C7C7"/>
		<stop  offset="0.6" style="stop-color:#6AB1B1"/>
		<stop  offset="0.8" style="stop-color:#599595"/>
		<stop  offset="0.97" style="stop-color:#518888"/>
	</linearGradient>
	<path id="shape13_1_" fill="url(#shape13_2_)" d="M70.226,51.041h-9.825c-0.114,0-0.229-0.057-0.229-0.171v-2.058
		c0-0.114,0.114-0.171,0.229-0.171h9.825c0.114,0,0.229,0.057,0.229,0.171v2.058C70.453,50.984,70.34,51.041,70.226,51.041z"/>
	
		<linearGradient id="shape14_2_" gradientUnits="userSpaceOnUse" x1="-1016.8857" y1="814.4688" x2="-1016.8857" y2="815.04" gradientTransform="matrix(40 0 0 -2.7 40729.0313 2238.5723)">
		<stop  offset="0" style="stop-color:#BDBDBD"/>
		<stop  offset="0.15" style="stop-color:#FFFFFF"/>
		<stop  offset="0.25" style="stop-color:#FFFFFF"/>
		<stop  offset="0.52" style="stop-color:#DFDFDF"/>
		<stop  offset="0.69" style="stop-color:#C7C7C7"/>
		<stop  offset="0.8" style="stop-color:#BCBCBC"/>
		<stop  offset="0.92" style="stop-color:#B1B1B1"/>
		<stop  offset="1" style="stop-color:#CBCBCB"/>
	</linearGradient>
	<path id="shape14_1_" fill="url(#shape14_2_)" d="M42.179,37.96v1.542h22.848V37.96H42.179z"/>
	
		<linearGradient id="shape15_2_" gradientUnits="userSpaceOnUse" x1="-831.8994" y1="1056.2813" x2="-832.4707" y2="1056.2813" gradientTransform="matrix(2.7 0 0 -16 2287.7878 16944.7266)">
		<stop  offset="0" style="stop-color:#BDBDBD"/>
		<stop  offset="0.15" style="stop-color:#FFFFFF"/>
		<stop  offset="0.25" style="stop-color:#FFFFFF"/>
		<stop  offset="0.52" style="stop-color:#DFDFDF"/>
		<stop  offset="0.69" style="stop-color:#C7C7C7"/>
		<stop  offset="0.8" style="stop-color:#BCBCBC"/>
		<stop  offset="0.92" style="stop-color:#B1B1B1"/>
		<stop  offset="1" style="stop-color:#CBCBCB"/>
	</linearGradient>
	<path id="shape15_1_" fill="url(#shape15_2_)" d="M40.123,48.813h1.542v-9.139h-1.542V48.813z"/>
	
		<linearGradient id="shape16_2_" gradientUnits="userSpaceOnUse" x1="-1563.4937" y1="1890.4883" x2="-1561.2079" y2="1889.3453" gradientTransform="matrix(-1 0 0 1 -1521.1602 -1850.7793)">
		<stop  offset="0" style="stop-color:#BDBDBD"/>
		<stop  offset="0.15" style="stop-color:#FFFFFF"/>
		<stop  offset="0.25" style="stop-color:#FFFFFF"/>
		<stop  offset="0.52" style="stop-color:#DFDFDF"/>
		<stop  offset="0.69" style="stop-color:#C7C7C7"/>
		<stop  offset="0.8" style="stop-color:#BCBCBC"/>
		<stop  offset="0.92" style="stop-color:#B1B1B1"/>
		<stop  offset="1" style="stop-color:#CBCBCB"/>
	</linearGradient>
	<path id="shape16_1_" fill="url(#shape16_2_)" d="M42.351,37.96c0,0-1.2,0.057-1.772,0.686c-0.513,0.685-0.457,1.714-0.457,1.714
		h1.542c0,0,0-0.572,0.687-0.856V37.96z"/>
	<g transform="matrix(-1,0,0,-1,110.8,57.9)">
		<g transform="translate(0,9.64)">
			
				<linearGradient id="shape17_2_" gradientUnits="userSpaceOnUse" x1="1090.7449" y1="-1360.5652" x2="1091.3162" y2="-1360.5652" gradientTransform="matrix(32.3 0 0 4.8 -35194.7617 6539.6377)">
				<stop  offset="0" style="stop-color:#68AEAE"/>
				<stop  offset="0.15" style="stop-color:#94E5E5"/>
				<stop  offset="0.25" style="stop-color:#CAF0F0"/>
				<stop  offset="0.44" style="stop-color:#77C7C7"/>
				<stop  offset="0.6" style="stop-color:#69B1B1"/>
				<stop  offset="0.8" style="stop-color:#589595"/>
				<stop  offset="0.97" style="stop-color:#508888"/>
			</linearGradient>
			<path id="shape17_1_" fill="url(#shape17_2_)" d="M36.512,7.546h17.994c0.115,0,0.229,0.114,0.229,0.229v2.284
				c0,0.114-0.114,0.229-0.229,0.229H36.512c-0.112,0-0.227-0.115-0.227-0.229V7.775C36.285,7.661,36.399,7.546,36.512,7.546z"/>
			
				<linearGradient id="shape18_2_" gradientUnits="userSpaceOnUse" x1="1095.6702" y1="-1374.948" x2="1096.2415" y2="-1374.948" gradientTransform="matrix(46.7 0 0 4.4 -51135.6055 6056.041)">
				<stop  offset="0" style="stop-color:#68AEAE"/>
				<stop  offset="0.15" style="stop-color:#94E5E5"/>
				<stop  offset="0.25" style="stop-color:#CAF0F0"/>
				<stop  offset="0.44" style="stop-color:#77C7C7"/>
				<stop  offset="0.6" style="stop-color:#69B1B1"/>
				<stop  offset="0.8" style="stop-color:#589595"/>
				<stop  offset="0.97" style="stop-color:#508888"/>
			</linearGradient>
			<path id="shape18_1_" fill="url(#shape18_2_)" d="M32.406,5.01h26.163c0.17,0,0.287,0.114,0.287,0.229v2.056
				c0,0.114-0.115,0.229-0.287,0.229H32.406c-0.113,0-0.228-0.114-0.228-0.229V5.239C32.178,5.125,32.292,5.01,32.406,5.01z"/>
		</g>
		<g transform="matrix(1,0,0,-1,0,9.2)">
			
				<linearGradient id="shape19_2_" gradientUnits="userSpaceOnUse" x1="1090.7449" y1="1266.9064" x2="1091.3162" y2="1266.9064" gradientTransform="matrix(32.3 0 0 4.8 -35194.7617 -6082.4424)">
				<stop  offset="0" style="stop-color:#68AEAE"/>
				<stop  offset="0.15" style="stop-color:#94E5E5"/>
				<stop  offset="0.25" style="stop-color:#CAF0F0"/>
				<stop  offset="0.44" style="stop-color:#77C7C7"/>
				<stop  offset="0.6" style="stop-color:#69B1B1"/>
				<stop  offset="0.8" style="stop-color:#589595"/>
				<stop  offset="0.97" style="stop-color:#508888"/>
			</linearGradient>
			<path id="shape19_1_" fill="url(#shape19_2_)" d="M36.512-2.662h17.994c0.115,0,0.229,0.114,0.229,0.229v2.286
				c0,0.113-0.114,0.228-0.229,0.228H36.512c-0.112,0-0.227-0.115-0.227-0.228v-2.286C36.285-2.548,36.399-2.662,36.512-2.662z"/>
			
				<linearGradient id="shape20_2_" gradientUnits="userSpaceOnUse" x1="1095.6702" y1="1282.0763" x2="1096.2415" y2="1282.0763" gradientTransform="matrix(46.7 0 0 4.4 -51135.6055 -5645.0762)">
				<stop  offset="0" style="stop-color:#68AEAE"/>
				<stop  offset="0.15" style="stop-color:#94E5E5"/>
				<stop  offset="0.25" style="stop-color:#CAF0F0"/>
				<stop  offset="0.44" style="stop-color:#77C7C7"/>
				<stop  offset="0.6" style="stop-color:#69B1B1"/>
				<stop  offset="0.8" style="stop-color:#589595"/>
				<stop  offset="0.97" style="stop-color:#508888"/>
			</linearGradient>
			<path id="shape20_1_" fill="url(#shape20_2_)" d="M32.406-5.199h26.163c0.17,0,0.287,0.114,0.287,0.229v2.056
				c0,0.114-0.115,0.229-0.287,0.229H32.406c-0.113,0-0.228-0.114-0.228-0.229V-4.97C32.178-5.084,32.292-5.199,32.406-5.199z"/>
		</g>
	</g>
	
		<linearGradient id="shape21_2_" gradientUnits="userSpaceOnUse" x1="-1563.4941" y1="331.4414" x2="-1561.2085" y2="330.2986" gradientTransform="matrix(-1 0 0 -1 -1521.1602 380.2207)">
		<stop  offset="0" style="stop-color:#BDBDBD"/>
		<stop  offset="0.15" style="stop-color:#FFFFFF"/>
		<stop  offset="0.25" style="stop-color:#FFFFFF"/>
		<stop  offset="0.52" style="stop-color:#DFDFDF"/>
		<stop  offset="0.69" style="stop-color:#C7C7C7"/>
		<stop  offset="0.8" style="stop-color:#BCBCBC"/>
		<stop  offset="0.92" style="stop-color:#B1B1B1"/>
		<stop  offset="1" style="stop-color:#CBCBCB"/>
	</linearGradient>
	<path id="shape21_1_" fill="url(#shape21_2_)" d="M42.351,50.527c0,0-1.2-0.058-1.772-0.686c-0.513-0.685-0.457-1.713-0.457-1.713
		h1.542c0,0,0,0.571,0.687,0.856V50.527z"/>
	
		<linearGradient id="shape22_2_" gradientUnits="userSpaceOnUse" x1="-1018.6113" y1="1167.8682" x2="-1018.04" y2="1167.8682" gradientTransform="matrix(44.2 0 0 12.1021 45075.043 -14064.5557)">
		<stop  offset="0" style="stop-color:#68AEAE"/>
		<stop  offset="0.15" style="stop-color:#95E5E5"/>
		<stop  offset="0.25" style="stop-color:#CAF0F0"/>
		<stop  offset="0.44" style="stop-color:#78C7C7"/>
		<stop  offset="0.6" style="stop-color:#6AB1B1"/>
		<stop  offset="0.8" style="stop-color:#599595"/>
		<stop  offset="0.97" style="stop-color:#518888"/>
	</linearGradient>
	<path id="shape22_1_" fill="url(#shape22_2_)" d="M77.666,65.659H52.415v4.97c0,0,0.4,1.941,12.854,1.941
		c11.939,0.059,12.397-1.941,12.397-1.941V65.659z"/>
	
		<linearGradient id="shape23_2_" gradientUnits="userSpaceOnUse" x1="-1018.7344" y1="1306.1201" x2="-1019.3057" y2="1306.1201" gradientTransform="matrix(47 0 0 3.8 47958.8438 -4898.6597)">
		<stop  offset="0" style="stop-color:#68AEAE"/>
		<stop  offset="0.15" style="stop-color:#94E5E5"/>
		<stop  offset="0.25" style="stop-color:#CAF0F0"/>
		<stop  offset="0.52" style="stop-color:#77C7C7"/>
		<stop  offset="0.69" style="stop-color:#69B1B1"/>
		<stop  offset="0.8" style="stop-color:#63A7A7"/>
		<stop  offset="0.97" style="stop-color:#5D9D9D"/>
		<stop  offset="1" style="stop-color:#6CB5B5"/>
	</linearGradient>
	<path id="shape23_1_" fill="url(#shape23_2_)" d="M51.735,63.505h26.391c0.113,0,0.229,0.114,0.229,0.23v1.712
		c0,0.114-0.114,0.23-0.229,0.23H51.735c-0.114,0-0.229-0.116-0.229-0.23v-1.712C51.506,63.619,51.621,63.505,51.735,63.505z"/>
	
		<linearGradient id="shape24_2_" gradientUnits="userSpaceOnUse" x1="-1047.4844" y1="944.458" x2="-1046.9131" y2="944.458" gradientTransform="matrix(-30 0 0 -4.8 -31350.9531 4589.5244)">
		<stop  offset="0" style="stop-color:#68AEAE"/>
		<stop  offset="0.15" style="stop-color:#95E5E5"/>
		<stop  offset="0.25" style="stop-color:#CAF0F0"/>
		<stop  offset="0.44" style="stop-color:#78C7C7"/>
		<stop  offset="0.6" style="stop-color:#6AB1B1"/>
		<stop  offset="0.8" style="stop-color:#599595"/>
		<stop  offset="0.97" style="stop-color:#518888"/>
	</linearGradient>
	<path id="shape24_1_" fill="url(#shape24_2_)" d="M73.366,57.496H56.688c-0.115,0-0.229-0.115-0.229-0.229v-2.285
		c0-0.113,0.114-0.228,0.229-0.228h16.679c0.116,0,0.229,0.115,0.229,0.228v2.285C73.596,57.381,73.482,57.496,73.366,57.496z"/>
</g>
</svg>
