<?xml version="1.0" encoding="utf-8"?>
<!-- Generator: Adobe Illustrator 16.0.0, SVG Export Plug-In . SVG Version: 6.00 Build 0)  -->
<!DOCTYPE svg PUBLIC "-//W3C//DTD SVG 1.1//EN" "http://www.w3.org/Graphics/SVG/1.1/DTD/svg11.dtd">
<svg version="1.1" id="图层_1" xmlns="http://www.w3.org/2000/svg" xmlns:xlink="http://www.w3.org/1999/xlink" x="0px" y="0px"
	 width="53.07px" height="56px" viewBox="0 0 53.07 56" enable-background="new 0 0 53.07 56" xml:space="preserve">
<g transform="translate(1,1)">
	<g transform="translate(0,20.61)">
		
			<linearGradient id="shape1_1_" gradientUnits="userSpaceOnUse" x1="-1101.7524" y1="1123.848" x2="-1101.7524" y2="1124.2932" gradientTransform="matrix(118.6909 0 0 38.2327 130793.6094 -42953.1211)">
			<stop  offset="0" style="stop-color:#BAC0C1"/>
			<stop  offset="0.15" style="stop-color:#F4FAFC"/>
			<stop  offset="0.25" style="stop-color:#F8FCFD"/>
			<stop  offset="0.44" style="stop-color:#D5DBDD"/>
			<stop  offset="0.6" style="stop-color:#BDC3C4"/>
			<stop  offset="0.8" style="stop-color:#A0A4A6"/>
			<stop  offset="0.97" style="stop-color:#929697"/>
			<stop  offset="1" style="stop-color:#C2C7C9"/>
		</linearGradient>
		<path id="shape1" fill="url(#shape1_1_)" d="M-0.924,14.555H52.07v17.07H-0.924V14.555z"/>
		
			<linearGradient id="shape2_1_" gradientUnits="userSpaceOnUse" x1="-1088.3032" y1="1130.1976" x2="-1088.7495" y2="1130.1976" gradientTransform="matrix(28.8492 0 0 30.3465 31428.6855 -34303.0313)">
			<stop  offset="0" style="stop-color:#BAC0C1"/>
			<stop  offset="0.15" style="stop-color:#F4FAFC"/>
			<stop  offset="0.25" style="stop-color:#F8FCFD"/>
			<stop  offset="0.44" style="stop-color:#D5DBDD"/>
			<stop  offset="0.6" style="stop-color:#BDC3C4"/>
			<stop  offset="0.8" style="stop-color:#A0A4A6"/>
			<stop  offset="0.97" style="stop-color:#929697"/>
		</linearGradient>
		<path id="shape2" fill="url(#shape2_1_)" d="M19.12-12.337H32V1.214H19.12V-12.337z"/>
		
			<linearGradient id="shape3_1_" gradientUnits="userSpaceOnUse" x1="-805.5767" y1="1123.8461" x2="-805.5767" y2="1124.2935" gradientTransform="matrix(1.5972 0 0 38.2327 1331.7988 -42953.0898)">
			<stop  offset="0" style="stop-color:#939798"/>
			<stop  offset="0.15" style="stop-color:#C5CACB"/>
			<stop  offset="0.25" style="stop-color:#DFE2E2"/>
			<stop  offset="0.44" style="stop-color:#A8ADAE"/>
			<stop  offset="0.6" style="stop-color:#959A9B"/>
			<stop  offset="0.8" style="stop-color:#7D8182"/>
			<stop  offset="0.97" style="stop-color:#727676"/>
			<stop  offset="1" style="stop-color:#999D9E"/>
		</linearGradient>
		<path id="shape3" fill="url(#shape3_1_)" d="M44.775,14.577h0.713v17.071h-0.713V14.577z"/>
		
			<linearGradient id="shape4_1_" gradientUnits="userSpaceOnUse" x1="-1100.1284" y1="1119.2963" x2="-1100.1284" y2="1119.7426" gradientTransform="matrix(85.8488 0 0 50.2115 94470.2578 -56189.6953)">
			<stop  offset="0" style="stop-color:#BAC0C1"/>
			<stop  offset="0.15" style="stop-color:#F4FAFC"/>
			<stop  offset="0.25" style="stop-color:#F8FCFD"/>
			<stop  offset="0.44" style="stop-color:#D5DBDD"/>
			<stop  offset="0.6" style="stop-color:#BDC3C4"/>
			<stop  offset="0.8" style="stop-color:#A0A4A6"/>
			<stop  offset="0.97" style="stop-color:#929697"/>
			<stop  offset="1" style="stop-color:#C2C7C9"/>
		</linearGradient>
		<path id="shape4" fill="url(#shape4_1_)" d="M6.403,11.881h38.333V34.3H6.403V11.881z"/>
		
			<linearGradient id="shape5_1_" gradientUnits="userSpaceOnUse" x1="-775.1587" y1="1123.8461" x2="-775.1587" y2="1124.2933" gradientTransform="matrix(1.5972 0 0 38.2327 1244.0234 -42953.1211)">
			<stop  offset="0" style="stop-color:#939798"/>
			<stop  offset="0.15" style="stop-color:#C5CACB"/>
			<stop  offset="0.25" style="stop-color:#DFE2E2"/>
			<stop  offset="0.44" style="stop-color:#A8ADAE"/>
			<stop  offset="0.6" style="stop-color:#959A9B"/>
			<stop  offset="0.8" style="stop-color:#7D8182"/>
			<stop  offset="0.97" style="stop-color:#727676"/>
			<stop  offset="1" style="stop-color:#999D9E"/>
		</linearGradient>
		<path id="shape5" fill="url(#shape5_1_)" d="M5.583,14.555h0.711v17.07H5.583V14.555z"/>
		
			<linearGradient id="shape6_1_" gradientUnits="userSpaceOnUse" x1="-1092.9595" y1="1128.6801" x2="-1093.4058" y2="1128.6801" gradientTransform="matrix(39.3307 0 0 31.6462 43021.1992 -35711.6406)">
			<stop  offset="0" style="stop-color:#BAC0C1"/>
			<stop  offset="0.15" style="stop-color:#F4FAFC"/>
			<stop  offset="0.25" style="stop-color:#F8FCFD"/>
			<stop  offset="0.44" style="stop-color:#D5DBDD"/>
			<stop  offset="0.6" style="stop-color:#BDC3C4"/>
			<stop  offset="0.8" style="stop-color:#A0A4A6"/>
			<stop  offset="0.97" style="stop-color:#929697"/>
		</linearGradient>
		<path id="shape6" fill="url(#shape6_1_)" d="M34.34-0.315H16.78v12.48c0,0,0.267,1.604,8.96,1.65c8.289,0.044,8.6-1.65,8.6-1.65
			V-0.315z"/>
		
			<linearGradient id="shape7_1_" gradientUnits="userSpaceOnUse" x1="-1088.3032" y1="1647.7679" x2="-1088.7495" y2="1647.7679" gradientTransform="matrix(28.8492 0 0 1.3975 31428.6855 -2303.4209)">
			<stop  offset="0" style="stop-color:#939798"/>
			<stop  offset="0.15" style="stop-color:#C5CACB"/>
			<stop  offset="0.25" style="stop-color:#DFE2E2"/>
			<stop  offset="0.44" style="stop-color:#A8ADAE"/>
			<stop  offset="0.6" style="stop-color:#959A9B"/>
			<stop  offset="0.8" style="stop-color:#7D8182"/>
			<stop  offset="0.97" style="stop-color:#727676"/>
			<stop  offset="1" style="stop-color:#999D9E"/>
		</linearGradient>
		<path id="shape7" fill="url(#shape7_1_)" d="M19.12-0.979H32v0.624H19.12V-0.979z"/>
	</g>
	<g transform="translate(25.36,0.01)">
		
			<radialGradient id="shape8_1_" cx="-618.1906" cy="1905.4402" r="21.5209" gradientTransform="matrix(0.9982 0 0 0.9982 617.2405 -1887.791)" gradientUnits="userSpaceOnUse">
			<stop  offset="0" style="stop-color:#3C3736"/>
			<stop  offset="0.91" style="stop-color:#3B3635"/>
			<stop  offset="0.91" style="stop-color:#9A9999"/>
			<stop  offset="0.91" style="stop-color:#3B3635"/>
		</radialGradient>
		<path id="shape8" fill="url(#shape8_1_)" stroke="#3E3938" stroke-width="0.25" d="M0.219-0.919
			c8.378,0,15.199,6.819,15.199,15.199S8.597,29.479,0.219,29.479c0,0-5.974,0.314-10.788-4.501
			c-4.768-4.859-4.413-10.698-4.413-10.698S-15.16,7.816-10.39,3.315C-5.576-1.14,0.219-0.919,0.219-0.919z M0.219,2.157
			c0,0-4.769-0.356-8.604,3.521c-3.789,3.878-3.565,8.603-3.565,8.603s-0.267,4.547,3.476,8.469
			c3.744,3.922,8.692,3.655,8.692,3.655s5.036,0.224,8.778-3.698c3.703-3.878,3.344-8.425,3.344-8.425s0.268-4.947-3.607-8.647
			C4.81,1.89,0.219,2.157,0.219,2.157z"/>
		
			<linearGradient id="shape9_1_" gradientUnits="userSpaceOnUse" x1="-1073.6881" y1="1140.5701" x2="-1074.135" y2="1140.5701" gradientTransform="matrix(6.0893 0 0 21.7866 6539.438 -24842.4063)">
			<stop  offset="0" style="stop-color:#343232"/>
			<stop  offset="0.15" style="stop-color:#555454"/>
			<stop  offset="0.26" style="stop-color:#797777"/>
			<stop  offset="0.41" style="stop-color:#5D5B5B"/>
			<stop  offset="0.6" style="stop-color:#484646"/>
			<stop  offset="0.8" style="stop-color:#383636"/>
			<stop  offset="0.93" style="stop-color:#2C2B2B"/>
			<stop  offset="1" style="stop-color:#535151"/>
		</linearGradient>
		<path id="shape9" fill="url(#shape9_1_)" d="M1.433,2.135v9.092c0,0.446-2.719,0.446-2.719,0V2.135
			C-1.285,1.734,1.433,1.734,1.433,2.135z"/>
		
			<linearGradient id="shape10_1_" gradientUnits="userSpaceOnUse" x1="-1088.9601" y1="1067.9851" x2="-1089.4064" y2="1067.9851" gradientTransform="matrix(-3.0446 5.2977 -18.9544 -10.8933 16933.6426 17421.9863)">
			<stop  offset="0" style="stop-color:#343232"/>
			<stop  offset="0.15" style="stop-color:#555454"/>
			<stop  offset="0.26" style="stop-color:#797777"/>
			<stop  offset="0.41" style="stop-color:#5D5B5B"/>
			<stop  offset="0.6" style="stop-color:#484646"/>
			<stop  offset="0.8" style="stop-color:#383636"/>
			<stop  offset="0.93" style="stop-color:#2C2B2B"/>
			<stop  offset="1" style="stop-color:#535151"/>
		</linearGradient>
		<path id="shape10" fill="url(#shape10_1_)" d="M10.042,21.393l-7.91-4.546c-0.388-0.224,0.972-2.588,1.357-2.366l7.912,4.546
			C11.751,19.228,10.392,21.594,10.042,21.393z"/>
		
			<linearGradient id="shape11_1_" gradientUnits="userSpaceOnUse" x1="-1006.7467" y1="1107.9675" x2="-1007.193" y2="1107.9675" gradientTransform="matrix(3.0446 5.2977 18.9544 -10.8933 -17941.3613 17421.9863)">
			<stop  offset="0" style="stop-color:#343232"/>
			<stop  offset="0.15" style="stop-color:#555454"/>
			<stop  offset="0.26" style="stop-color:#797777"/>
			<stop  offset="0.41" style="stop-color:#5D5B5B"/>
			<stop  offset="0.6" style="stop-color:#484646"/>
			<stop  offset="0.8" style="stop-color:#383636"/>
			<stop  offset="0.93" style="stop-color:#2C2B2B"/>
			<stop  offset="1" style="stop-color:#535151"/>
		</linearGradient>
		<path id="shape11" fill="url(#shape11_1_)" d="M-9.606,21.393l7.912-4.546c0.389-0.224-0.973-2.588-1.36-2.366l-7.91,4.546
			C-11.316,19.228-9.954,21.594-9.606,21.393z"/>
		
			<radialGradient id="shape12_1_" cx="-644.9786" cy="1878.6453" r="4.6878" gradientTransform="matrix(0.9982 0 0 0.9982 643.8127 -1861.207)" gradientUnits="userSpaceOnUse">
			<stop  offset="0" style="stop-color:#3C3736"/>
			<stop  offset="0.91" style="stop-color:#3B3635"/>
			<stop  offset="0.91" style="stop-color:#9A9999"/>
			<stop  offset="0.91" style="stop-color:#3B3635"/>
		</radialGradient>
		<path id="shape12" fill="url(#shape12_1_)" stroke="#3E3938" stroke-width="0.25" d="M-3.114,14.293
			c0-1.87,1.47-3.341,3.342-3.341c1.828,0,3.297,1.471,3.297,3.341c0,1.828-1.469,3.299-3.297,3.299
			C-1.644,17.593-3.114,16.123-3.114,14.293z"/>
	</g>
</g>
</svg>
