<?xml version="1.0" encoding="utf-8"?>
<!-- Generator: Adobe Illustrator 24.0.2, SVG Export Plug-In . SVG Version: 6.00 Build 0)  -->
<svg version="1.1" id="图层_1" xmlns="http://www.w3.org/2000/svg" xmlns:xlink="http://www.w3.org/1999/xlink" x="0px" y="0px"
	 width="58px" height="36.932px" viewBox="0 0 58 36.932" enable-background="new 0 0 58 36.932" xml:space="preserve">
<linearGradient id="shape1_1_" gradientUnits="userSpaceOnUse" x1="20.4778" y1="28.4111" x2="20.4778" y2="27.676" gradientTransform="matrix(22.9 0 0 -10.1 -430.9659 313.3497)">
	<stop  offset="0" style="stop-color:#5A779E"/>
	<stop  offset="0.03" style="stop-color:#6C89B0"/>
	<stop  offset="0.0837" style="stop-color:#57749B"/>
	<stop  offset="0.64" style="stop-color:#58759C"/>
	<stop  offset="0.95" style="stop-color:#58759C"/>
	<stop  offset="1" style="stop-color:#4E6B92"/>
</linearGradient>
<path id="shape1" fill="url(#shape1_1_)" d="M29.559,33.822h16.834v-7.425H29.559V33.822z"/>
<linearGradient id="shape2_1_" gradientUnits="userSpaceOnUse" x1="19.7792" y1="28.4111" x2="19.7792" y2="27.676" gradientTransform="matrix(12 0 0 -10.1 -223.971 313.3497)">
	<stop  offset="0" style="stop-color:#5A779E"/>
	<stop  offset="0.03" style="stop-color:#6C89B0"/>
	<stop  offset="0.0837" style="stop-color:#57749B"/>
	<stop  offset="0.64" style="stop-color:#58759C"/>
	<stop  offset="0.95" style="stop-color:#58759C"/>
	<stop  offset="1" style="stop-color:#4E6B92"/>
</linearGradient>
<path id="shape2" fill="url(#shape2_1_)" d="M8.968,33.822h8.821v-7.425H8.968V33.822z"/>
<linearGradient id="shape3_1_" gradientUnits="userSpaceOnUse" x1="22.9789" y1="26.732" x2="22.9789" y2="25.9969" gradientTransform="matrix(-37.5 0 0 -32.7 894.7531 877.6874)">
	<stop  offset="2.184394e-07" style="stop-color:#5C79A0"/>
	<stop  offset="0.15" style="stop-color:#7C99C0"/>
	<stop  offset="0.25" style="stop-color:#B4D1F8"/>
	<stop  offset="0.44" style="stop-color:#6683AA"/>
	<stop  offset="0.6" style="stop-color:#56739A"/>
	<stop  offset="0.8" style="stop-color:#456289"/>
	<stop  offset="0.97" style="stop-color:#415E85"/>
	<stop  offset="1" style="stop-color:#425F86"/>
</linearGradient>
<path id="shape3" fill="url(#shape3_1_)" d="M46.826,3.551H19.26v24.038h27.567V3.551z"/>
<linearGradient id="shape4_1_" gradientUnits="userSpaceOnUse" x1="26.6073" y1="26.6953" x2="26.6073" y2="25.9602" gradientTransform="matrix(-8.9 0 0 -35 286.5348 936.783)">
	<stop  offset="2.184394e-07" style="stop-color:#5C79A0"/>
	<stop  offset="0.15" style="stop-color:#7C99C0"/>
	<stop  offset="0.25" style="stop-color:#B4D1F8"/>
	<stop  offset="0.44" style="stop-color:#6683AA"/>
	<stop  offset="0.6" style="stop-color:#56739A"/>
	<stop  offset="0.8" style="stop-color:#456289"/>
	<stop  offset="0.97" style="stop-color:#415E85"/>
	<stop  offset="1" style="stop-color:#425F86"/>
</linearGradient>
<path id="shape4" fill="url(#shape4_1_)" d="M53.001,2.448h-6.542v25.729h6.542V2.448z"/>
<linearGradient id="shape5_1_" gradientUnits="userSpaceOnUse" x1="28.1348" y1="26.6953" x2="28.1348" y2="25.9602" gradientTransform="matrix(-7 0 0 -35 252.3706 936.783)">
	<stop  offset="2.184394e-07" style="stop-color:#5C79A0"/>
	<stop  offset="0.15" style="stop-color:#7C99C0"/>
	<stop  offset="0.25" style="stop-color:#B4D1F8"/>
	<stop  offset="0.44" style="stop-color:#6683AA"/>
	<stop  offset="0.6" style="stop-color:#56739A"/>
	<stop  offset="0.8" style="stop-color:#456289"/>
	<stop  offset="0.97" style="stop-color:#415E85"/>
	<stop  offset="1" style="stop-color:#425F86"/>
</linearGradient>
<path id="shape5" fill="url(#shape5_1_)" d="M52.854,2.448v25.729c0,0,5.146,0,5.146-12.791S52.854,2.448,52.854,2.448z"/>
<g>
	<g>
		
			<linearGradient id="shape6_1_" gradientUnits="userSpaceOnUse" x1="22.9789" y1="39.8984" x2="22.9789" y2="39.1633" gradientTransform="matrix(-37.5 0 0 -1 894.7531 46.0218)">
			<stop  offset="2.184394e-07" style="stop-color:#5C79A0"/>
			<stop  offset="0.15" style="stop-color:#7C99C0"/>
			<stop  offset="0.25" style="stop-color:#B4D1F8"/>
			<stop  offset="0.44" style="stop-color:#6683AA"/>
			<stop  offset="0.6" style="stop-color:#56739A"/>
			<stop  offset="0.8" style="stop-color:#456289"/>
			<stop  offset="0.97" style="stop-color:#415E85"/>
			<stop  offset="1" style="stop-color:#425F86"/>
		</linearGradient>
		<path id="shape6" fill="url(#shape6_1_)" d="M46.826,6.123H19.26v0.735h27.567V6.123z"/>
		
			<linearGradient id="shape7_1_" gradientUnits="userSpaceOnUse" x1="22.9789" y1="41.1169" x2="22.9789" y2="40.3818" gradientTransform="matrix(-37.5 0 0 -1 894.7531 50.6218)">
			<stop  offset="2.184394e-07" style="stop-color:#5C79A0"/>
			<stop  offset="0.15" style="stop-color:#7C99C0"/>
			<stop  offset="0.25" style="stop-color:#B4D1F8"/>
			<stop  offset="0.44" style="stop-color:#6683AA"/>
			<stop  offset="0.6" style="stop-color:#56739A"/>
			<stop  offset="0.8" style="stop-color:#456289"/>
			<stop  offset="0.97" style="stop-color:#415E85"/>
			<stop  offset="1" style="stop-color:#425F86"/>
		</linearGradient>
		<path id="shape7" fill="url(#shape7_1_)" d="M46.826,9.505H19.26v0.735h27.567V9.505z"/>
		
			<linearGradient id="shape8_1_" gradientUnits="userSpaceOnUse" x1="22.9789" y1="41.6996" x2="22.9789" y2="40.9645" gradientTransform="matrix(-37.5 0 0 -1 894.7531 52.8218)">
			<stop  offset="2.184394e-07" style="stop-color:#5C79A0"/>
			<stop  offset="0.15" style="stop-color:#7C99C0"/>
			<stop  offset="0.25" style="stop-color:#B4D1F8"/>
			<stop  offset="0.44" style="stop-color:#6683AA"/>
			<stop  offset="0.6" style="stop-color:#56739A"/>
			<stop  offset="0.8" style="stop-color:#456289"/>
			<stop  offset="0.97" style="stop-color:#415E85"/>
			<stop  offset="1" style="stop-color:#425F86"/>
		</linearGradient>
		<path id="shape8" fill="url(#shape8_1_)" d="M46.826,11.122H19.26v0.735h27.567V11.122z"/>
		
			<linearGradient id="shape9_1_" gradientUnits="userSpaceOnUse" x1="22.9789" y1="42.3089" x2="22.9789" y2="41.5738" gradientTransform="matrix(-37.5 0 0 -1 894.7531 55.1218)">
			<stop  offset="2.184394e-07" style="stop-color:#5C79A0"/>
			<stop  offset="0.15" style="stop-color:#7C99C0"/>
			<stop  offset="0.25" style="stop-color:#B4D1F8"/>
			<stop  offset="0.44" style="stop-color:#6683AA"/>
			<stop  offset="0.6" style="stop-color:#56739A"/>
			<stop  offset="0.8" style="stop-color:#456289"/>
			<stop  offset="0.97" style="stop-color:#415E85"/>
			<stop  offset="1" style="stop-color:#425F86"/>
		</linearGradient>
		<path id="shape9" fill="url(#shape9_1_)" d="M46.826,12.813H19.26v0.735h27.567V12.813z"/>
		
			<linearGradient id="shape10_1_" gradientUnits="userSpaceOnUse" x1="22.9789" y1="42.9182" x2="22.9789" y2="42.183" gradientTransform="matrix(-37.5 0 0 -1 894.7531 57.4218)">
			<stop  offset="2.184394e-07" style="stop-color:#5C79A0"/>
			<stop  offset="0.15" style="stop-color:#7C99C0"/>
			<stop  offset="0.25" style="stop-color:#B4D1F8"/>
			<stop  offset="0.44" style="stop-color:#6683AA"/>
			<stop  offset="0.6" style="stop-color:#56739A"/>
			<stop  offset="0.8" style="stop-color:#456289"/>
			<stop  offset="0.97" style="stop-color:#415E85"/>
			<stop  offset="1" style="stop-color:#425F86"/>
		</linearGradient>
		<path id="shape10" fill="url(#shape10_1_)" d="M46.826,14.504H19.26v0.735h27.567V14.504z"/>
		
			<linearGradient id="shape11_1_" gradientUnits="userSpaceOnUse" x1="22.9789" y1="43.5009" x2="22.9789" y2="42.7658" gradientTransform="matrix(-37.5 0 0 -1 894.7531 59.6218)">
			<stop  offset="2.184394e-07" style="stop-color:#5C79A0"/>
			<stop  offset="0.15" style="stop-color:#7C99C0"/>
			<stop  offset="0.25" style="stop-color:#B4D1F8"/>
			<stop  offset="0.44" style="stop-color:#6683AA"/>
			<stop  offset="0.6" style="stop-color:#56739A"/>
			<stop  offset="0.8" style="stop-color:#456289"/>
			<stop  offset="0.97" style="stop-color:#415E85"/>
			<stop  offset="1" style="stop-color:#425F86"/>
		</linearGradient>
		<path id="shape11" fill="url(#shape11_1_)" d="M46.826,16.121H19.26v0.735h27.567V16.121z"/>
		
			<linearGradient id="shape12_1_" gradientUnits="userSpaceOnUse" x1="22.9789" y1="44.1102" x2="22.9789" y2="43.3751" gradientTransform="matrix(-37.5 0 0 -1 894.7531 61.9218)">
			<stop  offset="2.184394e-07" style="stop-color:#5C79A0"/>
			<stop  offset="0.15" style="stop-color:#7C99C0"/>
			<stop  offset="0.25" style="stop-color:#B4D1F8"/>
			<stop  offset="0.44" style="stop-color:#6683AA"/>
			<stop  offset="0.6" style="stop-color:#56739A"/>
			<stop  offset="0.8" style="stop-color:#456289"/>
			<stop  offset="0.97" style="stop-color:#415E85"/>
			<stop  offset="1" style="stop-color:#425F86"/>
		</linearGradient>
		<path id="shape12" fill="url(#shape12_1_)" d="M46.826,17.812H19.26v0.735h27.567V17.812z"/>
		
			<linearGradient id="shape13_1_" gradientUnits="userSpaceOnUse" x1="22.9789" y1="44.6929" x2="22.9789" y2="43.9578" gradientTransform="matrix(-37.5 0 0 -1 894.7531 64.1218)">
			<stop  offset="2.184394e-07" style="stop-color:#5C79A0"/>
			<stop  offset="0.15" style="stop-color:#7C99C0"/>
			<stop  offset="0.25" style="stop-color:#B4D1F8"/>
			<stop  offset="0.44" style="stop-color:#6683AA"/>
			<stop  offset="0.6" style="stop-color:#56739A"/>
			<stop  offset="0.8" style="stop-color:#456289"/>
			<stop  offset="0.97" style="stop-color:#415E85"/>
			<stop  offset="1" style="stop-color:#425F86"/>
		</linearGradient>
		<path id="shape13" fill="url(#shape13_1_)" d="M46.826,19.429H19.26v0.735h27.567V19.429z"/>
		
			<linearGradient id="shape14_1_" gradientUnits="userSpaceOnUse" x1="22.9789" y1="45.3022" x2="22.9789" y2="44.5671" gradientTransform="matrix(-37.5 0 0 -1 894.7531 66.4218)">
			<stop  offset="2.184394e-07" style="stop-color:#5C79A0"/>
			<stop  offset="0.15" style="stop-color:#7C99C0"/>
			<stop  offset="0.25" style="stop-color:#B4D1F8"/>
			<stop  offset="0.44" style="stop-color:#6683AA"/>
			<stop  offset="0.6" style="stop-color:#56739A"/>
			<stop  offset="0.8" style="stop-color:#456289"/>
			<stop  offset="0.97" style="stop-color:#415E85"/>
			<stop  offset="1" style="stop-color:#425F86"/>
		</linearGradient>
		<path id="shape14" fill="url(#shape14_1_)" d="M46.826,21.12H19.26v0.735h27.567V21.12z"/>
		
			<linearGradient id="shape15_1_" gradientUnits="userSpaceOnUse" x1="22.9789" y1="45.9114" x2="22.9789" y2="45.1763" gradientTransform="matrix(-37.5 0 0 -1 894.7531 68.7218)">
			<stop  offset="2.184394e-07" style="stop-color:#5C79A0"/>
			<stop  offset="0.15" style="stop-color:#7C99C0"/>
			<stop  offset="0.25" style="stop-color:#B4D1F8"/>
			<stop  offset="0.44" style="stop-color:#6683AA"/>
			<stop  offset="0.6" style="stop-color:#56739A"/>
			<stop  offset="0.8" style="stop-color:#456289"/>
			<stop  offset="0.97" style="stop-color:#415E85"/>
			<stop  offset="1" style="stop-color:#425F86"/>
		</linearGradient>
		<path id="shape15" fill="url(#shape15_1_)" d="M46.826,22.81H19.26v0.735h27.567V22.81z"/>
		
			<linearGradient id="shape16_1_" gradientUnits="userSpaceOnUse" x1="22.9789" y1="46.4942" x2="22.9789" y2="45.7591" gradientTransform="matrix(-37.5 0 0 -1 894.7531 70.9218)">
			<stop  offset="2.184394e-07" style="stop-color:#5C79A0"/>
			<stop  offset="0.15" style="stop-color:#7C99C0"/>
			<stop  offset="0.25" style="stop-color:#B4D1F8"/>
			<stop  offset="0.44" style="stop-color:#6683AA"/>
			<stop  offset="0.6" style="stop-color:#56739A"/>
			<stop  offset="0.8" style="stop-color:#456289"/>
			<stop  offset="0.97" style="stop-color:#415E85"/>
			<stop  offset="1" style="stop-color:#425F86"/>
		</linearGradient>
		<path id="shape16" fill="url(#shape16_1_)" d="M46.826,24.428H19.26v0.735h27.567V24.428z"/>
		
			<linearGradient id="shape17_1_" gradientUnits="userSpaceOnUse" x1="22.9789" y1="47.1034" x2="22.9789" y2="46.3683" gradientTransform="matrix(-37.5 0 0 -1 894.7531 73.2218)">
			<stop  offset="2.184394e-07" style="stop-color:#5C79A0"/>
			<stop  offset="0.15" style="stop-color:#7C99C0"/>
			<stop  offset="0.25" style="stop-color:#B4D1F8"/>
			<stop  offset="0.44" style="stop-color:#6683AA"/>
			<stop  offset="0.6" style="stop-color:#56739A"/>
			<stop  offset="0.8" style="stop-color:#456289"/>
			<stop  offset="0.97" style="stop-color:#415E85"/>
			<stop  offset="1" style="stop-color:#425F86"/>
		</linearGradient>
		<path id="shape17" fill="url(#shape17_1_)" d="M46.826,26.118H19.26v0.735h27.567V26.118z"/>
		
			<linearGradient id="shape18_1_" gradientUnits="userSpaceOnUse" x1="22.9789" y1="39.3156" x2="22.9789" y2="38.5805" gradientTransform="matrix(-37.5 0 0 -1 894.7531 43.8218)">
			<stop  offset="2.184394e-07" style="stop-color:#5C79A0"/>
			<stop  offset="0.15" style="stop-color:#7C99C0"/>
			<stop  offset="0.25" style="stop-color:#B4D1F8"/>
			<stop  offset="0.44" style="stop-color:#6683AA"/>
			<stop  offset="0.6" style="stop-color:#56739A"/>
			<stop  offset="0.8" style="stop-color:#456289"/>
			<stop  offset="0.97" style="stop-color:#415E85"/>
			<stop  offset="1" style="stop-color:#425F86"/>
		</linearGradient>
		<path id="shape18" fill="url(#shape18_1_)" d="M46.826,4.506H19.26v0.735h27.567V4.506z"/>
	</g>
	
		<linearGradient id="shape19_1_" gradientUnits="userSpaceOnUse" x1="22.9789" y1="40.4811" x2="22.9789" y2="39.746" gradientTransform="matrix(-37.5 0 0 -1 894.7531 48.2218)">
		<stop  offset="2.184394e-07" style="stop-color:#5C79A0"/>
		<stop  offset="0.15" style="stop-color:#7C99C0"/>
		<stop  offset="0.25" style="stop-color:#B4D1F8"/>
		<stop  offset="0.44" style="stop-color:#6683AA"/>
		<stop  offset="0.6" style="stop-color:#56739A"/>
		<stop  offset="0.8" style="stop-color:#456289"/>
		<stop  offset="0.97" style="stop-color:#415E85"/>
		<stop  offset="1" style="stop-color:#425F86"/>
	</linearGradient>
	<path id="shape19" fill="url(#shape19_1_)" d="M46.826,7.741H19.26v0.735h27.567V7.741z"/>
</g>
<path id="shape21" fill="#FFFFFF" fill-opacity="0.25" d="M50.722,15.239c0-0.515-0.441-0.956-0.956-0.956
	c-0.588,0-1.029,0.441-1.029,0.956c0,0.588,0.441,0.956,1.029,0.956C50.281,16.194,50.722,15.827,50.722,15.239z"/>
<path id="shape22" opacity="0.5" fill="#425672" d="M50.251,14.767c-0.052-0.052-0.104,0-0.157,0.052l-0.783,0.783
	c-0.052,0.052-0.104,0.104-0.052,0.157s0.157,0.052,0.209,0l0.783-0.783C50.303,14.923,50.303,14.819,50.251,14.767z"/>
<path id="shape23" opacity="0.5" fill="#425672" d="M49.221,14.755c-0.052,0.052,0,0.104,0.052,0.157l0.783,0.783
	c0.052,0.052,0.104,0.104,0.157,0.052s0.052-0.157,0-0.209l-0.783-0.783C49.378,14.703,49.274,14.703,49.221,14.755z"/>
<linearGradient id="shape24_1_" gradientUnits="userSpaceOnUse" x1="51.6298" y1="26.732" x2="51.6298" y2="25.9969" gradientTransform="matrix(-1 0 0 -32.7 71.1102 877.6874)">
	<stop  offset="2.184394e-07" style="stop-color:#5B789F"/>
	<stop  offset="0.1518" style="stop-color:#6D8AB1"/>
	<stop  offset="0.25" style="stop-color:#8FACD3"/>
	<stop  offset="0.44" style="stop-color:#607DA4"/>
	<stop  offset="0.5652" style="stop-color:#405D84"/>
	<stop  offset="1" style="stop-color:#415E85"/>
	<stop  offset="1" style="stop-color:#01996C"/>
</linearGradient>
<path id="shape24" fill="url(#shape24_1_)" d="M19.848,3.551h-0.735v24.038h0.735V3.551z"/>
<linearGradient id="shape25_1_" gradientUnits="userSpaceOnUse" x1="23.3889" y1="26.6953" x2="23.3889" y2="25.9602" gradientTransform="matrix(-20.2 0 0 -35 484.3637 936.783)">
	<stop  offset="2.184394e-07" style="stop-color:#5C79A0"/>
	<stop  offset="0.15" style="stop-color:#7C99C0"/>
	<stop  offset="0.25" style="stop-color:#B4D1F8"/>
	<stop  offset="0.44" style="stop-color:#6683AA"/>
	<stop  offset="0.6" style="stop-color:#56739A"/>
	<stop  offset="0.8" style="stop-color:#456289"/>
	<stop  offset="0.97" style="stop-color:#415E85"/>
	<stop  offset="1" style="stop-color:#425F86"/>
</linearGradient>
<path id="shape25" fill="url(#shape25_1_)" d="M19.333,2.448H4.484v25.729h14.849V2.448z"/>
<linearGradient id="shape26_1_" gradientUnits="userSpaceOnUse" x1="29.9918" y1="26.6188" x2="29.9918" y2="25.8837" gradientTransform="matrix(-3 0 0 -41.6 93.4303 1107.3661)">
	<stop  offset="2.184394e-07" style="stop-color:#5C79A0"/>
	<stop  offset="0.15" style="stop-color:#7C99C0"/>
	<stop  offset="0.25" style="stop-color:#B4D1F8"/>
	<stop  offset="0.44" style="stop-color:#6683AA"/>
	<stop  offset="0.6" style="stop-color:#56739A"/>
	<stop  offset="0.8" style="stop-color:#456289"/>
	<stop  offset="0.97" style="stop-color:#415E85"/>
	<stop  offset="1" style="stop-color:#425F86"/>
</linearGradient>
<path id="shape26" fill="url(#shape26_1_)" d="M4.043,0.022h-1.25c-0.221,0-0.441,0.221-0.441,0.515v29.551
	c0,0.294,0.221,0.515,0.441,0.515h1.25c0.294,0,0.515-0.221,0.515-0.515V0.537C4.558,0.243,4.337,0.022,4.043,0.022z"/>
<linearGradient id="shape27_1_" gradientUnits="userSpaceOnUse" x1="29.2394" y1="27.5289" x2="29.2394" y2="26.7938" gradientTransform="matrix(-3.2 0 0 -12.8 94.7423 362.9037)">
	<stop  offset="0" style="stop-color:#CFE3FF"/>
	<stop  offset="0.2747" style="stop-color:#FAFBFF"/>
	<stop  offset="0.6" style="stop-color:#B1CEF5"/>
	<stop  offset="0.9963" style="stop-color:#88A5CC"/>
</linearGradient>
<path id="shape27" fill="url(#shape27_1_)" d="M2.352,10.534L0,12.445v5.587l2.352,1.911V10.534z"/>
<linearGradient id="shape28_1_" gradientUnits="userSpaceOnUse" x1="25.5066" y1="30.6099" x2="25.5066" y2="29.8748" gradientTransform="matrix(-7.3 0 0 -2.7 193.4387 83.1099)">
	<stop  offset="2.184394e-07" style="stop-color:#5C79A0"/>
	<stop  offset="0.15" style="stop-color:#7C99C0"/>
	<stop  offset="0.25" style="stop-color:#B4D1F8"/>
	<stop  offset="0.44" style="stop-color:#6683AA"/>
	<stop  offset="0.6" style="stop-color:#56739A"/>
	<stop  offset="0.8" style="stop-color:#456289"/>
	<stop  offset="0.97" style="stop-color:#415E85"/>
	<stop  offset="1" style="stop-color:#425F86"/>
</linearGradient>
<path id="shape28" fill="url(#shape28_1_)" d="M9.924,2.448H4.558V0.463L9.924,2.448z"/>
<linearGradient id="shape29_1_" gradientUnits="userSpaceOnUse" x1="25.5066" y1="18.1282" x2="25.5066" y2="17.3931" gradientTransform="matrix(-7.3 0 0 2.7 193.4387 -18.8581)">
	<stop  offset="2.184394e-07" style="stop-color:#5C79A0"/>
	<stop  offset="0.15" style="stop-color:#7C99C0"/>
	<stop  offset="0.25" style="stop-color:#B4D1F8"/>
	<stop  offset="0.44" style="stop-color:#6683AA"/>
	<stop  offset="0.6" style="stop-color:#56739A"/>
	<stop  offset="0.8" style="stop-color:#456289"/>
	<stop  offset="0.97" style="stop-color:#415E85"/>
	<stop  offset="1" style="stop-color:#425F86"/>
</linearGradient>
<path id="shape29" fill="url(#shape29_1_)" d="M9.924,28.103H4.558v1.985L9.924,28.103z"/>
<linearGradient id="shape30_1_" gradientUnits="userSpaceOnUse" x1="25.4653" y1="28.3269" x2="25.4653" y2="27.5918" gradientTransform="matrix(-7.4 0 0 -6.4 195.7946 184.9898)">
	<stop  offset="2.184394e-07" style="stop-color:#5C79A0"/>
	<stop  offset="0.15" style="stop-color:#7C99C0"/>
	<stop  offset="0.25" style="stop-color:#B4D1F8"/>
	<stop  offset="0.44" style="stop-color:#6683AA"/>
	<stop  offset="0.6" style="stop-color:#56739A"/>
	<stop  offset="0.8" style="stop-color:#456289"/>
	<stop  offset="0.97" style="stop-color:#415E85"/>
	<stop  offset="1" style="stop-color:#425F86"/>
</linearGradient>
<path id="shape30" fill="url(#shape30_1_)" d="M10.071,8.402h-5.44V3.698C4.631,3.698,5.44,6.638,10.071,8.402z"/>
<linearGradient id="shape31_1_" gradientUnits="userSpaceOnUse" x1="25.5102" y1="36.1255" x2="25.5102" y2="35.3903" gradientTransform="matrix(-7.3 0 0 -1.7 193.5387 76.064)">
	<stop  offset="2.184394e-07" style="stop-color:#5C79A0"/>
	<stop  offset="0.15" style="stop-color:#7C99C0"/>
	<stop  offset="0.25" style="stop-color:#B4D1F8"/>
	<stop  offset="0.44" style="stop-color:#6683AA"/>
	<stop  offset="0.6" style="stop-color:#56739A"/>
	<stop  offset="0.8" style="stop-color:#456289"/>
	<stop  offset="0.97" style="stop-color:#415E85"/>
	<stop  offset="1" style="stop-color:#425F86"/>
</linearGradient>
<path id="shape31" fill="url(#shape31_1_)" d="M9.997,14.651H4.631v1.25h5.366V14.651z"/>
<linearGradient id="shape32_1_" gradientUnits="userSpaceOnUse" x1="25.4653" y1="23.057" x2="25.4653" y2="22.3219" gradientTransform="matrix(-7.4 0 0 6.4 195.7946 -120.638)">
	<stop  offset="2.184394e-07" style="stop-color:#5C79A0"/>
	<stop  offset="0.15" style="stop-color:#7C99C0"/>
	<stop  offset="0.25" style="stop-color:#B4D1F8"/>
	<stop  offset="0.44" style="stop-color:#6683AA"/>
	<stop  offset="0.6" style="stop-color:#56739A"/>
	<stop  offset="0.8" style="stop-color:#456289"/>
	<stop  offset="0.97" style="stop-color:#415E85"/>
	<stop  offset="1" style="stop-color:#425F86"/>
</linearGradient>
<path id="shape32" fill="url(#shape32_1_)" d="M10.071,22.222h-5.44v4.705C4.631,26.927,5.44,23.987,10.071,22.222z"/>
<path id="shape34" fill="#FFFFFF" fill-opacity="0.25" d="M16.613,5.535h-5.881c-0.221,0-0.441,0.221-0.441,0.441v6.395
	c0,0.294,0.221,0.441,0.441,0.441h5.881c0.221,0,0.441-0.147,0.441-0.441V5.976C17.055,5.756,16.834,5.535,16.613,5.535z"/>
<linearGradient id="shape35_1_" gradientUnits="userSpaceOnUse" x1="21.6115" y1="31.0118" x2="21.6115" y2="30.2767" gradientTransform="matrix(74 0 0 -5 -1569.6962 188.3155)">
	<stop  offset="0" style="stop-color:#5A779E"/>
	<stop  offset="0.03" style="stop-color:#6C89B0"/>
	<stop  offset="0.0837" style="stop-color:#57749B"/>
	<stop  offset="0.64" style="stop-color:#58759C"/>
	<stop  offset="0.95" style="stop-color:#58759C"/>
	<stop  offset="1" style="stop-color:#4E6B92"/>
</linearGradient>
<path id="shape35" fill="url(#shape35_1_)" d="M2.573,33.256H56.53c0.147,0,0.221,0.147,0.221,0.294v3.087
	c0,0.147-0.074,0.294-0.221,0.294H2.573c-0.147,0-0.221-0.147-0.221-0.294V33.55C2.352,33.403,2.426,33.256,2.573,33.256z"/>
<linearGradient id="shape36_1_" gradientUnits="userSpaceOnUse" x1="24.7144" y1="27.9014" x2="23.9792" y2="27.9014" gradientTransform="matrix(-16.2 0 0 -5.9 434.6433 166.7868)">
	<stop  offset="0" style="stop-color:#5A779E"/>
	<stop  offset="0.03" style="stop-color:#6C89B0"/>
	<stop  offset="0.0837" style="stop-color:#57749B"/>
	<stop  offset="0.64" style="stop-color:#58759C"/>
	<stop  offset="0.95" style="stop-color:#58759C"/>
	<stop  offset="1" style="stop-color:#4E6B92"/>
</linearGradient>
<path id="shape36" fill="url(#shape36_1_)" d="M46.179,4.337H34.271V0h11.909V4.337z"/>
<path id="shape38" fill="#425672" d="M46.188,1.617h-1.691V0h1.691V1.617z"/>
<path id="shape39" fill="#425672" d="M35.961,1.617h-1.691V0h1.691V1.617z"/>
<path id="shape40" fill="#FFFFFF" fill-opacity="0.25" d="M45.812,0.809c0.017-0.343-0.942-0.406-0.956,0
	C44.87,1.214,45.829,1.152,45.812,0.809z"/>
<path id="shape41" opacity="0.5" fill="#425672" d="M45.539,0.609c0,0,0,0-0.052,0.052c-0.313,0.313-0.365,0.365-0.365,0.365
	c0.052,0.052,0.104,0,0.104,0C45.591,0.662,45.591,0.662,45.539,0.609z"/>
<path id="shape42" opacity="0.5" fill="#425672" d="M45.098,0.64c0,0,0,0,0.052,0.052c0.313,0.313,0.365,0.365,0.365,0.365
	c0.052-0.052,0-0.104,0-0.104C45.15,0.588,45.15,0.588,45.098,0.64z"/>
<path id="shape43" fill="#FFFFFF" fill-opacity="0.25" d="M35.52,0.809c0-0.147-0.221-0.294-0.515-0.294
	c-0.221,0-0.441,0.147-0.441,0.294s0.221,0.294,0.441,0.294C35.3,1.103,35.52,0.956,35.52,0.809z"/>
<path id="shape44" opacity="0.5" fill="#425672" d="M35.248,0.609c0,0,0,0-0.052,0.052c-0.313,0.313-0.365,0.365-0.365,0.365
	c0.052,0.052,0.104,0,0.104,0C35.3,0.662,35.3,0.662,35.248,0.609z"/>
<path id="shape45" opacity="0.5" fill="#425672" d="M34.807,0.64c0,0,0,0,0.052,0.052c0.313,0.313,0.365,0.365,0.365,0.365
	c0.052-0.052,0-0.104,0-0.104C34.859,0.588,34.859,0.588,34.807,0.64z"/>
<rect x="52.116" y="2.448" opacity="0.1" fill="#B2C5D8" width="0.448" height="25.655"/>
</svg>
