<?xml version="1.0" encoding="utf-8"?>
<!-- Generator: Adobe Illustrator 24.1.2, SVG Export Plug-In . SVG Version: 6.00 Build 0)  -->
<svg version="1.1" id="图层_1" xmlns="http://www.w3.org/2000/svg" xmlns:xlink="http://www.w3.org/1999/xlink" x="0px" y="0px"
	 width="36px" height="36px" viewBox="0 0 36 36" enable-background="new 0 0 36 36" xml:space="preserve">
<g>
	<path fill="#12EEFF" d="M17.752,0.647L2.627,14.604c-0.117,0.108-0.041,0.304,0.119,0.304h30.251c0.159,0,0.236-0.196,0.119-0.304
		L17.99,0.647C17.923,0.585,17.819,0.585,17.752,0.647z"/>
	<rect x="5.798" y="14.021" fill="#12EEFF" width="24.145" height="12.219"/>
	<rect x="24.7" y="2.558" fill="#12EEFF" width="3.285" height="8.54"/>
	<path fill="#12EEFF" d="M36,29.191c-2.331,0-3.56-0.982-4.548-1.771c-0.836-0.668-1.388-1.11-2.661-1.11s-1.825,0.442-2.661,1.11
		c-0.987,0.789-2.215,1.771-4.547,1.771c-2.329,0-3.556-0.983-4.543-1.772c-0.834-0.668-1.385-1.109-2.654-1.109
		c-1.268,0-1.819,0.441-2.653,1.109c-0.986,0.789-2.212,1.772-4.542,1.772c-2.328,0-3.555-0.983-4.541-1.772
		C1.819,26.752,1.268,26.311,0,26.311v-3.022c2.328,0,3.555,0.983,4.541,1.772c0.833,0.668,1.384,1.109,2.652,1.109
		s1.819-0.441,2.653-1.109c0.986-0.789,2.212-1.772,4.542-1.772s3.556,0.983,4.543,1.772c0.834,0.668,1.385,1.109,2.654,1.109
		c1.272,0,1.824-0.442,2.66-1.11c0.988-0.789,2.215-1.771,4.548-1.771c2.331,0,3.56,0.982,4.548,1.771
		c0.836,0.668,1.388,1.11,2.661,1.11V29.191z"/>
	<path fill="#12EEFF" d="M36,35.399c-2.331,0-3.56-0.982-4.548-1.771c-0.836-0.668-1.388-1.11-2.661-1.11s-1.825,0.442-2.661,1.11
		c-0.987,0.789-2.215,1.771-4.547,1.771c-2.329,0-3.556-0.983-4.543-1.772c-0.834-0.668-1.385-1.109-2.654-1.109
		c-1.268,0-1.819,0.441-2.653,1.109c-0.986,0.789-2.212,1.772-4.542,1.772c-2.328,0-3.555-0.983-4.541-1.772
		C1.819,32.96,1.268,32.519,0,32.519v-3.022c2.328,0,3.555,0.983,4.541,1.772c0.833,0.668,1.384,1.109,2.652,1.109
		s1.819-0.441,2.653-1.109c0.986-0.789,2.212-1.772,4.542-1.772s3.556,0.983,4.543,1.772c0.834,0.668,1.385,1.109,2.654,1.109
		c1.272,0,1.824-0.442,2.66-1.11c0.988-0.789,2.215-1.771,4.548-1.771c2.331,0,3.56,0.982,4.548,1.771
		c0.836,0.668,1.388,1.11,2.661,1.11V35.399z"/>
</g>
</svg>
