<?xml version="1.0" encoding="utf-8"?>
<!-- Generator: Adobe Illustrator 24.1.2, SVG Export Plug-In . SVG Version: 6.00 Build 0)  -->
<svg version="1.1" id="图层_1" xmlns="http://www.w3.org/2000/svg" xmlns:xlink="http://www.w3.org/1999/xlink" x="0px" y="0px"
	 width="36px" height="36px" viewBox="0 0 36 36" enable-background="new 0 0 36 36" xml:space="preserve">
<g>
	<g>
		<path fill="#12EEFF" d="M35.984,17.135c-0.325-8.16-6.394-15.182-14.539-16.789C11.114-1.712,1.18,5.636,0.097,16.142
			c-1.011,9.839,6.014,18.594,15.858,19.731c0.163,0.018,0.307,0.072,0.47,0.126h3.125c1.084-0.217,2.185-0.379,3.251-0.668
			C30.964,33.057,36.328,25.638,35.984,17.135L35.984,17.135z M32.932,18.11H20.56c-0.217,0.578-0.415,1.065-0.614,1.57
			c4.208,2.148,5.78,5.145,4.587,8.738c-0.939,2.816-3.991,4.964-6.502,4.513V21.197c0-0.47-0.018-0.812-0.632-0.849
			c-0.325-0.018-0.632-0.271-0.939-0.415c-2.167,4.17-4.949,5.705-8.489,4.693c-2.89-0.812-5.039-3.701-4.84-6.607h0.795
			c3.63,0,7.279-0.018,10.909,0.018c0.542,0,0.885-0.072,0.939-0.704c0.018-0.289,0.253-0.56,0.415-0.903
			c-2.33-0.776-3.991-2.293-4.714-4.694c-0.451-1.498-0.343-2.997,0.271-4.477c1.066-2.563,3.992-4.441,6.358-4.062v12.366
			c0.578,0.217,1.066,0.415,1.571,0.614c2.203-4.242,5.129-5.795,8.742-4.585C31.216,12.532,33.348,15.565,32.932,18.11
			L32.932,18.11z M32.932,18.11"/>
	</g>
	<path fill="#12EEFF" d="M17.941,16.81c-0.65,0.018-1.138,0.542-1.138,1.192c0,0.668,0.542,1.209,1.21,1.191
		c0.686-0.018,1.192-0.541,1.174-1.227C19.17,17.298,18.61,16.792,17.941,16.81L17.941,16.81z M17.941,16.81"/>
	<path fill="#12EEFF" d="M17.941,16.81c-0.65,0.018-1.138,0.542-1.138,1.192c0,0.668,0.542,1.209,1.21,1.191
		c0.686-0.018,1.192-0.541,1.174-1.227C19.17,17.298,18.61,16.792,17.941,16.81L17.941,16.81z M17.941,16.81"/>
</g>
</svg>
