<?xml version="1.0" encoding="utf-8"?>
<!-- Generator: Adobe Illustrator 24.1.2, SVG Export Plug-In . SVG Version: 6.00 Build 0)  -->
<svg version="1.1" id="图层_1" xmlns="http://www.w3.org/2000/svg" xmlns:xlink="http://www.w3.org/1999/xlink" x="0px" y="0px"
	 width="36px" height="36px" viewBox="0 0 36 36" enable-background="new 0 0 36 36" xml:space="preserve">
<g>
	<g>
		<path fill="#12EEFF" d="M36,12.222c0-0.941-0.763-1.703-1.703-1.703h-3.93c-0.213,0.556-0.498,0.584-0.498,0.584H25.27
			c-0.302-0.046-0.486-0.304-0.597-0.584h-4.099c-0.212,0.556-0.498,0.584-0.498,0.584h-4.599c-0.302-0.046-0.486-0.304-0.598-0.584
			h-4.012c-0.213,0.556-0.499,0.584-0.499,0.584H5.77c-0.302-0.046-0.486-0.304-0.598-0.584H1.703C0.763,10.519,0,11.282,0,12.222
			v0.457h36V12.222z M0,23.778c0,0.941,0.763,1.703,1.703,1.703h32.594c0.941,0,1.703-0.763,1.703-1.703V12.956H0V23.778z
			 M15.457,20.067h4.961c0.129,0,0.249,0.069,0.313,0.181c0.065,0.112,0.065,0.25,0,0.362c-0.065,0.112-0.184,0.181-0.313,0.181
			h-4.961c-0.2,0-0.362-0.162-0.362-0.362C15.095,20.229,15.257,20.067,15.457,20.067L15.457,20.067z M2.278,22.047h30.637
			c0,0,0.809,0.681,0.128,1.533c0,0-0.681,0.873-1.235,1.065H3.534c0,0-0.83-0.49-1.256-1.49
			C2.278,23.154,1.938,22.451,2.278,22.047L2.278,22.047z M2.278,22.047"/>
	</g>
</g>
</svg>
