<?xml version="1.0" encoding="utf-8"?>
<!-- Generator: Adobe Illustrator 24.1.2, SVG Export Plug-In . SVG Version: 6.00 Build 0)  -->
<svg version="1.1" id="图层_1" xmlns="http://www.w3.org/2000/svg" xmlns:xlink="http://www.w3.org/1999/xlink" x="0px" y="0px"
	 width="36px" height="36px" viewBox="0 0 36 36" enable-background="new 0 0 36 36" xml:space="preserve">
<g>
	<path fill="#12EEFF" d="M0,18.125C0,7.698,6.71,1.587,14.701,1.587c4.016,0,7.225,1.921,9.278,4.058l-3.334,4.016
		c-1.58-1.538-3.418-2.645-5.812-2.645c-4.789,0-8.381,4.1-8.381,10.893c0,6.884,3.251,11.032,8.248,11.032
		c2.694,0,4.831-1.281,6.543-3.125l3.334,3.933c-2.61,3.035-5.986,4.664-10.086,4.664C6.494,34.413,0,28.684,0,18.125z"/>
	<path fill="#12EEFF" d="M29.68,2.186H36v31.629h-6.32V2.186z"/>
</g>
</svg>
