<?xml version="1.0" encoding="utf-8"?>
<!-- Generator: Adobe Illustrator 24.1.2, SVG Export Plug-In . SVG Version: 6.00 Build 0)  -->
<svg version="1.1" id="图层_1" xmlns="http://www.w3.org/2000/svg" xmlns:xlink="http://www.w3.org/1999/xlink" x="0px" y="0px"
	 width="36px" height="36px" viewBox="0 0 36 36" enable-background="new 0 0 36 36" xml:space="preserve">
<g>
	<g>
		<path fill="#12EEFF" d="M29.453,5.726h-5.726c-0.678,0-1.227-0.549-1.227-1.227s0.549-1.227,1.227-1.227h5.726
			c0.678,0,1.227,0.549,1.227,1.227S30.131,5.726,29.453,5.726L29.453,5.726z M26.59,25.359c0.003,5.22-3.784,9.671-8.938,10.504
			c-5.153,0.833-10.149-2.198-11.792-7.153c-1.642-4.955,0.556-10.37,5.187-12.779V4.908C11.047,2.197,13.245,0,15.956,0
			c2.711,0,4.908,2.197,4.908,4.908v11.022C24.383,17.758,26.591,21.394,26.59,25.359L26.59,25.359z M17.592,21.614V4.908
			c0-0.903-0.732-1.636-1.636-1.636c-0.904,0-1.636,0.732-1.636,1.636v16.706c-1.775,0.775-2.763,2.688-2.368,4.584
			c0.396,1.896,2.067,3.255,4.004,3.255c1.937,0,3.608-1.359,4.004-3.255C20.355,24.303,19.367,22.389,17.592,21.614L17.592,21.614z
			 M22.5,8.589c0-0.325,0.129-0.638,0.359-0.868c0.23-0.23,0.542-0.359,0.868-0.359h4.09c0.678,0,1.227,0.549,1.227,1.227
			s-0.549,1.227-1.227,1.227h-4.09c-0.325,0-0.638-0.129-0.868-0.359C22.629,9.227,22.5,8.915,22.5,8.589L22.5,8.589z M22.5,8.589"
			/>
	</g>
</g>
</svg>
