<?xml version="1.0" encoding="utf-8"?>
<!-- Generator: Adobe Illustrator 16.0.0, SVG Export Plug-In . SVG Version: 6.00 Build 0)  -->
<!DOCTYPE svg PUBLIC "-//W3C//DTD SVG 1.1//EN" "http://www.w3.org/Graphics/SVG/1.1/DTD/svg11.dtd">
<svg version="1.1" id="图层_1" xmlns="http://www.w3.org/2000/svg" xmlns:xlink="http://www.w3.org/1999/xlink" x="0px" y="0px"
	 width="26px" height="26px" viewBox="0 0 26 26" enable-background="new 0 0 26 26" xml:space="preserve">
<path fill="#1AE7F8" d="M12.963,5.07c0.048,0,0.095,0.005,0.141,0.015h9.251c1.02,0,1.846,0.828,1.846,1.845v0.036l-0.004,0.034
	l-1.679,15.684c-0.021,1.003-0.84,1.806-1.844,1.808H5.301c-1.003-0.002-1.823-0.805-1.845-1.808L1.824,7.155
	c-0.1-0.358,0.11-0.729,0.468-0.83c0.359-0.1,0.73,0.11,0.831,0.469c0.024,0.085,0.03,0.174,0.02,0.262L3.75,12.84
	c0.965-0.584,2.387-1.292,3.637-1.292c1.297,0,1.945,0.712,2.418,1.23c0.425,0.466,0.652,0.69,1.141,0.69
	c0.84,0,1.213-0.371,1.688-0.84c0.486-0.481,1.091-1.079,2.187-1.079c1.255,0,1.903,0.614,2.425,1.11
	c0.478,0.451,0.854,0.809,1.718,0.809c1.045,0,2.763-1.198,3.396-1.702l0.521-4.864c-0.017-0.279-0.247-0.496-0.525-0.496h-9.25
	c-0.365,0.08-0.726-0.153-0.804-0.517c-0.079-0.366,0.152-0.726,0.518-0.805C12.865,5.075,12.914,5.07,12.963,5.07z M10.24,6.154
	c0.167,0.002,0.257,0.305,0.951,1.246c0.416,0.563,0.811,1.034,0.811,1.562c0,0.952-0.789,1.722-1.762,1.722
	s-1.762-0.77-1.762-1.722C8.475,8.43,8.873,7.979,9.224,7.475C9.914,6.486,10.091,6.151,10.24,6.154z M5.946,2.438
	c0.164,0.002,0.256,0.305,0.95,1.246c0.416,0.563,0.812,1.034,0.812,1.562c0,0.951-0.789,1.722-1.762,1.722
	c-0.973,0-1.762-0.771-1.762-1.722C4.181,4.712,4.579,4.262,4.929,3.76C5.62,2.77,5.796,2.436,5.946,2.438z"/>
</svg>
