<?xml version="1.0" encoding="utf-8"?>
<!-- Generator: Adobe Illustrator 24.0.3, SVG Export Plug-In . SVG Version: 6.00 Build 0)  -->
<svg version="1.1" id="图层_1" xmlns="http://www.w3.org/2000/svg" xmlns:xlink="http://www.w3.org/1999/xlink" x="0px" y="0px"
	 width="56px" height="32.6px" viewBox="0 0 56 32.6" style="enable-background:new 0 0 56 32.6;" xml:space="preserve">
<style type="text/css">
	.st0{fill:url(#SVGID_1_);}
	.st1{fill:#CEE4F7;}
	.st2{fill:#7E94A6;}
	.st3{fill:url(#SVGID_2_);}
	.st4{fill:#CFE4F7;}
	.st5{fill:none;stroke:url(#SVGID_3_);stroke-width:0.5047;stroke-miterlimit:10;}
	.st6{fill:none;stroke:url(#SVGID_4_);stroke-width:0.5047;stroke-miterlimit:10;}
	.st7{fill:none;stroke:url(#SVGID_5_);stroke-width:0.5047;stroke-miterlimit:10;}
	.st8{fill:none;stroke:url(#SVGID_6_);stroke-width:0.5047;stroke-miterlimit:10;}
	.st9{fill:none;stroke:url(#SVGID_7_);stroke-width:0.5047;stroke-miterlimit:10;}
	.st10{fill:url(#SVGID_8_);}
	.st11{fill:none;stroke:url(#SVGID_9_);stroke-width:0.5047;stroke-miterlimit:10;}
	.st12{fill:none;stroke:url(#SVGID_10_);stroke-width:0.5047;stroke-miterlimit:10;}
	.st13{fill:none;stroke:url(#SVGID_11_);stroke-width:0.5047;stroke-miterlimit:10;}
	.st14{fill:none;stroke:url(#SVGID_12_);stroke-width:0.5047;stroke-miterlimit:10;}
	.st15{fill:none;stroke:url(#SVGID_13_);stroke-width:0.5047;stroke-miterlimit:10;}
	.st16{fill:url(#SVGID_14_);}
	.st17{fill:none;stroke:url(#SVGID_15_);stroke-width:0.5047;stroke-miterlimit:10;}
	.st18{fill:none;stroke:url(#SVGID_16_);stroke-width:0.5047;stroke-miterlimit:10;}
	.st19{fill:none;stroke:url(#SVGID_17_);stroke-width:0.5047;stroke-miterlimit:10;}
	.st20{fill:none;stroke:url(#SVGID_18_);stroke-width:0.5047;stroke-miterlimit:10;}
	.st21{fill:none;stroke:url(#SVGID_19_);stroke-width:0.5047;stroke-miterlimit:10;}
	.st22{fill:url(#SVGID_20_);}
	.st23{fill:none;stroke:url(#SVGID_21_);stroke-width:0.5047;stroke-miterlimit:10;}
	.st24{fill:none;stroke:url(#SVGID_22_);stroke-width:0.5047;stroke-miterlimit:10;}
	.st25{fill:none;stroke:url(#SVGID_23_);stroke-width:0.5047;stroke-miterlimit:10;}
	.st26{fill:none;stroke:url(#SVGID_24_);stroke-width:0.5047;stroke-miterlimit:10;}
	.st27{fill:none;stroke:url(#SVGID_25_);stroke-width:0.5047;stroke-miterlimit:10;}
</style>
<g>
	
		<linearGradient id="SVGID_1_" gradientUnits="userSpaceOnUse" x1="28" y1="0.3776" x2="28" y2="32.9553" gradientTransform="matrix(1 0 0 -1 0 32.9553)">
		<stop  offset="0.4126" style="stop-color:#C1D7E9"/>
		<stop  offset="0.96" style="stop-color:#EBF6FF"/>
	</linearGradient>
	<rect class="st0" width="56" height="32.6"/>
	<rect x="1.3" y="1.1" class="st1" width="12.8" height="29.4"/>
	<rect x="1.1" y="1.1" class="st2" width="12.6" height="29"/>
	
		<linearGradient id="SVGID_2_" gradientUnits="userSpaceOnUse" x1="7.5038" y1="2.8258" x2="7.5038" y2="31.5929" gradientTransform="matrix(1 0 0 -1 0 32.9553)">
		<stop  offset="0.4126" style="stop-color:#B2C7DA"/>
		<stop  offset="0.96" style="stop-color:#EBF6FF"/>
	</linearGradient>
	<rect x="1.4" y="1.3" class="st3" width="12.2" height="28.7"/>
	<g>
		<path class="st4" d="M12.1,4.2c0,0.9-0.9,1.7-2,1.7H4.9c-1.1,0-2-0.8-2-1.7s0.9-1.7,2-1.7h5.3C11.2,2.4,12.1,3.2,12.1,4.2z"/>
		
			<linearGradient id="SVGID_3_" gradientUnits="userSpaceOnUse" x1="7.5038" y1="30.7625" x2="7.5038" y2="26.7613" gradientTransform="matrix(1 0 0 -1 0 32.9553)">
			<stop  offset="0.3749" style="stop-color:#FFFFFF"/>
			<stop  offset="0.9814" style="stop-color:#2F4457"/>
		</linearGradient>
		<path class="st5" d="M12.1,4.2c0,0.9-0.9,1.7-2,1.7H4.9c-1.1,0-2-0.8-2-1.7s0.9-1.7,2-1.7h5.3C11.2,2.4,12.1,3.2,12.1,4.2z"/>
	</g>
	<g>
		<path class="st4" d="M12.1,9.7c0,0.9-0.9,1.7-2,1.7H4.9c-1.1,0-2-0.8-2-1.7S3.8,8,4.9,8h5.3C11.2,8,12.1,8.8,12.1,9.7z"/>
		
			<linearGradient id="SVGID_4_" gradientUnits="userSpaceOnUse" x1="7.5038" y1="25.1712" x2="7.5038" y2="21.1701" gradientTransform="matrix(1 0 0 -1 0 32.9553)">
			<stop  offset="0.3749" style="stop-color:#FFFFFF"/>
			<stop  offset="0.9814" style="stop-color:#2F4457"/>
		</linearGradient>
		<path class="st6" d="M12.1,9.7c0,0.9-0.9,1.7-2,1.7H4.9c-1.1,0-2-0.8-2-1.7S3.8,8,4.9,8h5.3C11.2,8,12.1,8.8,12.1,9.7z"/>
	</g>
	<g>
		<path class="st4" d="M12.1,15.4c0,0.9-0.9,1.7-2,1.7H4.9c-1.1,0-2-0.8-2-1.7s0.9-1.7,2-1.7h5.3C11.2,13.6,12.1,14.4,12.1,15.4z"/>
		
			<linearGradient id="SVGID_5_" gradientUnits="userSpaceOnUse" x1="7.5038" y1="19.5799" x2="7.5038" y2="15.5787" gradientTransform="matrix(1 0 0 -1 0 32.9553)">
			<stop  offset="0.3749" style="stop-color:#FFFFFF"/>
			<stop  offset="0.9814" style="stop-color:#2F4457"/>
		</linearGradient>
		<path class="st7" d="M12.1,15.4c0,0.9-0.9,1.7-2,1.7H4.9c-1.1,0-2-0.8-2-1.7s0.9-1.7,2-1.7h5.3C11.2,13.6,12.1,14.4,12.1,15.4z"/>
	</g>
	<g>
		<path class="st4" d="M12.1,21c0,0.9-0.9,1.7-2,1.7H4.9c-1.1,0-2-0.8-2-1.7c0-0.9,0.9-1.7,2-1.7h5.3C11.2,19.2,12.1,20,12.1,21z"/>
		
			<linearGradient id="SVGID_6_" gradientUnits="userSpaceOnUse" x1="7.5038" y1="13.9886" x2="7.5038" y2="9.9875" gradientTransform="matrix(1 0 0 -1 0 32.9553)">
			<stop  offset="0.3749" style="stop-color:#FFFFFF"/>
			<stop  offset="0.9814" style="stop-color:#2F4457"/>
		</linearGradient>
		<path class="st8" d="M12.1,21c0,0.9-0.9,1.7-2,1.7H4.9c-1.1,0-2-0.8-2-1.7c0-0.9,0.9-1.7,2-1.7h5.3C11.2,19.2,12.1,20,12.1,21z"/>
	</g>
	<g>
		<path class="st4" d="M12.1,26.6c0,0.9-0.9,1.7-2,1.7H4.9c-1.1,0-2-0.8-2-1.7c0-0.9,0.9-1.7,2-1.7h5.3
			C11.2,24.8,12.1,25.6,12.1,26.6z"/>
		
			<linearGradient id="SVGID_7_" gradientUnits="userSpaceOnUse" x1="7.5038" y1="8.3974" x2="7.5038" y2="4.3963" gradientTransform="matrix(1 0 0 -1 0 32.9553)">
			<stop  offset="0.3749" style="stop-color:#FFFFFF"/>
			<stop  offset="0.9814" style="stop-color:#2F4457"/>
		</linearGradient>
		<path class="st9" d="M12.1,26.6c0,0.9-0.9,1.7-2,1.7H4.9c-1.1,0-2-0.8-2-1.7c0-0.9,0.9-1.7,2-1.7h5.3
			C11.2,24.8,12.1,25.6,12.1,26.6z"/>
	</g>
	<g>
		<rect x="14.8" y="1.1" class="st1" width="12.8" height="29.4"/>
		<rect x="14.6" y="1.1" class="st2" width="12.6" height="29"/>
		
			<linearGradient id="SVGID_8_" gradientUnits="userSpaceOnUse" x1="21.159" y1="2.8258" x2="21.159" y2="31.5929" gradientTransform="matrix(1 0 0 -1 0 32.9553)">
			<stop  offset="0.4126" style="stop-color:#B2C7DA"/>
			<stop  offset="0.96" style="stop-color:#EBF6FF"/>
		</linearGradient>
		<rect x="15" y="1.3" class="st10" width="12.2" height="28.7"/>
		<g>
			<path class="st4" d="M25.8,4.2c0,0.9-0.9,1.7-2,1.7h-5.3c-1.1,0-2-0.8-2-1.7s0.9-1.7,2-1.7h5.3C24.9,2.4,25.8,3.2,25.8,4.2z"/>
			
				<linearGradient id="SVGID_9_" gradientUnits="userSpaceOnUse" x1="21.1088" y1="30.7625" x2="21.1088" y2="26.7613" gradientTransform="matrix(1 0 0 -1 0 32.9553)">
				<stop  offset="0.3749" style="stop-color:#FFFFFF"/>
				<stop  offset="0.9814" style="stop-color:#2F4457"/>
			</linearGradient>
			<path class="st11" d="M25.8,4.2c0,0.9-0.9,1.7-2,1.7h-5.3c-1.1,0-2-0.8-2-1.7s0.9-1.7,2-1.7h5.3C24.9,2.4,25.8,3.2,25.8,4.2z"/>
		</g>
		<g>
			<path class="st4" d="M25.8,9.7c0,0.9-0.9,1.7-2,1.7h-5.3c-1.1,0-2-0.8-2-1.7s0.9-1.7,2-1.7h5.3C24.9,8,25.8,8.8,25.8,9.7z"/>
			
				<linearGradient id="SVGID_10_" gradientUnits="userSpaceOnUse" x1="21.1088" y1="25.1712" x2="21.1088" y2="21.1701" gradientTransform="matrix(1 0 0 -1 0 32.9553)">
				<stop  offset="0.3749" style="stop-color:#FFFFFF"/>
				<stop  offset="0.9814" style="stop-color:#2F4457"/>
			</linearGradient>
			<path class="st12" d="M25.8,9.7c0,0.9-0.9,1.7-2,1.7h-5.3c-1.1,0-2-0.8-2-1.7s0.9-1.7,2-1.7h5.3C24.9,8,25.8,8.8,25.8,9.7z"/>
		</g>
		<g>
			<path class="st4" d="M25.8,15.4c0,0.9-0.9,1.7-2,1.7h-5.3c-1.1,0-2-0.8-2-1.7s0.9-1.7,2-1.7h5.3C24.9,13.6,25.8,14.4,25.8,15.4z"
				/>
			
				<linearGradient id="SVGID_11_" gradientUnits="userSpaceOnUse" x1="21.1088" y1="19.5799" x2="21.1088" y2="15.5787" gradientTransform="matrix(1 0 0 -1 0 32.9553)">
				<stop  offset="0.3749" style="stop-color:#FFFFFF"/>
				<stop  offset="0.9814" style="stop-color:#2F4457"/>
			</linearGradient>
			<path class="st13" d="M25.8,15.4c0,0.9-0.9,1.7-2,1.7h-5.3c-1.1,0-2-0.8-2-1.7s0.9-1.7,2-1.7h5.3C24.9,13.6,25.8,14.4,25.8,15.4z
				"/>
		</g>
		<g>
			<path class="st4" d="M25.8,21c0,0.9-0.9,1.7-2,1.7h-5.3c-1.1,0-2-0.8-2-1.7c0-0.9,0.9-1.7,2-1.7h5.3C24.9,19.2,25.8,20,25.8,21z"
				/>
			
				<linearGradient id="SVGID_12_" gradientUnits="userSpaceOnUse" x1="21.1088" y1="13.9886" x2="21.1088" y2="9.9875" gradientTransform="matrix(1 0 0 -1 0 32.9553)">
				<stop  offset="0.3749" style="stop-color:#FFFFFF"/>
				<stop  offset="0.9814" style="stop-color:#2F4457"/>
			</linearGradient>
			<path class="st14" d="M25.8,21c0,0.9-0.9,1.7-2,1.7h-5.3c-1.1,0-2-0.8-2-1.7c0-0.9,0.9-1.7,2-1.7h5.3C24.9,19.2,25.8,20,25.8,21z
				"/>
		</g>
		<g>
			<path class="st4" d="M25.8,26.6c0,0.9-0.9,1.7-2,1.7h-5.3c-1.1,0-2-0.8-2-1.7c0-0.9,0.9-1.7,2-1.7h5.3
				C24.9,24.8,25.8,25.6,25.8,26.6z"/>
			
				<linearGradient id="SVGID_13_" gradientUnits="userSpaceOnUse" x1="21.1088" y1="8.3974" x2="21.1088" y2="4.3963" gradientTransform="matrix(1 0 0 -1 0 32.9553)">
				<stop  offset="0.3749" style="stop-color:#FFFFFF"/>
				<stop  offset="0.9814" style="stop-color:#2F4457"/>
			</linearGradient>
			<path class="st15" d="M25.8,26.6c0,0.9-0.9,1.7-2,1.7h-5.3c-1.1,0-2-0.8-2-1.7c0-0.9,0.9-1.7,2-1.7h5.3
				C24.9,24.8,25.8,25.6,25.8,26.6z"/>
		</g>
	</g>
	<g>
		<rect x="28.5" y="1.1" class="st1" width="12.8" height="29.4"/>
		<rect x="28.3" y="1.1" class="st2" width="12.6" height="29"/>
		
			<linearGradient id="SVGID_14_" gradientUnits="userSpaceOnUse" x1="34.8143" y1="2.8258" x2="34.8143" y2="31.5929" gradientTransform="matrix(1 0 0 -1 0 32.9553)">
			<stop  offset="0.4126" style="stop-color:#B2C7DA"/>
			<stop  offset="0.96" style="stop-color:#EBF6FF"/>
		</linearGradient>
		<rect x="28.7" y="1.3" class="st16" width="12.2" height="28.7"/>
		<g>
			<path class="st4" d="M39.4,4.2c0,0.9-0.9,1.7-2,1.7h-5.3c-1.1,0-2-0.8-2-1.7s0.9-1.7,2-1.7h5.3C38.5,2.4,39.4,3.2,39.4,4.2z"/>
			
				<linearGradient id="SVGID_15_" gradientUnits="userSpaceOnUse" x1="34.7641" y1="30.7625" x2="34.7641" y2="26.7613" gradientTransform="matrix(1 0 0 -1 0 32.9553)">
				<stop  offset="0.3749" style="stop-color:#FFFFFF"/>
				<stop  offset="0.9814" style="stop-color:#2F4457"/>
			</linearGradient>
			<path class="st17" d="M39.4,4.2c0,0.9-0.9,1.7-2,1.7h-5.3c-1.1,0-2-0.8-2-1.7s0.9-1.7,2-1.7h5.3C38.5,2.4,39.4,3.2,39.4,4.2z"/>
		</g>
		<g>
			<path class="st4" d="M39.4,9.7c0,0.9-0.9,1.7-2,1.7h-5.3c-1.1,0-2-0.8-2-1.7S31,8,32.1,8h5.3C38.5,8,39.4,8.8,39.4,9.7z"/>
			
				<linearGradient id="SVGID_16_" gradientUnits="userSpaceOnUse" x1="34.7641" y1="25.1712" x2="34.7641" y2="21.1701" gradientTransform="matrix(1 0 0 -1 0 32.9553)">
				<stop  offset="0.3749" style="stop-color:#FFFFFF"/>
				<stop  offset="0.9814" style="stop-color:#2F4457"/>
			</linearGradient>
			<path class="st18" d="M39.4,9.7c0,0.9-0.9,1.7-2,1.7h-5.3c-1.1,0-2-0.8-2-1.7S31,8,32.1,8h5.3C38.5,8,39.4,8.8,39.4,9.7z"/>
		</g>
		<g>
			<path class="st4" d="M39.4,15.4c0,0.9-0.9,1.7-2,1.7h-5.3c-1.1,0-2-0.8-2-1.7s0.9-1.7,2-1.7h5.3C38.5,13.6,39.4,14.4,39.4,15.4z"
				/>
			
				<linearGradient id="SVGID_17_" gradientUnits="userSpaceOnUse" x1="34.7641" y1="19.5799" x2="34.7641" y2="15.5787" gradientTransform="matrix(1 0 0 -1 0 32.9553)">
				<stop  offset="0.3749" style="stop-color:#FFFFFF"/>
				<stop  offset="0.9814" style="stop-color:#2F4457"/>
			</linearGradient>
			<path class="st19" d="M39.4,15.4c0,0.9-0.9,1.7-2,1.7h-5.3c-1.1,0-2-0.8-2-1.7s0.9-1.7,2-1.7h5.3C38.5,13.6,39.4,14.4,39.4,15.4z
				"/>
		</g>
		<g>
			<path class="st4" d="M39.4,21c0,0.9-0.9,1.7-2,1.7h-5.3c-1.1,0-2-0.8-2-1.7c0-0.9,0.9-1.7,2-1.7h5.3C38.5,19.2,39.4,20,39.4,21z"
				/>
			
				<linearGradient id="SVGID_18_" gradientUnits="userSpaceOnUse" x1="34.7641" y1="13.9886" x2="34.7641" y2="9.9875" gradientTransform="matrix(1 0 0 -1 0 32.9553)">
				<stop  offset="0.3749" style="stop-color:#FFFFFF"/>
				<stop  offset="0.9814" style="stop-color:#2F4457"/>
			</linearGradient>
			<path class="st20" d="M39.4,21c0,0.9-0.9,1.7-2,1.7h-5.3c-1.1,0-2-0.8-2-1.7c0-0.9,0.9-1.7,2-1.7h5.3C38.5,19.2,39.4,20,39.4,21z
				"/>
		</g>
		<g>
			<path class="st4" d="M39.4,26.6c0,0.9-0.9,1.7-2,1.7h-5.3c-1.1,0-2-0.8-2-1.7c0-0.9,0.9-1.7,2-1.7h5.3
				C38.5,24.8,39.4,25.6,39.4,26.6z"/>
			
				<linearGradient id="SVGID_19_" gradientUnits="userSpaceOnUse" x1="34.7641" y1="8.3974" x2="34.7641" y2="4.3963" gradientTransform="matrix(1 0 0 -1 0 32.9553)">
				<stop  offset="0.3749" style="stop-color:#FFFFFF"/>
				<stop  offset="0.9814" style="stop-color:#2F4457"/>
			</linearGradient>
			<path class="st21" d="M39.4,26.6c0,0.9-0.9,1.7-2,1.7h-5.3c-1.1,0-2-0.8-2-1.7c0-0.9,0.9-1.7,2-1.7h5.3
				C38.5,24.8,39.4,25.6,39.4,26.6z"/>
		</g>
	</g>
	<g>
		<rect x="42.2" y="1.1" class="st1" width="12.8" height="29.4"/>
		<rect x="42" y="1.1" class="st2" width="12.6" height="29"/>
		
			<linearGradient id="SVGID_20_" gradientUnits="userSpaceOnUse" x1="48.5699" y1="2.8258" x2="48.5699" y2="31.5929" gradientTransform="matrix(1 0 0 -1 0 32.9553)">
			<stop  offset="0.4126" style="stop-color:#B2C7DA"/>
			<stop  offset="0.96" style="stop-color:#EBF6FF"/>
		</linearGradient>
		<rect x="42.4" y="1.3" class="st22" width="12.2" height="28.7"/>
		<g>
			<path class="st4" d="M53.2,4.2c0,0.9-0.9,1.7-2,1.7h-5.3c-1.1,0-2-0.8-2-1.7s0.9-1.7,2-1.7h5.3C52.3,2.4,53.2,3.2,53.2,4.2z"/>
			
				<linearGradient id="SVGID_21_" gradientUnits="userSpaceOnUse" x1="48.5197" y1="30.7625" x2="48.5197" y2="26.7613" gradientTransform="matrix(1 0 0 -1 0 32.9553)">
				<stop  offset="0.3749" style="stop-color:#FFFFFF"/>
				<stop  offset="0.9814" style="stop-color:#2F4457"/>
			</linearGradient>
			<path class="st23" d="M53.2,4.2c0,0.9-0.9,1.7-2,1.7h-5.3c-1.1,0-2-0.8-2-1.7s0.9-1.7,2-1.7h5.3C52.3,2.4,53.2,3.2,53.2,4.2z"/>
		</g>
		<g>
			<path class="st4" d="M53.2,9.7c0,0.9-0.9,1.7-2,1.7h-5.3c-1.1,0-2-0.8-2-1.7s0.9-1.7,2-1.7h5.3C52.3,8,53.2,8.8,53.2,9.7z"/>
			
				<linearGradient id="SVGID_22_" gradientUnits="userSpaceOnUse" x1="48.5197" y1="25.1712" x2="48.5197" y2="21.1701" gradientTransform="matrix(1 0 0 -1 0 32.9553)">
				<stop  offset="0.3749" style="stop-color:#FFFFFF"/>
				<stop  offset="0.9814" style="stop-color:#2F4457"/>
			</linearGradient>
			<path class="st24" d="M53.2,9.7c0,0.9-0.9,1.7-2,1.7h-5.3c-1.1,0-2-0.8-2-1.7s0.9-1.7,2-1.7h5.3C52.3,8,53.2,8.8,53.2,9.7z"/>
		</g>
		<g>
			<path class="st4" d="M53.2,15.4c0,0.9-0.9,1.7-2,1.7h-5.3c-1.1,0-2-0.8-2-1.7s0.9-1.7,2-1.7h5.3C52.3,13.6,53.2,14.4,53.2,15.4z"
				/>
			
				<linearGradient id="SVGID_23_" gradientUnits="userSpaceOnUse" x1="48.5197" y1="19.5799" x2="48.5197" y2="15.5787" gradientTransform="matrix(1 0 0 -1 0 32.9553)">
				<stop  offset="0.3749" style="stop-color:#FFFFFF"/>
				<stop  offset="0.9814" style="stop-color:#2F4457"/>
			</linearGradient>
			<path class="st25" d="M53.2,15.4c0,0.9-0.9,1.7-2,1.7h-5.3c-1.1,0-2-0.8-2-1.7s0.9-1.7,2-1.7h5.3C52.3,13.6,53.2,14.4,53.2,15.4z
				"/>
		</g>
		<g>
			<path class="st4" d="M53.2,21c0,0.9-0.9,1.7-2,1.7h-5.3c-1.1,0-2-0.8-2-1.7c0-0.9,0.9-1.7,2-1.7h5.3C52.3,19.2,53.2,20,53.2,21z"
				/>
			
				<linearGradient id="SVGID_24_" gradientUnits="userSpaceOnUse" x1="48.5197" y1="13.9886" x2="48.5197" y2="9.9875" gradientTransform="matrix(1 0 0 -1 0 32.9553)">
				<stop  offset="0.3749" style="stop-color:#FFFFFF"/>
				<stop  offset="0.9814" style="stop-color:#2F4457"/>
			</linearGradient>
			<path class="st26" d="M53.2,21c0,0.9-0.9,1.7-2,1.7h-5.3c-1.1,0-2-0.8-2-1.7c0-0.9,0.9-1.7,2-1.7h5.3C52.3,19.2,53.2,20,53.2,21z
				"/>
		</g>
		<g>
			<path class="st4" d="M53.2,26.6c0,0.9-0.9,1.7-2,1.7h-5.3c-1.1,0-2-0.8-2-1.7c0-0.9,0.9-1.7,2-1.7h5.3
				C52.3,24.8,53.2,25.6,53.2,26.6z"/>
			
				<linearGradient id="SVGID_25_" gradientUnits="userSpaceOnUse" x1="48.5197" y1="8.3974" x2="48.5197" y2="4.3963" gradientTransform="matrix(1 0 0 -1 0 32.9553)">
				<stop  offset="0.3749" style="stop-color:#FFFFFF"/>
				<stop  offset="0.9814" style="stop-color:#2F4457"/>
			</linearGradient>
			<path class="st27" d="M53.2,26.6c0,0.9-0.9,1.7-2,1.7h-5.3c-1.1,0-2-0.8-2-1.7c0-0.9,0.9-1.7,2-1.7h5.3
				C52.3,24.8,53.2,25.6,53.2,26.6z"/>
		</g>
	</g>
</g>
</svg>
