<?xml version="1.0" encoding="utf-8"?>
<!-- Generator: Adobe Illustrator 18.1.0, SVG Export Plug-In . SVG Version: 6.00 Build 0)  -->
<svg version="1.1" id="图层_1" xmlns="http://www.w3.org/2000/svg" xmlns:xlink="http://www.w3.org/1999/xlink" x="0px" y="0px"
	 width="56px" height="41px" viewBox="20 -12 56 41" enable-background="new 20 -12 56 41" xml:space="preserve">
<g transform="translate(1,1.02)">
	
		<linearGradient id="shape1_1_" gradientUnits="userSpaceOnUse" x1="-1045.9999" y1="-1113.5571" x2="-1045.9999" y2="-1113.9236" gradientTransform="matrix(-93.5828 0 0 -68.3874 -97841.1406 -76155.9141)">
		<stop  offset="0" style="stop-color:#398C8E"/>
		<stop  offset="0.15" style="stop-color:#67C3C5"/>
		<stop  offset="0.25" style="stop-color:#BBDEE0"/>
		<stop  offset="0.52" style="stop-color:#45A6A9"/>
		<stop  offset="0.69" style="stop-color:#3C9396"/>
		<stop  offset="0.8" style="stop-color:#388B8D"/>
		<stop  offset="0.92" style="stop-color:#358385"/>
		<stop  offset="1" style="stop-color:#3E9799"/>
	</linearGradient>
	<path id="shape1" fill="url(#shape1_1_)" d="M63.6,22.4H29.3V-2.7h34.3V22.4z"/>
	
		<linearGradient id="shape2_1_" gradientUnits="userSpaceOnUse" x1="-899.8589" y1="-1111.4717" x2="-899.8589" y2="-1111.8381" gradientTransform="matrix(-3.2994 0 0 -84.8844 -2904.804 -94351.8359)">
		<stop  offset="0" style="stop-color:#398C8E"/>
		<stop  offset="0.15" style="stop-color:#67C3C5"/>
		<stop  offset="0.25" style="stop-color:#BBDEE0"/>
		<stop  offset="0.52" style="stop-color:#45A6A9"/>
		<stop  offset="0.69" style="stop-color:#3C9396"/>
		<stop  offset="0.8" style="stop-color:#388B8D"/>
		<stop  offset="0.92" style="stop-color:#358385"/>
		<stop  offset="1" style="stop-color:#3E9799"/>
	</linearGradient>
	<path id="shape2" fill="url(#shape2_1_)" d="M64.8-4.8v29.9c0,0.3-0.3,0.6-0.6,0.6c-0.3,0-0.6-0.3-0.6-0.6V-4.8
		c0-0.3,0.3-0.6,0.6-0.6C64.5-5.3,64.8-5.1,64.8-4.8z"/>
	
		<linearGradient id="shape3_1_" gradientUnits="userSpaceOnUse" x1="-1013.5654" y1="-1122.4073" x2="-1013.5654" y2="-1122.7755" gradientTransform="matrix(-13.6975 0 0 -37.3931 -13810.9775 -41966.9805)">
		<stop  offset="0" style="stop-color:#BDBDBD"/>
		<stop  offset="0.15" style="stop-color:#FFFFFF"/>
		<stop  offset="0.25" style="stop-color:#FFFFFF"/>
		<stop  offset="0.52" style="stop-color:#DFDFDF"/>
		<stop  offset="0.69" style="stop-color:#C7C7C7"/>
		<stop  offset="0.8" style="stop-color:#BCBCBC"/>
		<stop  offset="0.92" style="stop-color:#B1B1B1"/>
		<stop  offset="1" style="stop-color:#CBCBCB"/>
	</linearGradient>
	<path id="shape3" fill="url(#shape3_1_)" d="M74.8,3.9l0,12.6c0,0.3-0.3,0.5-0.6,0.5h-4.4V3.4h4.4C74.6,3.4,74.8,3.6,74.8,3.9z"/>
	
		<linearGradient id="shape4_1_" gradientUnits="userSpaceOnUse" x1="-1014.4633" y1="-1111.4498" x2="-1014.4633" y2="-1111.8162" gradientTransform="matrix(-13.7975 0 0 -85.0843 -13929.7188 -94572.375)">
		<stop  offset="0" style="stop-color:#398C8E"/>
		<stop  offset="0.15" style="stop-color:#67C3C5"/>
		<stop  offset="0.25" style="stop-color:#BBDEE0"/>
		<stop  offset="0.52" style="stop-color:#45A6A9"/>
		<stop  offset="0.69" style="stop-color:#3C9396"/>
		<stop  offset="0.8" style="stop-color:#388B8D"/>
		<stop  offset="0.92" style="stop-color:#358385"/>
		<stop  offset="1" style="stop-color:#3E9799"/>
	</linearGradient>
	<path id="shape4" fill="url(#shape4_1_)" d="M69.9-4.8v30c0,0.3-0.3,0.6-0.6,0.6h-3.9c-0.3,0-0.6-0.3-0.6-0.6v-30
		c0-0.3,0.3-0.6,0.6-0.6h3.9C69.6-5.4,69.9-5.1,69.9-4.8z"/>
	
		<linearGradient id="shape5_1_" gradientUnits="userSpaceOnUse" x1="-1017.2805" y1="-1113.5571" x2="-1017.2805" y2="-1113.9235" gradientTransform="matrix(-12.5977 0 0 -68.3874 -12793.9326 -76155.9141)">
		<stop  offset="0" style="stop-color:#398C8E"/>
		<stop  offset="0.15" style="stop-color:#67C3C5"/>
		<stop  offset="0.25" style="stop-color:#BBDEE0"/>
		<stop  offset="0.52" style="stop-color:#45A6A9"/>
		<stop  offset="0.69" style="stop-color:#3C9396"/>
		<stop  offset="0.8" style="stop-color:#388B8D"/>
		<stop  offset="0.92" style="stop-color:#358385"/>
		<stop  offset="1" style="stop-color:#3E9799"/>
	</linearGradient>
	<path id="shape5" fill="url(#shape5_1_)" d="M23.8,22.4h-1.4c0,0-3.2,0-3.2-12.5c0-12.6,3.2-12.5,3.2-12.5h1.4V22.4z"/>
	
		<linearGradient id="shape6_1_" gradientUnits="userSpaceOnUse" x1="-1040.0043" y1="-1162.7517" x2="-1040.0043" y2="-1163.118" gradientTransform="matrix(-43.292 0 0 -12.5977 -44972.7773 -14653.6621)">
		<stop  offset="0" style="stop-color:#368688"/>
		<stop  offset="3.000000e-002" style="stop-color:#8CCDCF"/>
		<stop  offset="8.000000e-002" style="stop-color:#49AFB2"/>
		<stop  offset="0.64" style="stop-color:#48ACAF"/>
		<stop  offset="0.95" style="stop-color:#46A8AB"/>
		<stop  offset="1" style="stop-color:#317C7E"/>
	</linearGradient>
	<path id="shape6" fill="url(#shape6_1_)" d="M59-5.7H43.2v4.6H59V-5.7z"/>
	
		<linearGradient id="shape7_1_" gradientUnits="userSpaceOnUse" x1="-1041.1542" y1="-1246.3209" x2="-1041.1542" y2="-1246.687" gradientTransform="matrix(-48.2911 0 0 -5.299 -50227.6914 -6611.873)">
		<stop  offset="0" style="stop-color:#B5B5B5"/>
		<stop  offset="3.000000e-002" style="stop-color:#FFFFFF"/>
		<stop  offset="8.000000e-002" style="stop-color:#EBEBEB"/>
		<stop  offset="0.64" style="stop-color:#E7E7E7"/>
		<stop  offset="0.95" style="stop-color:#E2E2E2"/>
		<stop  offset="1" style="stop-color:#A8A8A8"/>
	</linearGradient>
	<path id="shape7" fill="url(#shape7_1_)" d="M59.6-7v0.8c0,0.3-0.3,0.6-0.6,0.6H42.5c-0.3,0-0.6-0.3-0.6-0.6V-7
		c0-0.3,0.3-0.6,0.6-0.6H59C59.4-7.6,59.6-7.4,59.6-7z"/>
	
		<linearGradient id="shape8_1_" gradientUnits="userSpaceOnUse" x1="-1041.1542" y1="-1246.9586" x2="-1041.1542" y2="-1247.3243" gradientTransform="matrix(-48.2911 0 0 -5.299 -50227.6914 -6617.2168)">
		<stop  offset="0" style="stop-color:#B5B5B5"/>
		<stop  offset="3.000000e-002" style="stop-color:#FFFFFF"/>
		<stop  offset="8.000000e-002" style="stop-color:#EBEBEB"/>
		<stop  offset="0.64" style="stop-color:#E7E7E7"/>
		<stop  offset="0.95" style="stop-color:#E2E2E2"/>
		<stop  offset="1" style="stop-color:#A8A8A8"/>
	</linearGradient>
	<path id="shape8" fill="url(#shape8_1_)" d="M59.6-9v0.8c0,0.3-0.3,0.6-0.6,0.6H42.5c-0.3,0-0.6-0.3-0.6-0.6V-9
		c0-0.3,0.3-0.6,0.6-0.6H59C59.4-9.6,59.6-9.3,59.6-9z"/>
	
		<linearGradient id="shape9_1_" gradientUnits="userSpaceOnUse" x1="-1041.1542" y1="-1247.5953" x2="-1041.1542" y2="-1247.9615" gradientTransform="matrix(-48.2911 0 0 -5.299 -50227.6914 -6622.5371)">
		<stop  offset="0" style="stop-color:#B5B5B5"/>
		<stop  offset="3.000000e-002" style="stop-color:#FFFFFF"/>
		<stop  offset="8.000000e-002" style="stop-color:#EBEBEB"/>
		<stop  offset="0.64" style="stop-color:#E7E7E7"/>
		<stop  offset="0.95" style="stop-color:#E2E2E2"/>
		<stop  offset="1" style="stop-color:#A8A8A8"/>
	</linearGradient>
	<path id="shape9" fill="url(#shape9_1_)" d="M59.6-10.9v0.8c0,0.3-0.3,0.6-0.6,0.6H42.5c-0.3,0-0.6-0.3-0.6-0.6v-0.8
		c0-0.3,0.3-0.6,0.6-0.6H59C59.4-11.5,59.6-11.3,59.6-10.9z"/>
	
		<linearGradient id="shape10_1_" gradientUnits="userSpaceOnUse" x1="-1001.373" y1="-1178.4231" x2="-1001.7397" y2="-1178.4231" gradientTransform="matrix(-10.1981 0 0 -10.0981 -10146.5625 -11907.0742)">
		<stop  offset="0" style="stop-color:#398C8E"/>
		<stop  offset="0.15" style="stop-color:#67C3C5"/>
		<stop  offset="0.25" style="stop-color:#BBDEE0"/>
		<stop  offset="0.52" style="stop-color:#45A6A9"/>
		<stop  offset="0.69" style="stop-color:#3C9396"/>
		<stop  offset="0.8" style="stop-color:#388B8D"/>
		<stop  offset="0.92" style="stop-color:#358385"/>
		<stop  offset="1" style="stop-color:#3E9799"/>
	</linearGradient>
	<path id="shape10" fill="url(#shape10_1_)" d="M69.3-9.1h-3.7v3.7h3.7V-9.1z"/>
	
		<linearGradient id="shape11_1_" gradientUnits="userSpaceOnUse" x1="-1019.5101" y1="-1172.8518" x2="-1019.8765" y2="-1172.8518" gradientTransform="matrix(-16.097 0 0 -10.998 -16346.7393 -12910.0527)">
		<stop  offset="0" style="stop-color:#398C8E"/>
		<stop  offset="0.15" style="stop-color:#67C3C5"/>
		<stop  offset="0.25" style="stop-color:#BBDEE0"/>
		<stop  offset="0.52" style="stop-color:#45A6A9"/>
		<stop  offset="0.69" style="stop-color:#3C9396"/>
		<stop  offset="0.8" style="stop-color:#388B8D"/>
		<stop  offset="0.92" style="stop-color:#358385"/>
		<stop  offset="1" style="stop-color:#3E9799"/>
	</linearGradient>
	<path id="shape11" fill="url(#shape11_1_)" d="M70.2-12.5v2.9c0,0.3-0.3,0.6-0.6,0.6h-4.7c-0.3,0-0.6-0.3-0.6-0.6v-2.9
		c0-0.3,0.3-0.6,0.6-0.6h4.7C69.9-13,70.2-12.8,70.2-12.5z"/>
	
		<linearGradient id="shape12_1_" gradientUnits="userSpaceOnUse" x1="-1026.7264" y1="-1148.9556" x2="-1026.7264" y2="-1149.322" gradientTransform="matrix(-20.0963 0 0 -15.2972 -20575.4941 -17553.4277)">
		<stop  offset="0" style="stop-color:#368688"/>
		<stop  offset="3.000000e-002" style="stop-color:#8CCDCF"/>
		<stop  offset="8.000000e-002" style="stop-color:#49AFB2"/>
		<stop  offset="0.64" style="stop-color:#48ACAF"/>
		<stop  offset="0.95" style="stop-color:#46A8AB"/>
		<stop  offset="1" style="stop-color:#317C7E"/>
	</linearGradient>
	<path id="shape12" fill="url(#shape12_1_)" d="M61.6,23v4.4c0,0.3-0.3,0.6-0.6,0.6h-6.2c-0.3,0-0.6-0.3-0.6-0.6V23
		c0-0.3,0.3-0.6,0.6-0.6H61C61.3,22.4,61.6,22.6,61.6,23z"/>
	
		<linearGradient id="shape13_1_" gradientUnits="userSpaceOnUse" x1="-1029.3456" y1="-1148.9556" x2="-1029.3456" y2="-1149.322" gradientTransform="matrix(-20.0963 0 0 -15.2972 -20658.5723 -17553.4277)">
		<stop  offset="0" style="stop-color:#368688"/>
		<stop  offset="3.000000e-002" style="stop-color:#8CCDCF"/>
		<stop  offset="8.000000e-002" style="stop-color:#49AFB2"/>
		<stop  offset="0.64" style="stop-color:#48ACAF"/>
		<stop  offset="0.95" style="stop-color:#46A8AB"/>
		<stop  offset="1" style="stop-color:#317C7E"/>
	</linearGradient>
	<path id="shape13" fill="url(#shape13_1_)" d="M31.1,23v4.4c0,0.3-0.3,0.6-0.6,0.6h-6.2c-0.3,0-0.6-0.3-0.6-0.6V23
		c0-0.3,0.3-0.6,0.6-0.6h6.2C30.9,22.4,31.1,22.6,31.1,23z"/>
	
		<linearGradient id="shape14_1_" gradientUnits="userSpaceOnUse" x1="-1045.2927" y1="-1571.6692" x2="-1045.2927" y2="-1572.0369" gradientTransform="matrix(-81.285 0 0 -1.5997 -84922.5 -2515.2214)">
		<stop  offset="0" style="stop-color:#398C8E"/>
		<stop  offset="0.15" style="stop-color:#67C3C5"/>
		<stop  offset="0.25" style="stop-color:#BBDEE0"/>
		<stop  offset="0.52" style="stop-color:#45A6A9"/>
		<stop  offset="0.69" style="stop-color:#3C9396"/>
		<stop  offset="0.8" style="stop-color:#388B8D"/>
		<stop  offset="0.92" style="stop-color:#358385"/>
		<stop  offset="1" style="stop-color:#3E9799"/>
	</linearGradient>
	<path id="shape14" fill="url(#shape14_1_)" d="M59-0.4H29.2V-1H59V-0.4z"/>
	
		<linearGradient id="shape15_1_" gradientUnits="userSpaceOnUse" x1="-1011.4973" y1="-1113.5571" x2="-1011.4973" y2="-1113.9236" gradientTransform="matrix(-12.4977 0 0 -68.3874 -12580.0811 -76155.9141)">
		<stop  offset="0" style="stop-color:#398C8E"/>
		<stop  offset="0.15" style="stop-color:#67C3C5"/>
		<stop  offset="0.25" style="stop-color:#BBDEE0"/>
		<stop  offset="0.52" style="stop-color:#45A6A9"/>
		<stop  offset="0.69" style="stop-color:#3C9396"/>
		<stop  offset="0.8" style="stop-color:#388B8D"/>
		<stop  offset="0.92" style="stop-color:#358385"/>
		<stop  offset="1" style="stop-color:#3E9799"/>
	</linearGradient>
	<path id="shape15" fill="url(#shape15_1_)" d="M63.6,22.4H59V-2.7h4.6V22.4z"/>
	
		<linearGradient id="shape16_1_" gradientUnits="userSpaceOnUse" x1="-1045.2927" y1="-1264.5365" x2="-1045.2927" y2="-1264.9027" gradientTransform="matrix(-81.285 0 0 -4.3992 -84922.5 -5542.0957)">
		<stop  offset="0" style="stop-color:#368688"/>
		<stop  offset="3.000000e-002" style="stop-color:#8CCDCF"/>
		<stop  offset="8.000000e-002" style="stop-color:#49AFB2"/>
		<stop  offset="0.64" style="stop-color:#48ACAF"/>
		<stop  offset="0.95" style="stop-color:#46A8AB"/>
		<stop  offset="1" style="stop-color:#317C7E"/>
	</linearGradient>
	<path id="shape16" fill="url(#shape16_1_)" d="M59,22.5H29.2v-1.6H59V22.5z"/>
	
		<linearGradient id="shape17_1_" gradientUnits="userSpaceOnUse" x1="-1022.2817" y1="-1113.5571" x2="-1022.2817" y2="-1113.9236" gradientTransform="matrix(-15.0972 0 0 -68.3874 -15407.0557 -76155.9141)">
		<stop  offset="0" style="stop-color:#398C8E"/>
		<stop  offset="0.15" style="stop-color:#67C3C5"/>
		<stop  offset="0.25" style="stop-color:#BBDEE0"/>
		<stop  offset="0.52" style="stop-color:#45A6A9"/>
		<stop  offset="0.69" style="stop-color:#3C9396"/>
		<stop  offset="0.8" style="stop-color:#388B8D"/>
		<stop  offset="0.92" style="stop-color:#358385"/>
		<stop  offset="1" style="stop-color:#3E9799"/>
	</linearGradient>
	<path id="shape17" fill="url(#shape17_1_)" d="M29.3,22.4h-5.5V-2.7h5.5V22.4z"/>
	
		<linearGradient id="shape18_1_" gradientUnits="userSpaceOnUse" x1="-1045.2927" y1="-1568.0149" x2="-1045.2927" y2="-1568.3806" gradientTransform="matrix(-81.285 0 0 -1.5997 -84922.5 -2505.9929)">
		<stop  offset="0" style="stop-color:#398C8E"/>
		<stop  offset="0.15" style="stop-color:#67C3C5"/>
		<stop  offset="0.25" style="stop-color:#BBDEE0"/>
		<stop  offset="0.52" style="stop-color:#45A6A9"/>
		<stop  offset="0.69" style="stop-color:#3C9396"/>
		<stop  offset="0.8" style="stop-color:#388B8D"/>
		<stop  offset="0.92" style="stop-color:#358385"/>
		<stop  offset="1" style="stop-color:#3E9799"/>
	</linearGradient>
	<path id="shape18" fill="url(#shape18_1_)" d="M59,2.9H29.2V2.4H59V2.9z"/>
	
		<linearGradient id="shape19_1_" gradientUnits="userSpaceOnUse" x1="-1045.2927" y1="-1564.3645" x2="-1045.2927" y2="-1564.7322" gradientTransform="matrix(-81.285 0 0 -1.5997 -84922.5 -2496.7761)">
		<stop  offset="0" style="stop-color:#398C8E"/>
		<stop  offset="0.15" style="stop-color:#67C3C5"/>
		<stop  offset="0.25" style="stop-color:#BBDEE0"/>
		<stop  offset="0.52" style="stop-color:#45A6A9"/>
		<stop  offset="0.69" style="stop-color:#3C9396"/>
		<stop  offset="0.8" style="stop-color:#388B8D"/>
		<stop  offset="0.92" style="stop-color:#358385"/>
		<stop  offset="1" style="stop-color:#3E9799"/>
	</linearGradient>
	<path id="shape19" fill="url(#shape19_1_)" d="M59,6.3H29.2V5.7H59V6.3z"/>
	
		<linearGradient id="shape20_1_" gradientUnits="userSpaceOnUse" x1="-1045.2927" y1="-1560.7092" x2="-1045.2927" y2="-1561.0759" gradientTransform="matrix(-81.285 0 0 -1.5997 -84922.5 -2487.5457)">
		<stop  offset="0" style="stop-color:#398C8E"/>
		<stop  offset="0.15" style="stop-color:#67C3C5"/>
		<stop  offset="0.25" style="stop-color:#BBDEE0"/>
		<stop  offset="0.52" style="stop-color:#45A6A9"/>
		<stop  offset="0.69" style="stop-color:#3C9396"/>
		<stop  offset="0.8" style="stop-color:#388B8D"/>
		<stop  offset="0.92" style="stop-color:#358385"/>
		<stop  offset="1" style="stop-color:#3E9799"/>
	</linearGradient>
	<path id="shape20" fill="url(#shape20_1_)" d="M59,9.7H29.2V9.1H59V9.7z"/>
	
		<linearGradient id="shape21_1_" gradientUnits="userSpaceOnUse" x1="-1045.2927" y1="-1557.053" x2="-1045.2927" y2="-1557.4211" gradientTransform="matrix(-81.285 0 0 -1.5997 -84922.5 -2478.3191)">
		<stop  offset="0" style="stop-color:#398C8E"/>
		<stop  offset="0.15" style="stop-color:#67C3C5"/>
		<stop  offset="0.25" style="stop-color:#BBDEE0"/>
		<stop  offset="0.52" style="stop-color:#45A6A9"/>
		<stop  offset="0.69" style="stop-color:#3C9396"/>
		<stop  offset="0.8" style="stop-color:#388B8D"/>
		<stop  offset="0.92" style="stop-color:#358385"/>
		<stop  offset="1" style="stop-color:#3E9799"/>
	</linearGradient>
	<path id="shape21" fill="url(#shape21_1_)" d="M59,13.1H29.2v-0.6H59V13.1z"/>
	
		<linearGradient id="shape22_1_" gradientUnits="userSpaceOnUse" x1="-1045.2927" y1="-1553.3977" x2="-1045.2927" y2="-1553.7649" gradientTransform="matrix(-81.285 0 0 -1.5997 -84922.5 -2469.0906)">
		<stop  offset="0" style="stop-color:#398C8E"/>
		<stop  offset="0.15" style="stop-color:#67C3C5"/>
		<stop  offset="0.25" style="stop-color:#BBDEE0"/>
		<stop  offset="0.52" style="stop-color:#45A6A9"/>
		<stop  offset="0.69" style="stop-color:#3C9396"/>
		<stop  offset="0.8" style="stop-color:#388B8D"/>
		<stop  offset="0.92" style="stop-color:#358385"/>
		<stop  offset="1" style="stop-color:#3E9799"/>
	</linearGradient>
	<path id="shape22" fill="url(#shape22_1_)" d="M59,16.5H29.2v-0.6H59V16.5z"/>
	
		<linearGradient id="shape23_1_" gradientUnits="userSpaceOnUse" x1="-1045.2927" y1="-1549.7454" x2="-1045.2927" y2="-1550.1104" gradientTransform="matrix(-81.285 0 0 -1.5997 -84922.5 -2459.8621)">
		<stop  offset="0" style="stop-color:#398C8E"/>
		<stop  offset="0.15" style="stop-color:#67C3C5"/>
		<stop  offset="0.25" style="stop-color:#BBDEE0"/>
		<stop  offset="0.52" style="stop-color:#45A6A9"/>
		<stop  offset="0.69" style="stop-color:#3C9396"/>
		<stop  offset="0.8" style="stop-color:#388B8D"/>
		<stop  offset="0.92" style="stop-color:#358385"/>
		<stop  offset="1" style="stop-color:#3E9799"/>
	</linearGradient>
	<path id="shape23" fill="url(#shape23_1_)" d="M59,19.8H29.2v-0.6H59V19.8z"/>
	
		<linearGradient id="shape24_1_" gradientUnits="userSpaceOnUse" x1="-807.7519" y1="-1113.5565" x2="-807.7519" y2="-1113.9237" gradientTransform="matrix(-1.7997 0 0 -68.3874 -1424.7396 -76155.9141)">
		<stop  offset="0" style="stop-color:#287F7F"/>
		<stop  offset="0.15" style="stop-color:#58B3B3"/>
		<stop  offset="0.25" style="stop-color:#B7D7D7"/>
		<stop  offset="0.52" style="stop-color:#319797"/>
		<stop  offset="0.69" style="stop-color:#2A8686"/>
		<stop  offset="0.8" style="stop-color:#277E7E"/>
		<stop  offset="0.92" style="stop-color:#247777"/>
		<stop  offset="1" style="stop-color:#2B8989"/>
	</linearGradient>
	<path id="shape24" fill="url(#shape24_1_)" d="M29.3,22.4h-0.7V-2.7h0.7V22.4z"/>
</g>
</svg>
