<?xml version="1.0" encoding="utf-8"?>
<!-- Generator: Adobe Illustrator 16.0.0, SVG Export Plug-In . SVG Version: 6.00 Build 0)  -->
<!DOCTYPE svg PUBLIC "-//W3C//DTD SVG 1.1//EN" "http://www.w3.org/Graphics/SVG/1.1/DTD/svg11.dtd">
<svg version="1.1" id="图层_1" xmlns="http://www.w3.org/2000/svg" xmlns:xlink="http://www.w3.org/1999/xlink" x="0px" y="0px"
	 width="36px" height="36px" viewBox="0 0 36 36" enable-background="new 0 0 36 36" xml:space="preserve">
<path fill="#12EEFF" d="M23.412,8.771V7.252c0-0.542-0.439-0.98-0.98-0.98s-0.979,0.438-0.979,0.98v1.519h-1.715V7.252
	c0-0.542-0.44-0.98-0.979-0.98c-0.542,0-0.979,0.438-0.979,0.98v1.519h-1.986v-3.96h-0.652V1.362c0-0.54-0.438-0.979-0.979-0.979
	c-0.542,0-0.98,0.44-0.98,0.979v3.449H12.49v4.288h0.054c-1.496,0.635-2.552,2.117-2.552,3.837v7.651c0,1.323,0.626,2.5,1.594,3.265
	c0,0.009-0.001,0.02-0.001,0.026v7.574c0,0.314,0.036,0.619,0.101,0.913c0.419,1.855,2.086,3.252,4.063,3.252h6.022
	c1.976,0,3.643-1.396,4.061-3.252c0.066-0.299,0.102-0.604,0.102-0.913v-7.574c0-0.007-0.001-0.018-0.001-0.026
	c0.968-0.765,1.592-1.941,1.592-3.265v-7.652C27.523,10.663,25.68,8.799,23.412,8.771L23.412,8.771z M24.938,18.326H12.58v-5.653
	h12.358V18.326L24.938,18.326z"/>
</svg>
