<?xml version="1.0" encoding="utf-8"?>
<!-- Generator: Adobe Illustrator 24.1.2, SVG Export Plug-In . SVG Version: 6.00 Build 0)  -->
<svg version="1.1" id="图层_1" xmlns="http://www.w3.org/2000/svg" xmlns:xlink="http://www.w3.org/1999/xlink" x="0px" y="0px"
	 width="36px" height="36px" viewBox="0 0 36 36" enable-background="new 0 0 36 36" xml:space="preserve">
<g>
	<path fill="#12EEFF" d="M28.775,19.521H7.225c-3.803,0-6.972,3.169-6.972,6.972c0,3.803,3.169,6.972,6.972,6.972h0.634V36h20.282
		v-2.535h0.634c3.803,0,6.972-3.169,6.972-6.972C35.747,22.69,32.578,19.521,28.775,19.521L28.775,19.521z M10.394,25.225h15.211
		v2.535H10.394V25.225z M2.155,9.761c0.127,0.127,0.38,0.127,0.634,0.127c0.38,0,0.887-0.254,1.014-0.634
		C6.465,5.197,12.042,2.535,18,2.535c5.958,0,11.409,2.535,14.07,6.592c0.38,0.634,1.141,0.761,1.775,0.38
		c0.634-0.38,0.761-1.141,0.38-1.775C31.056,3.042,24.845,0,18,0C11.155,0,4.817,3.042,1.775,7.986
		C1.394,8.493,1.521,9.38,2.155,9.761L2.155,9.761z M2.155,9.761"/>
	<path fill="#12EEFF" d="M27.127,12.803c0.38,0.634,1.141,0.761,1.775,0.38c0.634-0.38,0.761-1.141,0.38-1.775
		C27,8.113,22.69,6.084,18,6.084c-4.817,0-9.127,2.155-11.282,5.451c-0.38,0.634-0.253,1.394,0.38,1.775
		c0.254,0.127,0.507,0.254,0.634,0.254c0.38,0,0.887-0.254,1.014-0.634c1.902-2.662,5.451-4.31,9.253-4.31
		C21.93,8.62,25.352,10.268,27.127,12.803L27.127,12.803z M27.127,12.803"/>
	<path fill="#12EEFF" d="M18,12.423c-2.662,0-4.944,1.141-6.211,3.042c-0.38,0.634-0.254,1.394,0.38,1.775
		c0.254,0.127,0.507,0.254,0.634,0.254c0.38,0,0.887-0.254,1.014-0.634c0.761-1.141,2.282-1.902,4.056-1.902
		c1.648,0,3.296,0.761,4.056,1.775c0.38,0.634,1.141,0.761,1.775,0.38c0.634-0.38,0.761-1.141,0.38-1.775
		C22.944,13.563,20.535,12.423,18,12.423L18,12.423z M18,12.423"/>
</g>
</svg>
