<?xml version="1.0" encoding="utf-8"?>
<!-- Generator: Adobe Illustrator 24.1.2, SVG Export Plug-In . SVG Version: 6.00 Build 0)  -->
<svg version="1.1" id="图层_1" xmlns="http://www.w3.org/2000/svg" xmlns:xlink="http://www.w3.org/1999/xlink" x="0px" y="0px"
	 width="36px" height="36px" viewBox="0 0 36 36" enable-background="new 0 0 36 36" xml:space="preserve">
<g>
	<g>
		<path fill="#12EEFF" d="M0.154,18.189l5.497,1.191v6.916l9.615-2.769v-2.768h-1.379V18l-5.2-1.131l-2.987-2.828l0.953-5.944
			l17.782,2.848c0.129-0.447,0.278-0.863,0.457-1.221L4.996,6.539l3.235-5.706L10.404,0l18.605,2.977l1.756,0.278l2.004,0.317
			l3.086,0.496l-0.109,2.838l-3.443,3.781l-1.548-0.218l0.754-4.694l2.907,0.467l0.04-1.022L30.24,4.545l-0.238,0.089l-2.967,3.543
			c0.933,0.377,1.409,2.213,1.072,4.287c-0.357,2.233-1.508,3.9-2.58,3.721c-0.506-0.079-0.903-0.565-1.141-1.29l-0.288,1.766
			l2.937,3.126L19.374,18v2.768h-1.369v4.158L5.641,29.074v5.537L0.144,36V18.189H0.154z M26.449,10.419
			c-0.466-0.069-0.962,0.645-1.111,1.617c-0.159,0.963,0.089,1.806,0.556,1.885c0.466,0.07,0.962-0.645,1.111-1.617
			C27.154,11.332,26.906,10.498,26.449,10.419L26.449,10.419z M26.3,19.022l1.022,0.933l3.453-2.143l1.022-6.4l-1.34-0.218
			l-0.923,5.795L26.3,19.022z M26.3,19.022"/>
	</g>
</g>
</svg>
