<?xml version="1.0" encoding="utf-8"?>
<!-- Generator: Adobe Illustrator 24.1.2, SVG Export Plug-In . SVG Version: 6.00 Build 0)  -->
<svg version="1.1" id="图层_1" xmlns="http://www.w3.org/2000/svg" xmlns:xlink="http://www.w3.org/1999/xlink" x="0px" y="0px"
	 width="36px" height="36px" viewBox="0 0 36 36" enable-background="new 0 0 36 36" xml:space="preserve">
<g>
	<path fill="#12EEFF" d="M0,8.054h5.454c6.076,0,9.84,3.145,9.84,9.865c0,6.693-3.765,10.027-9.626,10.027H0V8.054z M5.214,24.748
		c3.708,0,6.019-1.99,6.019-6.829c0-4.866-2.311-6.693-6.019-6.693H3.975v13.522H5.214z"/>
	<path fill="#12EEFF" d="M18.206,17.919c0-6.479,3.629-10.241,8.899-10.241c5.266,0,8.895,3.791,8.895,10.241
		c0,6.452-3.629,10.403-8.895,10.403C21.835,28.322,18.206,24.371,18.206,17.919z M31.942,17.919c0-4.275-1.882-6.827-4.837-6.827
		c-2.959,0-4.837,2.552-4.837,6.827c0,4.248,1.878,6.962,4.837,6.962C30.06,24.881,31.942,22.167,31.942,17.919z"/>
</g>
</svg>
