<?xml version="1.0" encoding="utf-8"?>
<!-- Generator: Adobe Illustrator 24.0.3, SVG Export Plug-In . SVG Version: 6.00 Build 0)  -->
<svg version="1.1" id="图层_1" xmlns="http://www.w3.org/2000/svg" xmlns:xlink="http://www.w3.org/1999/xlink" x="0px" y="0px"
	 width="56px" height="42.5px" viewBox="0 0 56 42.5" style="enable-background:new 0 0 56 42.5;" xml:space="preserve">
<style type="text/css">
	.st0{fill:url(#SVGID_1_);}
	.st1{fill:url(#SVGID_2_);}
	.st2{fill:url(#shape4_1_);}
	.st3{fill:url(#shape4_3_);}
	.st4{fill:url(#SVGID_3_);}
	.st5{fill:url(#shape4_4_);}
	.st6{fill:url(#SVGID_4_);}
	.st7{fill:url(#SVGID_5_);}
	.st8{fill:url(#shape5_1_);}
	.st9{fill:url(#shape6_1_);}
	.st10{fill:url(#shape7_1_);}
	.st11{fill:url(#shape8_1_);}
	.st12{fill:url(#shape9_1_);}
	.st13{fill:url(#shape10_1_);}
	.st14{fill:url(#shape11_1_);}
	.st15{fill:url(#SVGID_6_);}
	.st16{fill:url(#shape5_2_);}
	.st17{fill:url(#shape6_2_);}
	.st18{fill:url(#shape7_2_);}
	.st19{fill:url(#shape8_3_);}
	.st20{fill:url(#shape9_3_);}
	.st21{fill:url(#shape10_3_);}
	.st22{fill:url(#shape11_3_);}
	.st23{fill:url(#SVGID_7_);}
</style>
<linearGradient id="SVGID_1_" gradientUnits="userSpaceOnUse" x1="9.552" y1="36.6496" x2="14.4038" y2="36.6496">
	<stop  offset="0" style="stop-color:#D8EDFF"/>
	<stop  offset="7.405362e-02" style="stop-color:#F0EFEF"/>
	<stop  offset="0.1608" style="stop-color:#BED9F0"/>
	<stop  offset="0.3264" style="stop-color:#19344B"/>
	<stop  offset="0.5535" style="stop-color:#89A4BB"/>
	<stop  offset="0.8267" style="stop-color:#FEFEFE"/>
	<stop  offset="0.9122" style="stop-color:#647F96"/>
	<stop  offset="0.9795" style="stop-color:#D5D9DD"/>
</linearGradient>
<rect x="9.6" y="33.8" class="st0" width="4.9" height="5.8"/>
<linearGradient id="SVGID_2_" gradientUnits="userSpaceOnUse" x1="43.5088" y1="36.6496" x2="48.3606" y2="36.6496">
	<stop  offset="0" style="stop-color:#D8EDFF"/>
	<stop  offset="7.405362e-02" style="stop-color:#F0EFEF"/>
	<stop  offset="0.1608" style="stop-color:#BED9F0"/>
	<stop  offset="0.3264" style="stop-color:#19344B"/>
	<stop  offset="0.5535" style="stop-color:#89A4BB"/>
	<stop  offset="0.8267" style="stop-color:#FEFEFE"/>
	<stop  offset="0.9122" style="stop-color:#647F96"/>
	<stop  offset="0.9795" style="stop-color:#D5D9DD"/>
</linearGradient>
<rect x="43.5" y="33.8" class="st1" width="4.9" height="5.8"/>
<linearGradient id="shape4_1_" gradientUnits="userSpaceOnUse" x1="-1182.6523" y1="322.3975" x2="-1182.6844" y2="322.3975" gradientTransform="matrix(-386.038 0 0 83.8774 -456526.7812 -27006.5039)">
	<stop  offset="0" style="stop-color:#D8EDFF"/>
	<stop  offset="7.405362e-02" style="stop-color:#F0EFEF"/>
	<stop  offset="0.1608" style="stop-color:#BED9F0"/>
	<stop  offset="0.3264" style="stop-color:#19344B"/>
	<stop  offset="0.5535" style="stop-color:#89A4BB"/>
	<stop  offset="0.8267" style="stop-color:#FEFEFE"/>
	<stop  offset="0.9122" style="stop-color:#647F96"/>
	<stop  offset="0.9795" style="stop-color:#D5D9DD"/>
</linearGradient>
<path id="shape4_15_" class="st2" d="M34.4,32.7H22v5.4h12.4V32.7z"/>
<linearGradient id="shape4_3_" gradientUnits="userSpaceOnUse" x1="-1182.6624" y1="322.456" x2="-1182.6746" y2="322.456" gradientTransform="matrix(-386.038 0 0 83.8774 -456526.7812 -27006.5039)">
	<stop  offset="0" style="stop-color:#D8EDFF"/>
	<stop  offset="7.405362e-02" style="stop-color:#F0EFEF"/>
	<stop  offset="0.1608" style="stop-color:#BED9F0"/>
	<stop  offset="0.3264" style="stop-color:#19344B"/>
	<stop  offset="0.5535" style="stop-color:#89A4BB"/>
	<stop  offset="0.8267" style="stop-color:#FEFEFE"/>
	<stop  offset="0.9122" style="stop-color:#647F96"/>
	<stop  offset="0.9795" style="stop-color:#D5D9DD"/>
</linearGradient>
<path id="shape4_11_" class="st3" d="M30.6,38.1h-4.7v4.4h4.7V38.1z"/>
<g>
	<linearGradient id="SVGID_3_" gradientUnits="userSpaceOnUse" x1="28" y1="9.1349" x2="28" y2="34.5236">
		<stop  offset="0" style="stop-color:#D8EDFF"/>
		<stop  offset="7.405362e-02" style="stop-color:#F0EFEF"/>
		<stop  offset="0.1608" style="stop-color:#BED9F0"/>
		<stop  offset="0.3264" style="stop-color:#19344B"/>
		<stop  offset="0.5535" style="stop-color:#89A4BB"/>
		<stop  offset="0.8267" style="stop-color:#FEFEFE"/>
		<stop  offset="0.9122" style="stop-color:#647F96"/>
		<stop  offset="0.9795" style="stop-color:#D5D9DD"/>
	</linearGradient>
	<path class="st4" d="M56,24.9c0,5.4-4.4,9.8-9.8,9.8H9.8c-5.4,0-9.8-4.4-9.8-9.8v-5.9c0-5.4,4.4-9.8,9.8-9.8h36.5
		c5.4,0,9.8,4.4,9.8,9.8V24.9z"/>
</g>
<linearGradient id="shape4_4_" gradientUnits="userSpaceOnUse" x1="-1184.5853" y1="314.1885" x2="-1184.5553" y2="314.1885" gradientTransform="matrix(386.038 0 0 -83.8774 457309.8438 26358.5312)">
	<stop  offset="0" style="stop-color:#D8EDFF"/>
	<stop  offset="7.405362e-02" style="stop-color:#F0EFEF"/>
	<stop  offset="0.1608" style="stop-color:#BED9F0"/>
	<stop  offset="0.3264" style="stop-color:#19344B"/>
	<stop  offset="0.5535" style="stop-color:#89A4BB"/>
	<stop  offset="0.8267" style="stop-color:#FEFEFE"/>
	<stop  offset="0.9122" style="stop-color:#647F96"/>
	<stop  offset="0.9795" style="stop-color:#D5D9DD"/>
</linearGradient>
<path id="shape4_6_" class="st5" d="M14.9,8.8h11.6V1.6H14.9V8.8z"/>
<g id="shape4_12_">
	
		<linearGradient id="SVGID_4_" gradientUnits="userSpaceOnUse" x1="-1184.5853" y1="314.2247" x2="-1184.5552" y2="314.2247" gradientTransform="matrix(386.038 0 0 -83.8774 457309.8438 26358.5312)">
		<stop  offset="0" style="stop-color:#D8EDFF"/>
		<stop  offset="7.405362e-02" style="stop-color:#F0EFEF"/>
		<stop  offset="0.1608" style="stop-color:#BED9F0"/>
		<stop  offset="0.3264" style="stop-color:#19344B"/>
		<stop  offset="0.5535" style="stop-color:#89A4BB"/>
		<stop  offset="0.8267" style="stop-color:#FEFEFE"/>
		<stop  offset="0.9122" style="stop-color:#647F96"/>
		<stop  offset="0.9795" style="stop-color:#D5D9DD"/>
	</linearGradient>
	<path class="st6" d="M14.9,2.7c0,0.9,0.7,1.6,1.6,1.6h8.4c0.9,0,1.6-0.7,1.6-1.6V1.6c0-0.9-0.7-1.6-1.6-1.6h-8.4
		c-0.9,0-1.6,0.7-1.6,1.6V2.7z"/>
</g>
<linearGradient id="SVGID_5_" gradientUnits="userSpaceOnUse" x1="14.8886" y1="8.9825" x2="26.5233" y2="8.9825">
	<stop  offset="0" style="stop-color:#D8EDFF"/>
	<stop  offset="7.405362e-02" style="stop-color:#F0EFEF"/>
	<stop  offset="0.1608" style="stop-color:#BED9F0"/>
	<stop  offset="0.3264" style="stop-color:#19344B"/>
	<stop  offset="0.5535" style="stop-color:#89A4BB"/>
	<stop  offset="0.8267" style="stop-color:#FEFEFE"/>
	<stop  offset="0.9122" style="stop-color:#647F96"/>
	<stop  offset="0.9795" style="stop-color:#D5D9DD"/>
</linearGradient>
<ellipse class="st7" cx="20.7" cy="9" rx="5.8" ry="2"/>
<g>
	<g transform="translate(17.56,0.02)">
		
			<linearGradient id="shape5_1_" gradientUnits="userSpaceOnUse" x1="-1164.9377" y1="330.0617" x2="-1164.9642" y2="330.0617" gradientTransform="matrix(39.4123 0 0 -120.2579 45909.5859 39697.8359)">
			<stop  offset="0" style="stop-color:#D8EDFF"/>
			<stop  offset="7.405362e-02" style="stop-color:#F0EFEF"/>
			<stop  offset="0.1608" style="stop-color:#BED9F0"/>
			<stop  offset="0.3264" style="stop-color:#19344B"/>
			<stop  offset="0.5535" style="stop-color:#89A4BB"/>
			<stop  offset="0.8267" style="stop-color:#FEFEFE"/>
			<stop  offset="0.9122" style="stop-color:#647F96"/>
			<stop  offset="0.9795" style="stop-color:#D5D9DD"/>
		</linearGradient>
		<path id="shape5_4_" class="st8" d="M-4.3,3.7h0.8c0.1,0,0.1,0.1,0.1,0.1v3c0,0.1-0.1,0.1-0.1,0.1h-0.8c-0.1,0-0.1-0.1-0.1-0.1v-3
			C-4.3,3.8-4.3,3.7-4.3,3.7z"/>
		
			<linearGradient id="shape6_1_" gradientUnits="userSpaceOnUse" x1="-1167.4935" y1="330.0617" x2="-1167.52" y2="330.0617" gradientTransform="matrix(39.4123 0 0 -120.2579 46013.0547 39697.8359)">
			<stop  offset="0" style="stop-color:#D8EDFF"/>
			<stop  offset="7.405362e-02" style="stop-color:#F0EFEF"/>
			<stop  offset="0.1608" style="stop-color:#BED9F0"/>
			<stop  offset="0.3264" style="stop-color:#19344B"/>
			<stop  offset="0.5535" style="stop-color:#89A4BB"/>
			<stop  offset="0.8267" style="stop-color:#FEFEFE"/>
			<stop  offset="0.9122" style="stop-color:#647F96"/>
			<stop  offset="0.9795" style="stop-color:#D5D9DD"/>
		</linearGradient>
		<path id="shape6_4_" class="st9" d="M-1.5,3.7h0.8c0.1,0,0.1,0.1,0.1,0.1v3c0,0.1-0.1,0.1-0.1,0.1h-0.8c-0.1,0-0.1-0.1-0.1-0.1v-3
			C-1.6,3.8-1.6,3.7-1.5,3.7z"/>
		
			<linearGradient id="shape7_1_" gradientUnits="userSpaceOnUse" x1="-1170.0494" y1="330.0617" x2="-1170.0758" y2="330.0617" gradientTransform="matrix(39.4123 0 0 -120.2579 46116.5234 39697.8359)">
			<stop  offset="0" style="stop-color:#D8EDFF"/>
			<stop  offset="7.405362e-02" style="stop-color:#F0EFEF"/>
			<stop  offset="0.1608" style="stop-color:#BED9F0"/>
			<stop  offset="0.3264" style="stop-color:#19344B"/>
			<stop  offset="0.5535" style="stop-color:#89A4BB"/>
			<stop  offset="0.8267" style="stop-color:#FEFEFE"/>
			<stop  offset="0.9122" style="stop-color:#647F96"/>
			<stop  offset="0.9795" style="stop-color:#D5D9DD"/>
		</linearGradient>
		<path id="shape7_4_" class="st10" d="M1.2,3.7h0.8c0.1,0,0.1,0.1,0.1,0.1v3c0,0.1-0.1,0.1-0.1,0.1H1.2c-0.1,0-0.1-0.1-0.1-0.1v-3
			C1.2,3.8,1.2,3.7,1.2,3.7z"/>
		
			<linearGradient id="shape8_1_" gradientUnits="userSpaceOnUse" x1="-1172.606" y1="330.0617" x2="-1172.6324" y2="330.0617" gradientTransform="matrix(39.4123 0 0 -120.2579 46220.0234 39697.8359)">
			<stop  offset="0" style="stop-color:#D8EDFF"/>
			<stop  offset="7.405362e-02" style="stop-color:#F0EFEF"/>
			<stop  offset="0.1608" style="stop-color:#BED9F0"/>
			<stop  offset="0.3264" style="stop-color:#19344B"/>
			<stop  offset="0.5535" style="stop-color:#89A4BB"/>
			<stop  offset="0.8267" style="stop-color:#FEFEFE"/>
			<stop  offset="0.9122" style="stop-color:#647F96"/>
			<stop  offset="0.9795" style="stop-color:#D5D9DD"/>
		</linearGradient>
		<path id="shape8_2_" class="st11" d="M4,3.7h0.8C4.9,3.7,5,3.8,5,3.8v3c0,0.1-0.1,0.1-0.1,0.1H4C3.9,6.9,3.9,6.8,3.9,6.7v-3
			C3.9,3.8,3.9,3.7,4,3.7z"/>
		
			<linearGradient id="shape9_1_" gradientUnits="userSpaceOnUse" x1="-1175.1594" y1="330.0617" x2="-1175.1859" y2="330.0617" gradientTransform="matrix(39.4123 0 0 -120.2579 46323.3984 39697.8359)">
			<stop  offset="0" style="stop-color:#D8EDFF"/>
			<stop  offset="7.405362e-02" style="stop-color:#F0EFEF"/>
			<stop  offset="0.1608" style="stop-color:#BED9F0"/>
			<stop  offset="0.3264" style="stop-color:#19344B"/>
			<stop  offset="0.5535" style="stop-color:#89A4BB"/>
			<stop  offset="0.8267" style="stop-color:#FEFEFE"/>
			<stop  offset="0.9122" style="stop-color:#647F96"/>
			<stop  offset="0.9795" style="stop-color:#D5D9DD"/>
		</linearGradient>
		<path id="shape9_2_" class="st12" d="M6.7,3.7h0.8c0.1,0,0.1,0.1,0.1,0.1v3c0,0.1-0.1,0.1-0.1,0.1H6.7C6.7,6.9,6.6,6.8,6.6,6.7v-3
			C6.6,3.8,6.7,3.7,6.7,3.7z"/>
		
			<linearGradient id="shape10_1_" gradientUnits="userSpaceOnUse" x1="-1177.7159" y1="330.0617" x2="-1177.7424" y2="330.0617" gradientTransform="matrix(39.4123 0 0 -120.2579 46426.8984 39697.8359)">
			<stop  offset="0" style="stop-color:#D8EDFF"/>
			<stop  offset="7.405362e-02" style="stop-color:#F0EFEF"/>
			<stop  offset="0.1608" style="stop-color:#BED9F0"/>
			<stop  offset="0.3264" style="stop-color:#19344B"/>
			<stop  offset="0.5535" style="stop-color:#89A4BB"/>
			<stop  offset="0.8267" style="stop-color:#FEFEFE"/>
			<stop  offset="0.9122" style="stop-color:#647F96"/>
			<stop  offset="0.9795" style="stop-color:#D5D9DD"/>
		</linearGradient>
		<path id="shape10_2_" class="st13" d="M9.5,3.7h0.8c0.1,0,0.1,0.1,0.1,0.1v3c0,0.1-0.1,0.1-0.1,0.1H9.5C9.4,6.9,9.4,6.8,9.4,6.7
			v-3C9.4,3.8,9.4,3.7,9.5,3.7z"/>
	</g>
	
		<linearGradient id="shape11_1_" gradientUnits="userSpaceOnUse" x1="-1187.1393" y1="283.6911" x2="-1187.1677" y2="283.6911" gradientTransform="matrix(589.1627 0 0 -54.5708 699447.3125 15486.5078)">
		<stop  offset="0" style="stop-color:#D8EDFF"/>
		<stop  offset="7.405362e-02" style="stop-color:#F0EFEF"/>
		<stop  offset="0.1608" style="stop-color:#BED9F0"/>
		<stop  offset="0.3264" style="stop-color:#19344B"/>
		<stop  offset="0.5535" style="stop-color:#89A4BB"/>
		<stop  offset="0.8267" style="stop-color:#FEFEFE"/>
		<stop  offset="0.9122" style="stop-color:#647F96"/>
		<stop  offset="0.9795" style="stop-color:#D5D9DD"/>
	</linearGradient>
	<path id="shape11_2_" class="st14" d="M12.6,4.4h16.2c0.1,0,0.3,0.2,0.3,0.3v1.1c0,0.2-0.1,0.3-0.3,0.3H12.6
		c-0.1,0-0.3-0.2-0.3-0.3V4.7C12.3,4.5,12.5,4.4,12.6,4.4z"/>
	<linearGradient id="SVGID_6_" gradientUnits="userSpaceOnUse" x1="12.3043" y1="5.2549" x2="29.1219" y2="5.2549">
		<stop  offset="0" style="stop-color:#D8EDFF"/>
		<stop  offset="7.405362e-02" style="stop-color:#F0EFEF"/>
		<stop  offset="0.1608" style="stop-color:#BED9F0"/>
		<stop  offset="0.3264" style="stop-color:#19344B"/>
		<stop  offset="0.5535" style="stop-color:#89A4BB"/>
		<stop  offset="0.8267" style="stop-color:#FEFEFE"/>
		<stop  offset="0.9122" style="stop-color:#647F96"/>
		<stop  offset="0.9795" style="stop-color:#D5D9DD"/>
	</linearGradient>
	<rect x="12.3" y="5.1" class="st15" width="16.8" height="0.3"/>
</g>
<g>
	<g transform="translate(17.56,0.02)">
		
			<linearGradient id="shape5_2_" gradientUnits="userSpaceOnUse" x1="-1164.7484" y1="329.7927" x2="-1164.7748" y2="329.7927" gradientTransform="matrix(39.4123 0 0 -120.2579 45909.5859 39697.8359)">
			<stop  offset="0" style="stop-color:#D8EDFF"/>
			<stop  offset="7.405362e-02" style="stop-color:#F0EFEF"/>
			<stop  offset="0.1608" style="stop-color:#BED9F0"/>
			<stop  offset="0.3264" style="stop-color:#19344B"/>
			<stop  offset="0.5535" style="stop-color:#89A4BB"/>
			<stop  offset="0.8267" style="stop-color:#FEFEFE"/>
			<stop  offset="0.9122" style="stop-color:#647F96"/>
			<stop  offset="0.9795" style="stop-color:#D5D9DD"/>
		</linearGradient>
		<path id="shape5_9_" class="st16" d="M3.2,36H4c0.1,0,0.1,0.1,0.1,0.1v3c0,0.1-0.1,0.1-0.1,0.1H3.2c-0.1,0-0.1-0.1-0.1-0.1v-3
			C3.1,36.1,3.2,36,3.2,36z"/>
		
			<linearGradient id="shape6_2_" gradientUnits="userSpaceOnUse" x1="-1167.3042" y1="329.7927" x2="-1167.3307" y2="329.7927" gradientTransform="matrix(39.4123 0 0 -120.2579 46013.0547 39697.8359)">
			<stop  offset="0" style="stop-color:#D8EDFF"/>
			<stop  offset="7.405362e-02" style="stop-color:#F0EFEF"/>
			<stop  offset="0.1608" style="stop-color:#BED9F0"/>
			<stop  offset="0.3264" style="stop-color:#19344B"/>
			<stop  offset="0.5535" style="stop-color:#89A4BB"/>
			<stop  offset="0.8267" style="stop-color:#FEFEFE"/>
			<stop  offset="0.9122" style="stop-color:#647F96"/>
			<stop  offset="0.9795" style="stop-color:#D5D9DD"/>
		</linearGradient>
		<path id="shape6_7_" class="st17" d="M6,36h0.8c0.1,0,0.1,0.1,0.1,0.1v3c0,0.1-0.1,0.1-0.1,0.1H6c-0.1,0-0.1-0.1-0.1-0.1v-3
			C5.9,36.1,5.9,36,6,36z"/>
		
			<linearGradient id="shape7_2_" gradientUnits="userSpaceOnUse" x1="-1169.86" y1="329.7927" x2="-1169.8865" y2="329.7927" gradientTransform="matrix(39.4123 0 0 -120.2579 46116.5234 39697.8359)">
			<stop  offset="0" style="stop-color:#D8EDFF"/>
			<stop  offset="7.405362e-02" style="stop-color:#F0EFEF"/>
			<stop  offset="0.1608" style="stop-color:#BED9F0"/>
			<stop  offset="0.3264" style="stop-color:#19344B"/>
			<stop  offset="0.5535" style="stop-color:#89A4BB"/>
			<stop  offset="0.8267" style="stop-color:#FEFEFE"/>
			<stop  offset="0.9122" style="stop-color:#647F96"/>
			<stop  offset="0.9795" style="stop-color:#D5D9DD"/>
		</linearGradient>
		<path id="shape7_7_" class="st18" d="M8.7,36h0.8c0.1,0,0.1,0.1,0.1,0.1v3c0,0.1-0.1,0.1-0.1,0.1H8.7c-0.1,0-0.1-0.1-0.1-0.1v-3
			C8.6,36.1,8.6,36,8.7,36z"/>
		
			<linearGradient id="shape8_3_" gradientUnits="userSpaceOnUse" x1="-1172.4165" y1="329.7927" x2="-1172.443" y2="329.7927" gradientTransform="matrix(39.4123 0 0 -120.2579 46220.0234 39697.8359)">
			<stop  offset="0" style="stop-color:#D8EDFF"/>
			<stop  offset="7.405362e-02" style="stop-color:#F0EFEF"/>
			<stop  offset="0.1608" style="stop-color:#BED9F0"/>
			<stop  offset="0.3264" style="stop-color:#19344B"/>
			<stop  offset="0.5535" style="stop-color:#89A4BB"/>
			<stop  offset="0.8267" style="stop-color:#FEFEFE"/>
			<stop  offset="0.9122" style="stop-color:#647F96"/>
			<stop  offset="0.9795" style="stop-color:#D5D9DD"/>
		</linearGradient>
		<path id="shape8_7_" class="st19" d="M11.5,36h0.8c0.1,0,0.1,0.1,0.1,0.1v3c0,0.1-0.1,0.1-0.1,0.1h-0.8c-0.1-0.1-0.1-0.1-0.1-0.2
			v-3C11.3,36.1,11.4,36,11.5,36z"/>
		
			<linearGradient id="shape9_3_" gradientUnits="userSpaceOnUse" x1="-1174.9701" y1="329.7927" x2="-1174.9965" y2="329.7927" gradientTransform="matrix(39.4123 0 0 -120.2579 46323.3984 39697.8359)">
			<stop  offset="0" style="stop-color:#D8EDFF"/>
			<stop  offset="7.405362e-02" style="stop-color:#F0EFEF"/>
			<stop  offset="0.1608" style="stop-color:#BED9F0"/>
			<stop  offset="0.3264" style="stop-color:#19344B"/>
			<stop  offset="0.5535" style="stop-color:#89A4BB"/>
			<stop  offset="0.8267" style="stop-color:#FEFEFE"/>
			<stop  offset="0.9122" style="stop-color:#647F96"/>
			<stop  offset="0.9795" style="stop-color:#D5D9DD"/>
		</linearGradient>
		<path id="shape9_7_" class="st20" d="M14.2,36H15c0.1,0,0.1,0.1,0.1,0.1v3c0,0.1-0.1,0.1-0.1,0.1h-0.8c-0.1-0.1-0.1-0.1-0.1-0.2
			v-3C14.1,36.1,14.1,36,14.2,36z"/>
		
			<linearGradient id="shape10_3_" gradientUnits="userSpaceOnUse" x1="-1177.5266" y1="329.7927" x2="-1177.5531" y2="329.7927" gradientTransform="matrix(39.4123 0 0 -120.2579 46426.8984 39697.8359)">
			<stop  offset="0" style="stop-color:#D8EDFF"/>
			<stop  offset="7.405362e-02" style="stop-color:#F0EFEF"/>
			<stop  offset="0.1608" style="stop-color:#BED9F0"/>
			<stop  offset="0.3264" style="stop-color:#19344B"/>
			<stop  offset="0.5535" style="stop-color:#89A4BB"/>
			<stop  offset="0.8267" style="stop-color:#FEFEFE"/>
			<stop  offset="0.9122" style="stop-color:#647F96"/>
			<stop  offset="0.9795" style="stop-color:#D5D9DD"/>
		</linearGradient>
		<path id="shape10_7_" class="st21" d="M17,36h0.8c0.1,0,0.1,0.1,0.1,0.1v3c0,0.1-0.1,0.1-0.1,0.1H17c-0.1-0.1-0.1-0.1-0.1-0.2v-3
			C16.8,36.1,16.9,36,17,36z"/>
	</g>
	
		<linearGradient id="shape11_3_" gradientUnits="userSpaceOnUse" x1="-1187.1266" y1="283.0984" x2="-1187.1552" y2="283.0984" gradientTransform="matrix(589.1627 0 0 -54.5708 699447.3125 15486.5078)">
		<stop  offset="0" style="stop-color:#D8EDFF"/>
		<stop  offset="7.405362e-02" style="stop-color:#F0EFEF"/>
		<stop  offset="0.1608" style="stop-color:#BED9F0"/>
		<stop  offset="0.3264" style="stop-color:#19344B"/>
		<stop  offset="0.5535" style="stop-color:#89A4BB"/>
		<stop  offset="0.8267" style="stop-color:#FEFEFE"/>
		<stop  offset="0.9122" style="stop-color:#647F96"/>
		<stop  offset="0.9795" style="stop-color:#D5D9DD"/>
	</linearGradient>
	<path id="shape11_5_" class="st22" d="M20.1,36.7h16.2c0.1,0,0.3,0.2,0.3,0.3v1.1c0,0.2-0.1,0.3-0.3,0.3H20.1
		c-0.1,0-0.3-0.2-0.3-0.3v-1.1C19.8,36.8,19.9,36.7,20.1,36.7z"/>
	<linearGradient id="SVGID_7_" gradientUnits="userSpaceOnUse" x1="19.7686" y1="37.603" x2="36.5862" y2="37.603">
		<stop  offset="0" style="stop-color:#D8EDFF"/>
		<stop  offset="7.405362e-02" style="stop-color:#F0EFEF"/>
		<stop  offset="0.1608" style="stop-color:#BED9F0"/>
		<stop  offset="0.3264" style="stop-color:#19344B"/>
		<stop  offset="0.5535" style="stop-color:#89A4BB"/>
		<stop  offset="0.8267" style="stop-color:#FEFEFE"/>
		<stop  offset="0.9122" style="stop-color:#647F96"/>
		<stop  offset="0.9795" style="stop-color:#D5D9DD"/>
	</linearGradient>
	<rect x="19.8" y="37.4" class="st23" width="16.8" height="0.3"/>
</g>
</svg>
